<svg xmlns="http://www.w3.org/2000/svg" xmlns:xlink="http://www.w3.org/1999/xlink" viewBox="0 0 401 163"><defs><circle id="a" cx="42.31" cy="41.67" r="41.33"/><linearGradient id="c" x1="4.54956642%" x2="36.9488241%" y1="55.3574163%" y2="42.7430326%"><stop offset="0%" stop-color="#A52714" stop-opacity=".6"/><stop offset="66%" stop-color="#A52714" stop-opacity="0"/></linearGradient><circle id="d" cx="42.31" cy="41.67" r="41.33"/><circle id="f" cx="42.31" cy="41.67" r="41.33"/><linearGradient id="h" x1="70.0242417%" x2="41.9102887%" y1="87.7726878%" y2="66.3553316%"><stop offset="0%" stop-color="#055524" stop-opacity=".4"/><stop offset="33%" stop-color="#055524" stop-opacity="0"/></linearGradient><circle id="i" cx="42.31" cy="41.67" r="41.33"/><circle id="k" cx="42.31" cy="41.67" r="41.33"/><path id="m" d="M.98 75h39.35l18.26-18.26V43.06H26.04L.98.07z"/><linearGradient id="o" x1="40.9738075%" x2="49.242706%" y1="-4.8424817%" y2="45.4136311%"><stop offset="0%" stop-color="#EA6100" stop-opacity=".3"/><stop offset="66%" stop-color="#EA6100" stop-opacity="0"/></linearGradient><circle id="p" cx="42.31" cy="41.67" r="41.33"/><circle id="r" cx="42.31" cy="41.67" r="41.33"/><path id="t" d="M2.31.88l16.28 28.18L.33 61h43.32V.88z"/><circle id="v" cx="42.31" cy="41.67" r="41.33"/><radialGradient id="w" cx="-4.86539506%" cy="-.26168699%" r="401.333079%" fx="-4.86539506%" fy="-.26168699%" gradientTransform="matrix(.26717 0 0 1 -.03565496 0)"><stop offset="0%" stop-color="#3E2723" stop-opacity=".2"/><stop offset="100%" stop-color="#3E2723" stop-opacity="0"/></radialGradient><circle id="y" cx="42.31" cy="41.67" r="41.33"/><path id="A" d="M.54.33v18.95l18.5 31.78 16.27-28.18h41.34V.33z"/><circle id="C" cx="42.31" cy="41.67" r="41.33"/><radialGradient id="D" cx="-.15693566%" cy=".11125118%" r="136.321681%" fx="-.15693566%" fy=".11125118%" gradientTransform="matrix(1 0 0 .84746 0 .00016977)"><stop offset="0%" stop-color="#3E2723" stop-opacity=".2"/><stop offset="100%" stop-color="#3E2723" stop-opacity="0"/></radialGradient><circle id="F" cx="42.31" cy="41.67" r="41.33"/><radialGradient id="G" cx="10.3180197%" cy="-12.2197114%" r="226.397285%" fx="10.3180197%" fy="-12.2197114%" gradientTransform="matrix(1 0 0 .49633 0 -.06154757)"><stop offset="0%" stop-color="#263238" stop-opacity=".2"/><stop offset="100%" stop-color="#263238" stop-opacity="0"/></radialGradient><circle id="I" cx="42.31" cy="41.67" r="41.33"/><circle id="K" cx="42.31" cy="41.67" r="41.33"/><circle id="M" cx="42.31" cy="41.67" r="41.33"/><circle id="O" cx="42.31" cy="41.67" r="41.33"/><radialGradient id="P" cx="14.9377268%" cy="13.6371885%" r="100.432011%" fx="14.9377268%" fy="13.6371885%"><stop offset="0%" stop-color="#FFF" stop-opacity=".1"/><stop offset="100%" stop-color="#FFF" stop-opacity="0"/></radialGradient></defs><g fill="none" fill-rule="evenodd"><g transform="translate(0 40)"><mask id="b" fill="#fff"><use xlink:href="#a"/></mask><g fill-rule="nonzero" mask="url(#b)"><path fill="#DB4437" d="M7.54.33v50.73h18.5l16.27-28.18h41.34V.33z"/><path fill="url(#c)" d="M.54.33v50.73h18.5l16.27-28.18h41.34V.33z" transform="translate(7)"/></g></g><g transform="translate(0 40)"><mask id="e" fill="#fff"><use xlink:href="#d"/></mask><path fill="#3E2723" fill-opacity=".15" fill-rule="nonzero" d="M26.49 50.9L7.78 18.81l-.27.47 18.57 31.85z" mask="url(#e)"/></g><g transform="translate(0 40)"><mask id="g" fill="#fff"><use xlink:href="#f"/></mask><g fill-rule="nonzero" mask="url(#g)"><path fill="#0F9D58" d="M.98 83h39.35l18.26-18.26V51.06H26.04L.98 8.07z"/><path fill="url(#h)" d="M.98 75h39.35l18.26-18.26V43.06H26.04L.98.07z" transform="translate(0 8)"/></g></g><g transform="translate(0 40)"><mask id="j" fill="#fff"><use xlink:href="#i"/></mask><path fill="#263238" fill-opacity=".15" fill-rule="nonzero" d="M58.21 51.69l-.39-.23L39.79 83h.54l17.89-31.3z" mask="url(#j)"/></g><g transform="translate(0 40)"><mask id="l" fill="#fff"><use xlink:href="#k"/></mask><g mask="url(#l)"><g transform="translate(0 8)"><mask id="n" fill="#fff"><use xlink:href="#m"/></mask><g mask="url(#n)"><path fill="#FFCD40" fill-rule="nonzero" d="M42.31 14.88l16.28 28.18L40.33 75h43.32V14.88z"/><path fill="url(#o)" fill-rule="nonzero" d="M8.31 3.88l16.28 28.18L6.33 64h43.32V3.88z" transform="translate(34 11)"/></g></g><mask id="q" fill="#fff"><use xlink:href="#p"/></mask><g fill-rule="nonzero" mask="url(#q)"><path fill="#FFCD40" d="M42.31 22.88l16.28 28.18L40.33 83h43.32V22.88z"/><path fill="url(#o)" d="M2.31.88l16.28 28.18L.33 61h43.32V.88z" transform="translate(40 22)"/></g><g><mask id="s" fill="#fff"><use xlink:href="#r"/></mask><g mask="url(#s)"><g transform="translate(40 22)"><mask id="u" fill="#fff"><use xlink:href="#t"/></mask><g mask="url(#u)"><path fill="#DB4437" fill-rule="nonzero" d="M-32.46-21.67v50.73h18.5L2.31.88h41.34v-22.55z"/><path fill="url(#c)" fill-rule="nonzero" d="M4.54 5.33v50.73h18.5l16.27-28.18h41.34V5.33z" transform="translate(-37 -27)"/></g></g><g><mask id="x" fill="#fff"><use xlink:href="#v"/></mask><path fill="url(#w)" fill-rule="nonzero" d="M42.31 22.88v9.84l36.83-9.84z" mask="url(#x)"/></g><g><mask id="z" fill="#fff"><use xlink:href="#y"/></mask><g mask="url(#z)"><g transform="translate(7)"><mask id="B" fill="#fff"><use xlink:href="#A"/></mask><g mask="url(#B)"><path fill="#0F9D58" fill-rule="nonzero" d="M-6.02 83h39.35l18.26-18.26V51.06H19.04L-6.02 8.07z"/><path fill="url(#h)" fill-rule="nonzero" d="M3.98 79h39.35l18.26-18.26V47.06H29.04L3.98 4.07z" transform="translate(-10 4)"/></g></g><mask id="E" fill="#fff"><use xlink:href="#C"/></mask><path fill="url(#D)" fill-rule="nonzero" d="M7.54 19.33l26.89 26.89-8.39 4.84z" mask="url(#E)"/><mask id="H" fill="#fff"><use xlink:href="#F"/></mask><path fill="url(#G)" fill-rule="nonzero" d="M40.36 82.95l9.84-36.73 8.39 4.84z" mask="url(#H)"/><g><mask id="J" fill="#fff"><use xlink:href="#I"/></mask><g fill-rule="nonzero" mask="url(#J)"><g transform="translate(23 22)"><circle cx="19.31" cy="19.67" r="18.79" fill="#F1F1F1"/><circle cx="19.31" cy="19.67" r="15.03" fill="#4285F4"/></g></g></g><g><mask id="L" fill="#fff"><use xlink:href="#K"/></mask><g fill-rule="nonzero" mask="url(#L)"><path fill="#3E2723" fill-opacity=".2" d="M42.31 22.41c-10.38 0-18.79 8.41-18.79 18.79v.47c0-10.38 8.41-18.79 18.79-18.79h41.33v-.47H42.31z"/><path fill="#FFF" fill-opacity=".1" d="M58.57 51.06c-3.25 5.61-9.3 9.39-16.25 9.39-6.95 0-13.01-3.79-16.26-9.39h-.02L.98 8.07v.47l25.06 42.99h.02c3.25 5.61 9.3 9.39 16.26 9.39 6.95 0 13-3.78 16.25-9.39h.02v-.47h-.02z"/><path fill="#3E2723" d="M42.78 22.88c-.08 0-.15.01-.23.01 10.27.13 18.55 8.48 18.55 18.77s-8.29 18.65-18.55 18.77c.08 0 .15.01.23.01 10.38 0 18.79-8.41 18.79-18.79 0-10.38-8.41-18.77-18.79-18.77z" opacity=".1"/><path fill="#FFF" fill-opacity=".2" d="M58.75 51.69c1.6-2.76 2.52-5.96 2.52-9.38 0-1.98-.31-3.89-.88-5.68.45 1.61.7 3.29.7 5.04 0 3.42-.93 6.61-2.52 9.38l.01.02L40.33 83h.54l17.89-31.3-.01-.01z"/></g></g><g><mask id="N" fill="#fff"><use xlink:href="#M"/></mask><g fill-rule="nonzero" mask="url(#N)"><path fill="#FFF" fill-opacity=".2" d="M42.31.8c22.75 0 41.2 18.38 41.33 41.1v-.23C83.64 18.84 65.13.34 42.31.34 19.49.34.98 18.84.98 41.67v.23C1.11 19.18 19.57.8 42.31.8z"/><path fill="#3E2723" fill-opacity=".15" d="M42.31 82.53c22.75 0 41.2-18.38 41.33-41.1v.23c0 22.83-18.51 41.33-41.33 41.33C19.49 82.99.98 64.48.98 41.66v-.23c.13 22.72 18.59 41.1 41.33 41.1z"/></g></g></g></g><g><mask id="Q" fill="#fff"><use xlink:href="#O"/></mask><circle cx="42.31" cy="41.67" r="41.33" fill="url(#P)" fill-rule="nonzero" mask="url(#Q)"/></g><path d="M-2.78-3.42H87.4v90.18H-2.78z"/></g></g></g></g><path fill="#5D5D5D" fill-rule="nonzero" d="M131.31 0h4v163h-4z"/><g fill="#5D5D5D" fill-rule="nonzero"><path d="M189.52 44.57c-1.61-.93-2.87-2.22-3.76-3.86-.89-1.64-1.34-3.5-1.34-5.58s.45-3.94 1.34-5.58c.89-1.64 2.15-2.93 3.76-3.86 1.61-.93 3.43-1.4 5.46-1.4 2.24 0 4.15.51 5.72 1.52 1.57 1.01 2.69 2.39 3.36 4.12l-4.04 1.68c-.91-2.16-2.63-3.24-5.16-3.24-1.09 0-2.1.28-3.02.84-.92.56-1.65 1.35-2.2 2.38-.55 1.03-.82 2.21-.82 3.54s.27 2.52.82 3.56c.54 1.04 1.28 1.84 2.2 2.4.92.56 1.93.84 3.02.84 1.28 0 2.38-.29 3.3-.86.92-.57 1.62-1.39 2.1-2.46l3.96 1.72c-.78 1.73-1.95 3.11-3.52 4.12-1.57 1.01-3.48 1.52-5.72 1.52-2.03 0-3.85-.46-5.46-1.4zM207.98 16.69h4.4v7.8l-.2 3.12h.2c.59-.96 1.46-1.75 2.62-2.38 1.16-.63 2.41-.94 3.74-.94 2.48 0 4.37.73 5.68 2.18 1.31 1.45 1.96 3.43 1.96 5.94v12.92h-4.4V33.01c0-1.55-.41-2.71-1.22-3.48s-1.88-1.16-3.18-1.16c-.99 0-1.88.28-2.66.84-.79.56-1.41 1.3-1.86 2.22-.45.92-.68 1.9-.68 2.94v10.96h-4.4V16.69zM231.38 24.93h4.2v3h.2c.45-1.04 1.24-1.91 2.36-2.6 1.12-.69 2.31-1.04 3.56-1.04.99 0 1.81.15 2.48.44v4.52c-1.17-.43-2.23-.64-3.16-.64-1.01 0-1.91.27-2.7.8-.79.53-1.41 1.25-1.86 2.15-.45.9-.68 1.88-.68 2.95v10.83h-4.4V24.93zM250.38 44.55c-1.63-.95-2.89-2.25-3.8-3.9-.91-1.65-1.36-3.49-1.36-5.52 0-2.03.45-3.87 1.36-5.52.91-1.65 2.17-2.95 3.8-3.9 1.63-.95 3.47-1.42 5.52-1.42 2.05 0 3.89.48 5.52 1.44 1.63.96 2.89 2.27 3.8 3.92.91 1.65 1.36 3.48 1.36 5.48 0 2.03-.45 3.87-1.36 5.52-.91 1.65-2.17 2.95-3.8 3.9-1.63.95-3.47 1.42-5.52 1.42-2.05 0-3.89-.47-5.52-1.42zm8.64-3.44c.96-.55 1.72-1.33 2.3-2.36.57-1.03.86-2.23.86-3.62 0-1.39-.29-2.59-.86-3.6-.57-1.01-1.34-1.79-2.3-2.34-.96-.55-2-.82-3.12-.82s-2.16.27-3.12.82c-.96.55-1.73 1.33-2.3 2.34-.57 1.01-.86 2.21-.86 3.6 0 1.39.29 2.59.86 3.62.57 1.03 1.34 1.81 2.3 2.36.96.55 2 .82 3.12.82s2.16-.27 3.12-.82zM270.22 24.93h4.2v2.68h.2c.61-.99 1.48-1.79 2.6-2.4 1.12-.61 2.32-.92 3.6-.92 1.47 0 2.75.34 3.84 1.02 1.09.68 1.88 1.58 2.36 2.7.69-1.12 1.62-2.02 2.78-2.7 1.16-.68 2.53-1.02 4.1-1.02 2.35 0 4.13.71 5.34 2.14 1.21 1.43 1.82 3.37 1.82 5.82v13.08h-4.4V33.01c0-3.09-1.32-4.64-3.96-4.64-1.41 0-2.57.57-3.48 1.72-.91 1.15-1.36 2.56-1.36 4.24v11h-4.4V33.01c0-3.09-1.36-4.64-4.08-4.64-1.39 0-2.53.57-3.42 1.72-.89 1.15-1.34 2.56-1.34 4.24v11h-4.4v-20.4zM310 44.57c-1.59-.93-2.83-2.22-3.72-3.86-.89-1.64-1.34-3.49-1.34-5.54 0-1.95.43-3.75 1.3-5.42.87-1.67 2.07-2.99 3.62-3.98 1.54-.99 3.3-1.48 5.28-1.48 2.05 0 3.83.45 5.34 1.36 1.51.91 2.65 2.15 3.44 3.72.79 1.57 1.18 3.35 1.18 5.32 0 .37-.04.84-.12 1.4h-15.64c.16 1.89.83 3.35 2.02 4.38 1.19 1.03 2.56 1.54 4.14 1.54 1.25 0 2.34-.29 3.26-.86.92-.57 1.66-1.35 2.22-2.34l3.72 1.76c-.96 1.68-2.21 3-3.76 3.96-1.55.96-3.4 1.44-5.56 1.44-2 0-3.79-.46-5.38-1.4zm10.62-11.84c-.05-.72-.28-1.43-.68-2.14-.4-.71-1.01-1.3-1.82-1.78s-1.81-.72-2.98-.72c-1.41 0-2.61.42-3.58 1.26-.97.84-1.65 1.97-2.02 3.38h11.08zM189.26 92.57c-1.49-.93-2.67-2.22-3.54-3.86-.87-1.64-1.3-3.5-1.3-5.58s.43-3.94 1.3-5.58c.87-1.64 2.04-2.93 3.54-3.86 1.49-.93 3.16-1.4 5-1.4 1.44 0 2.73.32 3.88.96 1.15.64 2.01 1.43 2.6 2.36h.2l-.2-2.88v-8.04h4.4v28.64h-4.2v-2.64h-.2c-.59.91-1.45 1.68-2.6 2.32-1.15.64-2.44.96-3.88.96-1.84 0-3.5-.46-5-1.4zm8.62-3.48c.92-.56 1.66-1.36 2.22-2.4.56-1.04.84-2.23.84-3.56s-.28-2.51-.84-3.54c-.56-1.03-1.3-1.82-2.22-2.38-.92-.56-1.91-.84-2.98-.84s-2.07.28-3 .84c-.93.56-1.68 1.35-2.24 2.38-.56 1.03-.84 2.21-.84 3.54s.28 2.52.84 3.56c.56 1.04 1.31 1.84 2.24 2.4.93.56 1.93.84 3 .84s2.06-.28 2.98-.84zM214 92.57c-1.59-.93-2.83-2.22-3.72-3.86-.89-1.64-1.34-3.49-1.34-5.54 0-1.95.43-3.75 1.3-5.42.87-1.67 2.07-2.99 3.62-3.98 1.54-.99 3.3-1.48 5.28-1.48 2.05 0 3.83.45 5.34 1.36 1.51.91 2.65 2.15 3.44 3.72.79 1.57 1.18 3.35 1.18 5.32 0 .37-.04.84-.12 1.4h-15.64c.16 1.89.83 3.35 2.02 4.38 1.19 1.03 2.56 1.54 4.14 1.54 1.25 0 2.34-.29 3.26-.86.92-.57 1.66-1.35 2.22-2.34l3.72 1.76c-.96 1.68-2.21 3-3.76 3.96-1.55.96-3.4 1.44-5.56 1.44-2 0-3.79-.46-5.38-1.4zm10.62-11.84c-.05-.72-.28-1.43-.68-2.14-.4-.71-1.01-1.3-1.82-1.78s-1.81-.72-2.98-.72c-1.41 0-2.61.42-3.58 1.26-.97.84-1.65 1.97-2.02 3.38h11.08zM230.42 72.93h4.92l5.64 14.72h.16l5.76-14.72h4.8l-8.48 20.4h-4.4zM265.58 92.43c-1.49-1.03-2.55-2.34-3.16-3.94l3.92-1.72c.48 1.07 1.15 1.88 2.02 2.44.87.56 1.86.84 2.98.84 1.09 0 2.01-.19 2.76-.58.75-.39 1.12-.97 1.12-1.74 0-.75-.32-1.33-.96-1.76-.64-.43-1.63-.8-2.96-1.12l-2.44-.6c-1.63-.4-2.97-1.11-4.04-2.12-1.07-1.01-1.6-2.29-1.6-3.84 0-1.2.35-2.25 1.06-3.16.71-.91 1.66-1.61 2.86-2.1s2.51-.74 3.92-.74c1.89 0 3.56.38 5 1.14 1.44.76 2.48 1.86 3.12 3.3l-3.84 1.68c-.77-1.57-2.19-2.36-4.24-2.36-.99 0-1.81.2-2.48.6-.67.4-1 .92-1 1.56 0 .61.25 1.11.76 1.5.51.39 1.25.71 2.24.98l3 .76c2 .51 3.51 1.27 4.54 2.3 1.03 1.03 1.54 2.29 1.54 3.78 0 1.28-.37 2.41-1.1 3.38-.73.97-1.74 1.73-3.02 2.26-1.28.53-2.7.8-4.24.8-2.35 0-4.27-.51-5.76-1.54zM285.28 91.75c-1.29-1.48-1.94-3.54-1.94-6.18V72.93h4.4v12.04c0 1.65.39 2.89 1.18 3.72.79.83 1.82 1.24 3.1 1.24 1.04 0 1.96-.27 2.76-.82.8-.55 1.41-1.27 1.84-2.18.43-.91.64-1.88.64-2.92V72.93h4.4v20.4h-4.16v-2.64h-.24c-.56.96-1.43 1.75-2.6 2.36-1.17.61-2.41.92-3.72.92-2.48 0-4.37-.74-5.66-2.22zM306.78 72.93h4.2v2.68h.2c.61-.99 1.48-1.79 2.6-2.4 1.12-.61 2.32-.92 3.6-.92 1.46 0 2.75.34 3.84 1.02 1.09.68 1.88 1.58 2.36 2.7.69-1.12 1.62-2.02 2.78-2.7 1.16-.68 2.53-1.02 4.1-1.02 2.35 0 4.12.71 5.34 2.14 1.21 1.43 1.82 3.37 1.82 5.82v13.08h-4.4V81.01c0-3.09-1.32-4.64-3.96-4.64-1.41 0-2.57.57-3.48 1.72-.91 1.15-1.36 2.56-1.36 4.24v11h-4.4V81.01c0-3.09-1.36-4.64-4.08-4.64-1.39 0-2.53.57-3.42 1.72-.89 1.15-1.34 2.56-1.34 4.24v11h-4.4v-20.4zM342.62 72.93h4.2v2.68h.2c.61-.99 1.48-1.79 2.6-2.4 1.12-.61 2.32-.92 3.6-.92 1.46 0 2.75.34 3.84 1.02 1.09.68 1.88 1.58 2.36 2.7.69-1.12 1.62-2.02 2.78-2.7 1.16-.68 2.53-1.02 4.1-1.02 2.35 0 4.12.71 5.34 2.14 1.21 1.43 1.82 3.37 1.82 5.82v13.08h-4.4V81.01c0-3.09-1.32-4.64-3.96-4.64-1.41 0-2.57.57-3.48 1.72-.91 1.15-1.36 2.56-1.36 4.24v11h-4.4V81.01c0-3.09-1.36-4.64-4.08-4.64-1.39 0-2.53.57-3.42 1.72-.89 1.15-1.34 2.56-1.34 4.24v11h-4.4v-20.4zM378.88 69.43c-.57-.57-.86-1.27-.86-2.1 0-.83.29-1.53.86-2.1.57-.57 1.27-.86 2.1-.86.83 0 1.53.29 2.1.86.57.57.86 1.27.86 2.1 0 .83-.29 1.53-.86 2.1-.57.57-1.27.86-2.1.86-.83 0-1.53-.28-2.1-.86zm-.1 3.5h4.4v20.4h-4.4v-20.4zM394.26 93.53c-.8-.3-1.45-.69-1.96-1.18-1.15-1.17-1.72-2.76-1.72-4.77V76.81h-3.56v-3.88h3.56v-5.76h4.4v5.76h4.96v3.88h-4.96v9.84c0 1.12.21 1.91.64 2.38.4.55 1.09.82 2.08.82.45 0 .85-.06 1.2-.18s.72-.31 1.12-.58v4.28c-.88.4-1.95.6-3.2.6-.91 0-1.76-.15-2.56-.44z"/></g><path fill="#878787" fill-rule="nonzero" d="M184.924 136.597l4.7175-4.7175c2.331012-2.331012 3.829497-3.854163 4.4955-4.5695.888004-.962005 1.498498-1.763663 1.8315-2.405.333002-.641337.4995-1.368996.4995-2.183 0-.863338-.320663-1.590997-.962-2.183-.641337-.592003-1.492328-.888-2.553-.888-1.036005 0-1.874663.295997-2.516.888-.641337.592003-1.097665 1.331996-1.369 2.22l-4.366-1.813c.271335-.962005.77083-1.893162 1.4985-2.7935.72767-.900338 1.671161-1.634164 2.8305-2.2015 1.159339-.567336 2.491326-.851 3.996-.851 1.677342 0 3.144994.32683 4.403.9805 1.258006.65367 2.23233 1.541661 2.923 2.664.69067 1.122339 1.036 2.37416 1.036 3.7555 0 2.738014-1.331987 5.41432-3.996 8.029-1.085339 1.060672-3.095652 3.058652-6.031 5.994l.111.222h10.249V141h-16.798v-4.403zm30.717 4.995c-2.121344 0-3.983659-.573494-5.587-1.7205s-2.842829-2.725657-3.7185-4.736c-.875671-2.010343-1.3135-4.273487-1.3135-6.7895s.437829-4.779157 1.3135-6.7895c.875671-2.010343 2.115159-3.588994 3.7185-4.736 1.603341-1.147006 3.465656-1.7205 5.587-1.7205 2.121344 0 3.983659.573494 5.587 1.7205s2.842829 2.725657 3.7185 4.736c.875671 2.010343 1.3135 4.273487 1.3135 6.7895s-.437829 4.779157-1.3135 6.7895c-.875671 2.010343-2.115159 3.588994-3.7185 4.736-1.603341 1.147006-3.465656 1.7205-5.587 1.7205zm0-4.551c1.184006 0 2.213829-.376163 3.0895-1.1285.875671-.752337 1.541664-1.788327 1.998-3.108.456336-1.319673.6845-2.805825.6845-4.4585 0-2.565346-.517995-4.655825-1.554-6.2715-1.036005-1.615675-2.441991-2.4235-4.218-2.4235-1.751342 0-3.144995.813992-4.181 2.442-1.036005 1.628008-1.554 3.712321-1.554 6.253 0 1.652675.228164 3.138827.6845 4.4585.456336 1.319673 1.122329 2.355663 1.998 3.108.875671.752337 1.893161 1.1285 3.0525 1.1285zm19.691-15.022l-3.811 2.775-2.442-3.737 7.437-5.365h3.663V141h-4.847v-18.981zm13.956 17.131l5.217-7.326-.222-.222c-.567336.246668-1.208663.37-1.924.37-1.282673 0-2.509827-.351496-3.6815-1.0545-1.171673-.703004-2.12133-1.683494-2.849-2.9415-.72767-1.258006-1.0915-2.663992-1.0915-4.218 0-1.628008.413163-3.107993 1.2395-4.44.826337-1.332007 1.923993-2.367996 3.293-3.108 1.369007-.740004 2.830492-1.11 4.3845-1.11 1.776009 0 3.35466.400829 4.736 1.2025 1.38134.801671 2.454329 1.880827 3.219 3.2375.76467 1.356673 1.147 2.824325 1.147 4.403 0 1.578675-.302164 3.05866-.9065 4.44-.604336 1.38134-1.498494 2.910658-2.6825 4.588l-6.105 8.769-3.774-2.59zm4.477-11.211c1.134672 0 2.127496-.400829 2.9785-1.2025.851004-.801671 1.2765-1.806827 1.2765-3.0155 0-1.208673-.425496-2.207663-1.2765-2.997-.851004-.789337-1.843828-1.184-2.9785-1.184-1.159339 0-2.164496.394663-3.0155 1.184-.851004.789337-1.2765 1.788327-1.2765 2.997 0 1.208673.425496 2.213829 1.2765 3.0155.851004.801671 1.856161 1.2025 3.0155 1.2025z"/></g></svg>