<svg xmlns="http://www.w3.org/2000/svg" viewBox="0 0 690 278"><path fill="#4285f4" d="M633 232a47 47 0 00-3 5 26 26 0 01-4 6 27 27 0 00-3 4 33 33 0 01-4 4l-3 3a49 49 0 01-7 7l-6 4a65 65 0 01-11 5l-4 2c-3 2-4 1-7 2l-2 1-2 1-12 2a27 27 0 01-7 0h-2l-14-1h-1l-6-1a63 63 0 01-8-3l-5-1-5-1a97 97 0 01-9-4 7 7 0 00-1-1 43 43 0 01-11-7 73 73 0 01-9-9l-7-8a54 54 0 01-8-13l-4-10a83 83 0 01-5-18l-3-12-2-12-1-10v-23a36 36 0 010-6 2 2 0 012-2l8-1h8a22 22 0 015 0l14 1h26a156 156 0 0117-1h89l13-1a8 8 0 001 0h8a1 1 0 011 1 8 8 0 011 4l-1 5a31 31 0 000 7l2 2a48 48 0 005 0 30 30 0 017 2h3a22 22 0 012 2 38 38 0 0110 7 24 24 0 015 5 4 4 0 000 1 24 24 0 015 8v2a30 30 0 012 11 35 35 0 01-1 9c-2 4-3 9-6 13a18 18 0 01-2 2l-6 6a14 14 0 01-3 2l-7 4a36 36 0 01-7 2l-9 2a76 76 0 01-12 0l-4 1z"/><path fill="#aecbfa" d="M486 155h-3a27 27 0 00-6 1 8 8 0 00-1 0 1 1 0 00-1 2 33 33 0 000 4v3l1 8a59 59 0 001 8l1 5 1 6 2 9a43 43 0 003 10l1 1 5 12a34 34 0 003 6l2 2a84 84 0 0011 12 14 14 0 003 2l6 4 7 1 9 4a23 23 0 0010 3h12a25 25 0 007 0h3a15 15 0 003 0 9 9 0 015-1 9 9 0 004 0c6-2 10-3 16-7 5-3 10-5 14-9 4-5 8-9 10-14l1-1a60 60 0 005-11l4-12c1-3 1-7 3-10l1-7a65 65 0 002-16 33 33 0 010-3l1-8v-3a17 17 0 000-1 1 1 0 00-1-1h-35a1 1 0 01-1 0h-13a33 33 0 01-4 0 17 17 0 00-1 0h-9a26 26 0 01-4 0 63 63 0 00-7 0h-51l-12 1h-8zM670 191a22 22 0 000-2 15 15 0 00-1-3l-1-3a16 16 0 00-9-8 7 7 0 00-1-1l-7-1c-2-1-2 0-3 2a5 5 0 000 1l-1 8a35 35 0 010 4l-1 4-5 19a1 1 0 001 1 74 74 0 0012-2 37 37 0 008-3 3 3 0 000-1l5-4a6 6 0 001-2 38 38 0 002-5 11 11 0 000-4z"/><path fill="#4285f4" d="M567 26a27 27 0 01-4 12l-7 12a22 22 0 00-2 6 6 6 0 000 4 21 21 0 002 4l6 9 2 3a8 8 0 012 3 4 4 0 000 1 16 16 0 011 6 13 13 0 000 1v10a27 27 0 01-2 7 3 3 0 00-1 0l-6 12-5 5a5 5 0 01-6 1 28 28 0 01-5-3 8 8 0 01-2-1 6 6 0 00-1-1 10 10 0 01-3-4 2 2 0 010-2 7 7 0 012-3 18 18 0 006-6 18 18 0 004-12 13 13 0 00-2-5 52 52 0 00-5-8 43 43 0 01-5-8 14 14 0 01-1-3l-1-6a13 13 0 011-4v-4a29 29 0 014-9l6-9a14 14 0 002-5 10 10 0 00-3-9l-1-1-6-6a1 1 0 010-2l4-4 2-3 4-2 2-2a2 2 0 012 0 13 13 0 013 2l5 5 4 5a5 5 0 010 1 51 51 0 013 7 20 20 0 011 6zM485 99a50 50 0 012-15 10 10 0 011-2c3-5 4-11 6-17a11 11 0 00-1-8 10 10 0 00-4-4l-3-2a2 2 0 010-3 17 17 0 013-4 5 5 0 001-1 24 24 0 014-4l1-2c3-2 2-2 6 0a31 31 0 015 4 14 14 0 014 5l1 3a17 17 0 012 5v4a7 7 0 010 1 45 45 0 01-1 9 99 99 0 01-4 14 8 8 0 01-1 1 19 19 0 00-2 5 29 29 0 00-2 11 11 11 0 004 7 18 18 0 013 4 1 1 0 010 1l-5 7a8 8 0 01-1 1 10 10 0 00-1 1 6 6 0 01-4 2 4 4 0 00-1 1 3 3 0 01-3-1 33 33 0 01-9-13 9 9 0 010-1l-1-9zM603 122a42 42 0 01-6-5 28 28 0 01-5-10 12 12 0 01-1-1 44 44 0 010-13 21 21 0 011-6l3-8a54 54 0 012-5 37 37 0 003-7 15 15 0 00-1-7 17 17 0 00-4-8l-2-2a1 1 0 010-2 5 5 0 011 0 20 20 0 013-3 13 13 0 003-2 5 5 0 011-1l5-3a7 7 0 011 0 2 2 0 012 0 22 22 0 014 4 32 32 0 016 12 31 31 0 011 6 27 27 0 01-2 9 32 32 0 01-2 6l-4 9c-3 4-3 8-3 13a8 8 0 002 5l2 2 1 1a7 7 0 013 3c0 3 0 3-2 5a8 8 0 000 1l-6 5a8 8 0 01-3 1l-3 1zM490 274v-3a5 5 0 00-1-1 26 26 0 01-3-7 45 45 0 00-1-5 37 37 0 01-2-4l-1-3-1-6a1 1 0 00-1-1 6 6 0 01-1-2 4 4 0 000-1l-1-1a16 16 0 00-1-3 7 7 0 01-1-3 6 6 0 00-1-2 9 9 0 01-2-4l-2-2-3-3-6-7-5-7-7-7-4-5-6-6-2-2-4-5-6-6-5-7-5-6-5-5-3-3-4-4-5-5a13 13 0 01-2-2 50 50 0 00-5-5 30 30 0 00-3-2l-4-3a10 10 0 00-3-2 37 37 0 00-8-2 16 16 0 00-4 0 4 4 0 01-1 0 15 15 0 00-5 1 20 20 0 00-9 5 17 17 0 00-4 5v1a9 9 0 000-2 20 20 0 01-1-4 83 83 0 000-11l-1-8v-12a3 3 0 00-2-3l-2-1a2 2 0 00-1 0h-14a32 32 0 00-5 0 51 51 0 01-6 1h-17a7 7 0 01-1 0 38 38 0 00-7-1l-5 1h-4a4 4 0 00-3 1l-1 2v7l1 11 1 5v9l-1 8a6 6 0 010 1 41 41 0 00-3-4l-3-3-2-2-4-4-6-7-6-7-9-11-3-3-11-11-3-3-8-9-5-4-11-12-4-4-6-5v-1a47 47 0 01-5-5 11 11 0 00-1-1 10 10 0 00-2-1 1 1 0 00-1 0l-4 3-5 3a72 72 0 00-6 5l-3 2-5-4c-2-2-3-2-5-1l-4 2-3 1a7 7 0 00-2 1 3 3 0 01-1 0 6 6 0 00-2 2 1 1 0 000 1l2 3 5 4 2 2a30 30 0 01-6 4l-4-4-1-1a2 2 0 00-2 0 11 11 0 00-2 1l-6 3-2 1a6 6 0 00-3 2 1 1 0 000 1 20 20 0 002 2l3 3 2 3a82 82 0 01-6 5l-2-2a19 19 0 01-4-3 2 2 0 00-3-1 26 26 0 00-3 2l-6 3a21 21 0 00-3 3v1a36 36 0 003 4l3 2a5 5 0 011 2 114 114 0 01-9 7l-2-3-3-2a2 2 0 00-1-1 14 14 0 00-2 1l-7 4a20 20 0 01-2 2 7 7 0 00-2 1v2a44 44 0 005 5l1 2-7 6-3-3a30 30 0 00-4-3 2 2 0 00-2-1 42 42 0 00-6 4l-5 3a7 7 0 00-2 2 1 1 0 000 1l2 1 5 5 1 2-7 5-5-4-2-1a1 1 0 00-1 0h-1a63 63 0 00-8 4l-2 2a7 7 0 00-2 2 1 1 0 000 1 8 8 0 002 2l3 3 3 2a6 6 0 01-1 1l-7 6-5 4a23 23 0 012-2l-6 7 2 2 4 6 4 4 1 2 4 4 4 5 12 13 12 14 9 11 15 16 7 7 8 10 1 1 1 1 1 1 5 5 4 3a2 2 0 001-1l6-5 1-1 4-3 1-1 2-1 1-1 4-4 3-2 5-4 7-6 7-5 4-3 5-5 3-3 2-2 4-3 6-5 2-1 4-4 6-6 9-7a43 43 0 016-6 12 12 0 002-1l4-4 8-6 9-8 10-8 6-5 2-2 8-6 6-5h1v-1l1 7-1 4v18l-1 4v27l-1 6v39a2 2 0 010 1 6 6 0 00-1 2l1 5a20 20 0 000 6 2 2 0 010 1 2 2 0 002 2h16a20 20 0 014 0 16 16 0 003 1l6-1h4a41 41 0 006 0 20 20 0 014 0 15 15 0 003 0l5-1a2 2 0 011 1h2a15 15 0 012 0 2 2 0 001 0 3 3 0 011 0 7 7 0 001 0 21 21 0 014 0 3 3 0 002-1 4 4 0 012 0 7 7 0 011 0 18 18 0 000-2l1-4v-78l1-9v-13l2 3 3 3v1a6 6 0 001 2 10 10 0 011 2 24 24 0 004 3 20 20 0 012 2l5 5 3 4 3 3 1 1 9 9 7 9 5 5 7 8 4 6 10 10 6 9a2 2 0 011 1 2 2 0 001 1 17 17 0 005 3l2 1 3 2 4 1 6 2a30 30 0 013 1 74 74 0 0010 5l6 2 8 2a32 32 0 003 1 16 16 0 015 1 1 1 0 001 0 1 1 0 011 0 2 2 0 002 0 17 17 0 002-1 1 1 0 000-1z"/><path fill="#c2e0ff" d="M186 213l-6 4-2 3-3 2-6 6-6 4-4-3-4-3-2-2-5-6a95 95 0 01-8-8l-3-4a25 25 0 00-4-4 19 19 0 01-2-2v-2l3-2 10-9 5-5 3-3 1-1 1 1 3 3 2 3 3 3 2 2 5 5 2 1a15 15 0 013 3 6 6 0 000 1l5 5 4 4 3 3v1z"/><path fill="#fff" d="M261 150l-9 6-7 6-12 11-8 6-6 5-3 3-6 5-7 6-2 2-1 1a11 11 0 01-2-1l-6-7-3-3-3-3-4-3-6-6-4-3-3-3-5-7-4-4a19 19 0 00-1-1l-1-1a4 4 0 00-1 0 3 3 0 01-1-2 3 3 0 00-2-1 2 2 0 00-2 0 47 47 0 00-5 5l-10 9-5 4-6 7-7 5-4 4-5 4-3 2a1 1 0 00-1 1 2 2 0 010 2c-1 1 1 2 2 3l2 3a3 3 0 011 1 23 23 0 004 3l3 3a42 42 0 014 4l2 2 3 4 1 1 2 3 3 3a28 28 0 015 5 16 16 0 004 4 17 17 0 014 4 13 13 0 002 1l1 1-13 11-3-2a1298 1298 0 01-12-14l-11-12-18-20-9-10-3-4-3-4-4-4-1-1-5-6-4-4 7-6-3 3 3-2h1l4 4 3 3a1 1 0 012-1 2 2 0 002-1l3-3 2-2 2-2 1-1 1-1-4-4a27 27 0 01-3-3l7-6 1 1a56 56 0 016 5 5 5 0 001 1 2 2 0 001 0h1a1 1 0 001 0l4-3 6-7v-1l-1-1-3-2-3-3a6 6 0 010-1l7-6 1 1 4 4a40 40 0 013 3 1 1 0 001 1 3 3 0 011 0l2-1 3-3 4-4 2-2a11 11 0 001-1h-2l-1-2-3-3-2-3a7 7 0 01-1 0l3-2 5-4 1-1h1l5 4 4 4a1 1 0 001 0 2 2 0 011 0 1 1 0 002 0l2-3 2-1 2-2 3-3v-2l-3-2-2-3-4-3a5 5 0 010-1 4 4 0 011 0l6-5 3 3 4 4 2 3 3 1a2 2 0 011 0 1 1 0 001 0l5-4 5-5a2 2 0 001-1 1 1 0 00-1 0l-4-5a45 45 0 00-4-4 22 22 0 01-3-2l5-4a13 13 0 012 1l6 7a16 16 0 011 1 4 4 0 004 1 17 17 0 014-3 1 1 0 001 0c1-2 4-3 6-4a1 1 0 000-3l-1-1-7-7-3-3a14 14 0 013-3l1 1 6 6 6 5 6 6 7 7 7 6 3 4 6 6 7 9 5 6 3 4 7 7 1 2a1 1 0 001 0 2 2 0 011 1l5 5 1 1-1 1z"/><path fill="#669df6" d="M335 209v32a133 133 0 000 15 7 7 0 010 2h-5a29 29 0 01-3 0 54 54 0 00-9 1h-4a128 128 0 01-11 0l-2-1h-1v-46l1-13v-10l1-10v-51l-1-7v-1h2l4 1h13a34 34 0 009-1 9 9 0 015 0v10l1 2-1 8 1 5v6l1 2v31l-1 10a133 133 0 000 15z"/><path fill="#c2e0ff" d="M375 166l-3-2a15 15 0 01-2-4 19 19 0 01-1-4v-3a8 8 0 012-4 2 2 0 011 0 8 8 0 016 2l5 5 1 1a7 7 0 011 1z"/><path fill="#fff" d="M443 232a4 4 0 01-1 0h-1c-1 1-2 0-2 2a41 41 0 010 4 3 3 0 010 1l-2-2-5-5-3-4-1-2-7-8-6-7-5-6-3-3a55 55 0 00-4-5l-3-3-2-3-8-8-3-3a7 7 0 01-1-1l13-9 2 2 2 3 2 1a26 26 0 012 3l9 11 4 4 6 7 8 9 7 8 8 9 4 4v1h-2l-4-1-4 1z"/><path fill="#c2e0ff" d="M465 253c-1 1-5-2-7-3l-2-1-6-2-5-3a42 42 0 01-1-6l1-1a19 19 0 014 0l4 1h4a1 1 0 011 0 6 6 0 011 1 27 27 0 002 6l4 8z"/><path fill="#4285f4" d="M41 202l7-1a22 22 0 016 1l5 1a26 26 0 018 3l4 3a21 21 0 017 6l4 6a18 18 0 012 3l2 6a7 7 0 010 2v4l-1 6-1 4a9 9 0 010 2 43 43 0 01-2 4 37 37 0 01-5 7 60 60 0 01-8 7l-3 3a38 38 0 01-5 4l-8 3h-5a37 37 0 01-11 0h-3a28 28 0 01-3 0l-3-1a42 42 0 01-10-4l-1-1-1-1-5-2a10 10 0 01-1-1l-3-3a14 14 0 01-1-1 46 46 0 01-3-6l-1-4-1-3v-1l-1-4a22 22 0 010-7v-3a29 29 0 012-6 31 31 0 012-4l2-2 3-6a20 20 0 014-4 29 29 0 003-2 19 19 0 016-4l7-2a40 40 0 017-2h5z"/><path fill="#aecbfa" d="M53 219a3 3 0 01-1 0 24 24 0 01-2 0 23 23 0 00-11 0l-8 1a8 8 0 00-2 1 26 26 0 00-5 4 16 16 0 00-4 5l-3 7a11 11 0 001 7 14 14 0 010 3 6 6 0 001 4 10 10 0 003 2l4 3 5 2a9 9 0 001 1 22 22 0 009 1 5 5 0 001 0l4-1a35 35 0 006-2 69 69 0 006-5 17 17 0 012-1l5-5a22 22 0 001-3 6 6 0 001-1l1-5a26 26 0 000-4 9 9 0 00-2-5c0-2-2-3-3-4a11 11 0 00-3-3l-5-3a6 6 0 00-3 0l1 1z"/><path fill="#4285f4" d="M169 221a3 3 0 01-1 0 1 1 0 00-1 0 2 2 0 01-2 0 6 6 0 01-2-2 16 16 0 00-2-1 48 48 0 01-4-3l-2-3-5-5-4-4-2-2-2-2c-2-2-1-3 1-4a2 2 0 011 0 6 6 0 013 1l4 4 4 5 4 4 3 3 2 3 4 4 1 1v1zM172 212l-3-2-3-2-2-2-3-3-5-5-4-4-3-3a4 4 0 01-1-2 13 13 0 011-1 2 2 0 012-1 9 9 0 014 3l3 3 4 4 3 3a20 20 0 014 4l4 4a3 3 0 010 1v2l-1 1z"/></svg>
