<svg xmlns="http://www.w3.org/2000/svg" viewBox="0 0 302 302"><path fill="#DADCE0" d="M36 151l-2 6v78h234v-78l-2-6H36zm40 67a25 25 0 110-50 25 25 0 010 50zm151 0a25 25 0 110-50 25 25 0 010 50z"/><path fill="#80868B" d="M243 34h-42V0H101v34H59c-11 0-21 6-24 16L0 151v134c0 9 8 17 17 17h17c9 0 16-7 16-17v-17h202v17c0 9 7 17 17 17h16c10 0 17-7 17-17V151L267 51c-3-11-13-17-24-17zM65 67h172l18 50H47l18-50zm203 168H34v-78l2-6h231l1 6v78z"/><ellipse cx="74.6" cy="193.9" fill="#80868B" rx="23.1" ry="26.4"/><ellipse cx="226.3" cy="193.9" fill="#80868B" rx="23.1" ry="26.4"/></svg>
