<svg xmlns="http://www.w3.org/2000/svg" viewBox="0 0 263 312"><path fill="#DADCE0" d="M220 246l5-4c3-3 5-7 5-12v-66H33v66c0 4 2 9 6 12l4 4h177zM74 230c-14 0-25-11-25-25 0-13 11-24 25-24s25 11 25 24c0 14-11 25-25 25zm90-25c0-13 11-24 25-24s25 11 25 24c0 14-11 25-25 25s-25-11-25-25zM132 33c-61 0-84 7-94 16h186c-8-9-32-16-92-16z"/><path fill="#80868B" d="M214 312h16c9 0 16-7 16-16v-30c11-9 17-22 17-36V66c0-58-59-66-131-66S0 8 0 66v164c0 14 6 27 16 36v30c0 9 8 16 17 16h16c9 0 17-7 17-16v-17h131v17c0 9 8 16 17 16zM132 33c60 0 84 7 93 16H39c9-9 32-16 93-16zM33 82h197v49H33V82zm33 164H43l-5-4c-3-3-5-7-5-12v-66h197v66c0 5-2 9-6 12l-4 4H66z"/></svg>
