<svg xmlns="http://www.w3.org/2000/svg" xmlns:xlink="http://www.w3.org/1999/xlink" width="256" height="256"><defs><linearGradient id="g"><stop offset="0" stop-color="#d7def0"/><stop offset=".5" stop-color="#fff"/><stop offset="1" stop-color="#d5def0"/></linearGradient><linearGradient id="f"><stop offset="0" stop-color="#b2cde9"/><stop offset="1" stop-color="#c4dbee"/></linearGradient><linearGradient id="e"><stop offset="0" stop-color="#d0e2f1"/><stop offset=".9" stop-color="#cadef0"/><stop offset="1" stop-color="#95bee3"/></linearGradient><linearGradient id="d"><stop offset="0" stop-color="#658db6"/><stop offset=".8" stop-color="#527fab"/><stop offset="1" stop-color="#4071a0"/></linearGradient><linearGradient id="c"><stop offset="0" stop-color="#96d0e1"/><stop offset=".7" stop-color="#89b7e1"/><stop offset="1" stop-color="#699dd3"/></linearGradient><linearGradient id="b"><stop offset="0" stop-color="#3b79bc"/><stop offset="1" stop-color="#94b8e0"/></linearGradient><linearGradient id="a"><stop offset="0" stop-color="#fff"/><stop offset="1" stop-opacity="0"/></linearGradient><radialGradient xlink:href="#a" id="h" cx="-118.8" cy="121.5" fx="-118.8" fy="121.5" r="25.5" gradientUnits="userSpaceOnUse" gradientTransform="matrix(.02178 -.95744 .97872 .02222 -235.1 5)"/><linearGradient xlink:href="#b" id="m" x1="-397.8" y1="149.2" x2="-397.6" y2="51.4" gradientUnits="userSpaceOnUse"/><radialGradient xlink:href="#c" id="l" cx="-383.3" cy="217.9" fx="-383.3" fy="217.9" r="59.4" gradientTransform="matrix(-1.28616 -.08596 .11454 -1.71368 -425 469.5)" gradientUnits="userSpaceOnUse"/><radialGradient xlink:href="#d" id="j" cx="-123.5" cy="-11.6" fx="-123.5" fy="-11.6" r="95.6" gradientTransform="matrix(-.00757 .55751 -1.03146 -.01398 113.2 103.2)" gradientUnits="userSpaceOnUse"/><radialGradient xlink:href="#e" id="k" cx="-94.9" cy="165.3" fx="-94.9" fy="165.3" r="60.5" gradientTransform="matrix(.81294 1.6998 -2.1519 1.02916 564.4 118.5)" gradientUnits="userSpaceOnUse"/><linearGradient xlink:href="#f" id="i" x1="162.1" y1="85.2" x2="220.8" y2="78.9" gradientUnits="userSpaceOnUse" gradientTransform="translate(3.4 7.4)"/><linearGradient xlink:href="#g" id="n" x1="-382" y1="37.3" x2="-381.4" y2="165.6" gradientUnits="userSpaceOnUse"/></defs><path d="M-92.7 122.6a25.5 25.5 0 1 1-51 0 25.5 25.5 0 1 1 51 0z" transform="matrix(4.68085 0 0 4.79787 685.1 -449.7)" fill="url(#h)"/><path d="M232.2 88.1c0 15.7-19.8 35-45.9 35-26 0-59.9-16.1-59.9-31.8s21.1-28.4 47.2-28.4c19.9 0 46.3 18.3 56.4 20.4l2.2 4.8z" fill="url(#i)"/><path d="M38.8 66c12.4-9.6 35.3-1.3 51.3 19.3s17.7 51 5.3 60.7c-12.4 9.6-34.2-5.3-50.1-25.9-12.2-15.7-4-41.2-8.6-50.4.6-1.1 1.3-2.5 2.1-3.7z" fill="#2e5c91"/><path d="M230 83.3c-7 0-61 .3-107.6 0-17.4 5.1-31.7 13.3-39.2 29.2-5.3-4.6-40.7-42.2-44.4-46.5a111.2 111.2 0 0 1 82.9-45.5c8.4 0 70.6-8.6 108.3 62.8z" fill="url(#j)"/><path d="M117.1 244c-12.5-9.5-14.6-37 1.2-57.7 15.7-20.8 41-35 53.5-25.5 12.5 9.4 7.5 39-8.3 59.7-12 15.9-35.5 16.9-43.2 23.7-1.2 0-2 0-3.2-.2z" fill="#699dd3"/><path d="M120.3 244.2c3.6-6 28.9-52.9 52.7-93 4.4-17.5 5.3-33.6-4.6-48 6.7-2.4 58.3-14 63.8-15 20 48.1 1.4 87.3-2.8 94.5-4.3 7.2-28.4 65.2-109.1 61.5z" fill="url(#k)"/><path d="M36.7 69.6c3.5 6.1 30.7 52.8 53.8 93.3 13 12.5 27.7 19.5 45.2 18-1.3 7-16.7 57.8-18.5 63a111.2 111.2 0 0 1-80.9-49c-4.1-7.3-42.7-57 .4-125.3z" fill="url(#l)"/><path transform="matrix(.77295 0 0 .7762 436 53.3)" d="M-338.4 101.4a59.1 59.1 0 1 1-118.3 0 59.1 59.1 0 0 1 118.3 0z" fill="url(#m)" stroke="url(#n)" stroke-width="10.1"/><path d="M163.5 108.9c18.6 17 16 29.6 10.1 44-3.1-22.3-2.3-32.4-10-44zM101.4 173.6c-22.6-14.4-29.8-45.7-8.8-63-10.8 19.8-6.2 32.4 8.8 63z" fill="#fff"/></svg>