<svg xmlns="http://www.w3.org/2000/svg" xmlns:xlink="http://www.w3.org/1999/xlink" viewBox="0 0 8360 2720"><path fill="#4285f4" d="M1080 1247V960h960c10 50 16 110 16 176 0 215-60 481-249 670-184 192-420 295-732 295A1064 1064 0 0 1 10 1050C10 473 496 1 1075 1a1000 1000 0 0 1 720 290l-203 202a753 753 0 0 0-1270 558c0 423 330 763 753 763 274 0 430-110 530-210a596 596 0 0 0 156-357h-681z"/><use fill="#ea4335" xlink:href="#B"/><use x="1480" fill="#fbbc05" xlink:href="#B"/><path fill="#4285f4" d="M6417 790v1214c0 499-294 704-643 704a645 645 0 0 1-599-400l259-107a374 374 0 0 0 340 240c223 0 361-138 361-396v-98h-10a461 461 0 0 1-356 154 670 670 0 0 1-647-673c0-382 310-679 647-679 162 0 290 72 356 151h10V790h282zm-261 638c0-238-159-413-361-413-205 0-376 175-376 413 0 235 171 407 376 407 202 0 360-172 360-407z"/><path fill="#34a853" d="M6920 80v1980h-297V80h297z"/><path fill="#ea4335" d="M8067 1648l230 153a672 672 0 0 1-563 300 661 661 0 0 1-670-676c0-402 289-676 637-676 350 0 522 280 578 430l31 77-904 374a344 344 0 0 0 328 205c151 0 256-75 333-187zm-710-243l605-251c-34-85-133-144-251-144a370 370 0 0 0-353 395z"/><defs><path id="B" d="M3518 1425c0 390-304 676-678 676s-678-287-678-676c0-392 304-676 678-676s678 284 678 676zm-297 0c0-243-176-410-380-410s-382 167-382 410c0 240 176 410 381 410s381-170 381-410z"/></defs></svg>