<svg xmlns="http://www.w3.org/2000/svg" viewBox="0 0 1920 1920"><path fill="#4285f4" d="M1880 982c0-70-7-137-18-202H960v370h520a446 446 0 0 1-193 298v240h309c180-167 284-414 284-706z"/><path fill="#34a853" d="M1287 1448a577 577 0 0 1-327 92c-250 0-463-169-539-396H102v246a960 960 0 0 0 858 530c260 0 477-85 636-232l-310-240z"/><path fill="#fbbc05" d="M390 960c0-64 12-126 31-184V530H102a956 956 0 0 0 0 862l319-247c-20-58-30-120-30-184z"/><path fill="#ea4335" d="M960 380c142 0 268 49 368 144l274-274A920 920 0 0 0 960 0a960 960 0 0 0-858 529l319 247a574 574 0 0 1 539-396z"/></svg>