<svg xmlns="http://www.w3.org/2000/svg" viewBox="0 0 931 596" fill="#202124"><path fill="#f9ab00" d="M156 128h619v259H156z"/><path d="M840 132a18 18 0 0 0 0 4c2 8 0 17 1 26v17l3 27a20 20 0 0 1-1 4v16l2 6a10 10 0 0 1 0 1c0 4-3 8-7 9l-6 1a19 19 0 0 1-2 0l-16 2-19 2h-19c-8-1-15 1-22 2l-20 1c-6 1-13 3-19 0l-2 1-8-1h-1c-5 2-10 1-14 1l-18-1c-3 0-4-2-3-5a22 22 0 0 0 0-5v-46l-1-32a31 31 0 0 1 1-5 27 27 0 0 0-1-10 30 30 0 0 1 0-9c0-2 3-3 5-3 2-1 4-1 5-3l3-1c8-2 16-1 24-1l6-1 8-1 22-2c8 0 16-2 24 1 4-1 9 0 14-2h24a161 161 0 0 0 28-1l1-1 1-17-1-28-1-14-1-6V31l-1-22h-18c-5-1-6 0-5 5l1 32-1 5 1 26v24c0 4 0 4-4 6a30 30 0 0 1-16 0 8 8 0 0 0-3 0l-4 1c-4 0-6-1-6-5V87l-1-32-2-13h-14v7l1 28v15l-1 10a4 4 0 0 1-3 4 925 925 0 0 1-20 3 33 33 0 0 1-4 1c-2 0-3-1-4-3l-2-12V77c1-3 0-6-1-10h-16c-5 1-6 1-6 6a2573 2573 0 0 1 0 32c-4 2-6 6-10 7a21 21 0 0 1-5 1l-12-1a26 26 0 0 1-3 0c-1 0-3 0-3-2a4 4 0 0 1 2-5 11 11 0 0 1 3 0c5-1 10-2 15 0a10 10 0 0 0 3 0c2-1 2-1 2-3V73l1-9c3-4 6-4 9-4l23-1a6 6 0 0 1 6 6l1 9v11l1 17 13-2a3 3 0 0 0 1-2 87 87 0 0 0 1-10V38a4 4 0 0 1 4-4h24a4 4 0 0 1 3 3l1 17 2 16-1 22 1 8 16 1V89l-1-21V44a124 124 0 0 0-1-32l-1-5a5 5 0 0 1 4-5l14-1h15a4 4 0 0 0 1-1c6-1 8 2 8 7l1 15v24l2 36v29a91 91 0 0 0 0 9c0 4 1 5 5 5a12 12 0 0 1 9 2l4 3a16 16 0 0 1 7 11l3 14a77 77 0 0 1 0 8l1 22v42l-2 18a44 44 0 0 1-1 5l-1 2c-3 3-4 7-8 9a13 13 0 0 0-3 1c-5 4-10 7-16 7a2 2 0 0 0-1 0c-5 3-11 1-16 3h-9a76 76 0 0 0-8 1l-7 2-6 1-5 1-11 1h-27a110 110 0 0 0-15 1l-20 1c-6 0-12-1-18 1a3 3 0 0 1-2 0c-3-2-7-1-11-2l-10-1-15-4a19 19 0 0 1-13-11c-5-11-6-23-6-35l1-17a58 58 0 0 0-1-8v-29l-1-32v-42l-1-12V74a11 11 0 0 0-3-7 10 10 0 0 1-1-4 12 12 0 0 0-9-9c-6-2-11-4-17-4l-11 1h-13a91 91 0 0 0-14-1 22 22 0 0 1-6 0c-4-1-9 0-13 1h-15l-7 1-12 1a8 8 0 0 1-3 0c-3-2-6-1-9-1-4 0-8-1-11 1-5-1-8 2-13 2a2 2 0 0 0-1 0l-8 9-5 11a9 9 0 0 0 0 2c-1 3 0 4 3 3a25 25 0 0 1 10 0 45 45 0 0 0 19-1 10 10 0 0 1 2 0l20-1 26-2a48 48 0 0 1 17 1c7 2 13 6 17 12l5 8a76 76 0 0 1 3 19l1 41a198 198 0 0 1 0 22c-1 6-4 12-10 15a28 28 0 0 1-12 3c-4-1-9 1-13 1a15 15 0 0 1-3 1l-13-1h-9l-24 1a66 66 0 0 0-9 0 26 26 0 0 1-14-1 11 11 0 0 0-3-1 21 21 0 0 1-18-19l-2-22a85 85 0 0 1 0-11 138 138 0 0 0-1-27 263 263 0 0 1-1-28 17 17 0 0 0-1-2h-33c-8 1-7 0-8 8a94 94 0 0 1-3 10 124 124 0 0 1-10 21l-18 18a37 37 0 0 1-8 5 117 117 0 0 1-13 6 14 14 0 0 1-6 1c-6-1-11 0-17 1a12 12 0 0 1-3 0l-10-3c-3 0-3-1-3-3a60 60 0 0 0 1-17v-16l-1-19a24 24 0 0 1 0-3l-1-9a6 6 0 0 1 3-4h7l6 1h8l20-2h16a4 4 0 0 0 1 0l24-1a3 3 0 0 0 1-1 51 51 0 0 0-1-16c-1-7-2-15-5-22l-8-9c-4-5-10-8-16-12-4-2-8-4-12-4a11 11 0 0 1-5-1 47 47 0 0 0-16-3l-7 1h-1l-14 2-9 2h-3l-5 3a27 27 0 0 1-6 4 50 50 0 0 0-14 11 144 144 0 0 0-11 13 33 33 0 0 0-4 10l-3 12-1 7v47l2 34v9l1 16a12 12 0 0 0 5-4l7-6 12-12 7-9c2-2 3-4 6-4a3 3 0 0 1 2 0 2 2 0 0 1 0 3c-3 5-6 11-11 15l-11 12-10 10a20 20 0 0 0-5 5c-2 3-4 3-7 2-2 0-3-1-3-3 2-4 0-8 0-12l-2-31-1-17-1-36a152 152 0 0 1 3-30l4-15a65 65 0 0 1 4-7 92 92 0 0 1 21-22 161 161 0 0 1 15-10c6-3 12-4 18-5l5-1 19-2 6 1 15 3 7 1c6 2 11 6 16 9 7 3 11 9 16 14 2 3 4 7 4 10a124 124 0 0 1 5 34v3l13 1 15-1 9-1a3 3 0 0 0 3-3c0-6 3-11 6-16l6-8c3-3 6-5 10-5l7-2c4-1 9-2 13-1h4a12 12 0 0 1 8 1 7 7 0 0 0 3 0h11l11-2h3c5 1 9-1 14-1h7l16 1h10l12-1h16l5 1c6 3 12 5 17 9a17 17 0 0 1 2 3l2 3a36 36 0 0 1 5 14v18l2 25v34l1 23-1 19v12l1 22v17c1 6 3 11 6 17l4 4c3 1 5 1 7 3l7 1 11 3a26 26 0 0 0 3 0l6 1a18 18 0 0 0 3 0l20-1h8l8-1h3a248 248 0 0 1 17-1l10 1 10-1 34-3 28-4c8-1 14-5 20-8l3-4a49 49 0 0 0 5-27v-16c0-14 1-28-1-43l-1-9-2-12c0-5-4-6-7-8a15 15 0 0 0-10-3zm-9 0a23 23 0 0 0-3 0l-15 1a12 12 0 0 1-1 0h-27a9 9 0 0 0-3 0 19 19 0 0 1-11 1l-13-1-22 1-15 2a33 33 0 0 0-7 1l-9 2-10-1a20 20 0 0 0-6 1l-9 3c-3 1-3 1-3 5a76 76 0 0 1 1 11l-1 7 1 28v43a55 55 0 0 0 1 7h11l15-1 4 1a26 26 0 0 0 3 0h17l6-1h5l15-1h2l13-2h29l3-1h13l14-2a61 61 0 0 0 7-1l-1-7v-4l-1-25c-2-10-2-20-2-31v-20l-1-16zm-250 18h-1v-13l-1-25c-1-7-2-14-7-20-2-2-3-5-6-4l-4-2c-4-2-7-4-12-3a101 101 0 0 1-12 2h-17l-16 1-7 1h-5c-8 1-16-1-23 1a2 2 0 0 1-1 0c-4 0-4 0-4 3l2 27 1 20v23a105 105 0 0 0 2 18c1 7 5 11 13 12a11 11 0 0 1 3 1c5 3 10 2 15 2l23-1h18l11-1 14-1c7 0 14-5 14-12v-29zM332 92c-1 19 0 37 1 56 4 0 7 3 12 2a32 32 0 0 1 10-1c7 1 12-2 17-4l11-7a57 57 0 0 0 13-14 72 72 0 0 0 10-21l2-14h-11l-6 1h-7c-5-1-10 0-16 1h-8a37 37 0 0 0-6 1 28 28 0 0 1-10 0h-12z"/><path d="M81 296v17c1 2 1 5 3 6 1 2 4 2 6 2a18 18 0 0 0 4 1 55 55 0 0 0 6 0l12-2c4 2 9 1 13 1h6l7-1 6-1 12-1a24 24 0 0 0 6 0 21 21 0 0 1 11-1 11 11 0 0 0 6 0h8a14 14 0 0 0 4 0h8l7-1 13-2a55 55 0 0 1 20 0 9 9 0 0 0 3 0 31 31 0 0 1 23 2c8 5 13 11 16 19 2 8 4 15 4 23v27l1 8c0 2 0 3 3 3a10 10 0 0 0 1-1h27a44 44 0 0 0 6-1c2 0 2-1 2-2v-16l1-6v-22a39 39 0 0 1 1-7v-12l-1-19-1-31v-17a13 13 0 0 0 0-3l-1-23-1-11a25 25 0 0 0-3-1 40 40 0 0 0-6 1l-14 3a3 3 0 0 0-2 2v19l1 21v5c6 0 12-3 18 0 3 4 0 6-5 6l-13 1a13 13 0 0 1-6 0c-3-1-3-4-3-7a553 553 0 0 0 0-50c0-2 0-2 2-3l13-3a12 12 0 0 1 2-1l18-1a56 56 0 0 1 7 1l1 3c-2 5 0 10-1 15l1 12 1 10a17 17 0 0 1 0 2l1 53 1 19a22 22 0 0 1 0 2l-1 19-1 22v18l10 2c3 1 6 2 7 5l1 1a17 17 0 0 1 2 3l5 8c4 6 5 13 5 20l1 17v22a38 38 0 0 1-1 4v6a5 5 0 0 1 0 1l-6 17a8 8 0 0 1-8 6 71 71 0 0 1-9-1c-5 0-8-4-10-8-4-7-5-14-5-21v-33l-2-26 1-8v-5a70 70 0 0 0-7-1h-20l-10 1-3 3-2 11a37 37 0 0 1-8 13 21 21 0 0 1-17 8h-11a3 3 0 0 0-1 0c-5 3-11 1-16 2h-2l-16 1-3 1-6 1c-9 1-17-1-26-1a18 18 0 0 1-6-1h-11a21 21 0 0 1-11 0 20 20 0 0 0-4 0l-10-1h-6c-11 1-21 1-31-3a9 9 0 0 0-3 0 19 19 0 0 1-3 0 42 42 0 0 1-17-7c-7-5-11-13-15-20l-3-6a19 19 0 0 1-2-5l-3-27-1-15-1-6a16 16 0 0 1 0-4c1-5 0-10-1-15a256 256 0 0 1-1-30v-15l-1-19a12 12 0 0 0-3 0 34 34 0 0 1-14 0 12 12 0 0 0-4 0c-7 1-14 0-21-1-2 0-4-1-5-3 0-3 1-4 3-4l12 2 6-1h17l10-1-2-16v-13a26 26 0 0 0 0-4c-1-7 1-13 1-19v-15c0-8-1-16 1-24l4-14c1-6 4-11 9-14 3-2 7-5 11-4l4-1h5l7-2 5-1h24l13-1a8 8 0 0 0 2 0c6-2 13-1 20-1l13-2c9-1 18-3 27-2a12 12 0 0 0 4 0 17 17 0 0 1 10 2c1 1 3 2 5 0a2 2 0 0 1 1 0c4 2 8 4 10 9l4 16 1 12a5 5 0 0 1 0 2c-2 7-1 15 0 23a107 107 0 0 0 1 10c2 9 0 17-1 26v7c-1 5-2 10-5 13a13 13 0 0 0-1 3c-2 5-6 8-11 9l-13 4c-6 1-11 3-17 3l-17-1-11-1-5 1-10 1-11 1h-13a28 28 0 0 0-4 1 18 18 0 0 1-9-1 14 14 0 0 0-5 0H85a45 45 0 0 0-12 1h-9a41 41 0 0 0-7 0l-1 2a12 12 0 0 0-1 4l2 20v7l1 25 1 22c-1 6 0 12 1 18l4 31a21 21 0 0 0 3 6l8 15a28 28 0 0 0 15 11h8a6 6 0 0 1 1 1c11 3 21 4 32 2a12 12 0 0 1 5 1 8 8 0 0 0 6 0 17 17 0 0 1 10 1 9 9 0 0 0 5-1c4-1 8-2 12 0 8 3 17 1 25 2 6 1 11-1 17-2l17-1h9a3 3 0 0 0 1 0c6-3 12-2 17-2 7 0 12-3 15-9a53 53 0 0 0 4-8l2-8c-6 0-10-1-15 1a9 9 0 0 1-4 0 22 22 0 0 0-11 1 29 29 0 0 1-7 1l-18 1-16 1-17 2a42 42 0 0 1-9 0l-15-2-15-4a34 34 0 0 1-19-32c0-9 4-17 11-23 6-4 12-8 20-9a13 13 0 0 1 4 0 53 53 0 0 1 25 12c2 2 4 5 4 8a36 36 0 0 1 0 17 16 16 0 0 0 0 4c0 4-3 7-4 10-1 2-4 2-6 1a4 4 0 0 1-2-5c4-5 4-10 4-15 1-5 2-10-1-15a14 14 0 0 0-5-5 54 54 0 0 0-13-5 16 16 0 0 0-12 2 50 50 0 0 0-13 11l-2 6c-3 8-2 17 3 25 3 4 7 8 13 8l16 2 12 1a4 4 0 0 0 1 0c6-2 12-1 18-2h5l8-1a6 6 0 0 0 1 0l12-1h6a62 62 0 0 0 7-1l5-1 22-1h6v-27c0-9 1-19-2-28-2-6-4-12-9-17a10 10 0 0 0-7-4 33 33 0 0 0-11 1 13 13 0 0 1-6 0c-6-1-13-2-19 0l-20 3a87 87 0 0 1-9 0 6 6 0 0 1-3 0 7 7 0 0 0-7-1 13 13 0 0 1-10 1h-5a18 18 0 0 1-10 1 21 21 0 0 0-10 0c-3 1-6 2-9 1h-1c-5 4-10 1-15 2a4 4 0 0 1-2 0c-6-2-11-1-17 0a20 20 0 0 1-4 0l-12-1a24 24 0 0 0-3 0c-6 0-9-2-9-8a24 24 0 0 0-1-3 57 57 0 0 1-1-7v-17c-1-3 0-3 3-4l8-1 17-1a6 6 0 0 0 1 0c6-2 11-1 17-1h14a6 6 0 0 1 6 5v18c0 2-1 3-3 2a6 6 0 0 1-5-6v-8c0-3 0-4-3-4a9 9 0 0 0-2-1l-17 1-4 1-14 1-10 1zm-25-36h17a15 15 0 0 1 4-1l11 1c5 0 10-1 14 1a1 1 0 0 0 1 0c5-2 10-1 16-1l17-2 7-1 6-1 15 1 5 1a88 88 0 0 0 13 0 124 124 0 0 0 14-3l10-3a11 11 0 0 0 7-5l2-3a17 17 0 0 0 4-12 30 30 0 0 1 1-5 94 94 0 0 0 1-23l-3-18 1-19a7 7 0 0 0 0-2l-2-19c-1-4-2-7-6-8a17 17 0 0 1-3-1l-5-2a119 119 0 0 0-15 0l-14 1-7 1-19 1-20 1c-8 2-15 1-23 1a70 70 0 0 0-13 1l-11 2-9 2c-7 2-11 7-13 14l-3 12c-2 7-1 14-1 21a198 198 0 0 1 0 20c-1 6-2 12-1 19l1 24 1 5zm300 188l-1-21c0-3 0-7-2-9-2-5-5-10-9-14-3-2-5-2-8-2a2 2 0 0 0-2 2l-1 6 1 22v36a110 110 0 0 0 2 17c1 4 3 9 7 11 4 3 7 3 9-2a111 111 0 0 0 4-26v-20zm507 19v28a48 48 0 0 1-4 9 9 9 0 0 1-5 5 55 55 0 0 1-11 3h-22c-7 1-13 0-19 3a11 11 0 0 1-4 1h-33a76 76 0 0 1-11-1c-6 0-12-2-16-6a58 58 0 0 1-8-12c-4-6-4-13-4-20v-7l1-16a10 10 0 0 0 0-2c0-2-1-3-3-3a24 24 0 0 1-6 1c-3 0-4-1-4-5l-1-14v-8l1-3c0-3 1-4 4-5a53 53 0 0 1 18-3h11c3 0 4 1 4 4l1 20v6c0 2-2 4-5 4-2 0-4-1-4-4v-21l-1-2a30 30 0 0 0-4 0l-11 1c-4 0-5 1-5 4l1 15c0 2 1 3 3 3l2-1c4-1 4-1 6 3 3 6 1 12 1 18v22c0 3 2 6 4 9s4 8 8 10a35 35 0 0 0 17 4h31a1 1 0 0 0 1 0c4-3 10-1 15-1a55 55 0 0 1 7-1h13a97 97 0 0 0 16-2c3 0 5-4 6-7a28 28 0 0 0 2-13l-1-13v-3l-11-1h-5l-12-1h-1c-5 0-7-1-7-6v-22l-5 1a47 47 0 0 1-6 1 45 45 0 0 1-7 0h-6l-8-2c-10-1-15-7-18-16l-2-11-1-14v-1l-1-4a15 15 0 0 0-6 0l-10 2c-3 1-4 0-5-3-2-6 1-11 2-16l9-30 6-13c3-7 8-13 13-19a23 23 0 0 1 10-9 7 7 0 0 0 3-2 10 10 0 0 1 5-5 6 6 0 0 0 3-1c4-4 9-6 15-6a60 60 0 0 1 24 1l11 4a6 6 0 0 0 1 1 8 8 0 0 1 8 5 4 4 0 0 0 1 2c5 3 8 7 12 12a121 121 0 0 1 14 20l5 12 9 18 4 9 11 30 8 20 7 16 2 3c0 3 2 6 4 9 2 4 1 7-4 7l-14 2-14 1-3 1-4 1-9 1h-3a20 20 0 0 0-4 1 13 13 0 0 1-7 1 21 21 0 0 0-5 1zm57-15c-1-7-5-13-8-19l-5-12-8-20-4-11a118 118 0 0 0-7-19l-6-14a26 26 0 0 0-2-3 43 43 0 0 1-2-3l-6-14c-4-7-9-14-15-20a50 50 0 0 0-9-9 130 130 0 0 0-14-9c-5-3-10-3-15-4a47 47 0 0 0-7 0c-3 0-6 0-9 2-4 2-8 4-11 8a5 5 0 0 1-2 1 34 34 0 0 0-12 12c-5 7-11 15-14 24l-5 15-6 21c-1 2-2 4-1 7l5-1 12-1c2 1 4 2 4 4l1 9 2 22c2 7 6 12 14 13a57 57 0 0 1 8 1 33 33 0 0 0 18-1c1 0 2 0 2-2v-12l-1-10v-16l-1-7 1-17c0-8-2-16-8-22-3-4-7-6-12-6a69 69 0 0 0-9 1l-6 2c-3 5-7 9-5 16a17 17 0 0 0 7 10 8 8 0 0 0 6 1c3-1 7-8 5-11l-3-7a4 4 0 0 1 1-5c1-1 3 0 4 2a6 6 0 0 1 1 1 56 56 0 0 0 3 6c2 3 1 7 0 10a37 37 0 0 1-4 5c-3 4-7 7-12 6-10-1-18-12-17-21a26 26 0 0 1 12-19 28 28 0 0 1 27-3 24 24 0 0 1 10 7c2 3 5 7 5 12l2 13c1 6 0 11-1 17a22 22 0 0 0 0 3l2 15v22l1 8h9l7-2c5-1 10-3 16-1 3 1 4 1 4 5a37 37 0 0 0 0 6l1 7v11c0 2 0 2 2 2h5a46 46 0 0 0 5 0l16-3 6-1a41 41 0 0 1 4 0h3l16-2zm-94-15v21h3l23 1 2-1a18 18 0 0 0 0-3l-1-18a4 4 0 0 0-2-2c-2-2-5-1-8-1l-8 2-9 1zM563 247l-10 1h-14l-15 1-31 2-8-1a26 26 0 0 0-5 1l-7 1a15 15 0 0 1-6-1 14 14 0 0 0-8 0h-24a35 35 0 0 0-10 0 38 38 0 0 1-7 0l-3-1c-4-1-5-1-5 5a159 159 0 0 1 1 17l-2 13a103 103 0 0 0 0 11 51 51 0 0 1-3 15 7 7 0 0 1-10 5l-11-7-18-10a53 53 0 0 1-8-8 113 113 0 0 1-10-13 23 23 0 0 1-4-18 11 11 0 0 1 3-5 93 93 0 0 1 8-8 9 9 0 0 1 5-2h16l8-1a19 19 0 0 0 3 0c4-1 8-3 12-1a3 3 0 0 0 1 0l1-1v-30a77 77 0 0 0-1-25l-3-4-8 6c-2 2-3 4-6 5l-11 9-12 7-9 7a8 8 0 0 1-7 0c-3-1-3-2-1-4a7 7 0 0 1 2-2c7-3 12-9 19-13a112 112 0 0 0 14-9 130 130 0 0 0 10-9c4-4 9-5 14-2a12 12 0 0 1 6 7 41 41 0 0 1 2 14v20l-1 16a23 23 0 0 0 0 5 3 3 0 0 0 2 2l12 1h19a14 14 0 0 1 3 0 22 22 0 0 0 11 0c3-1 7 0 10 1a13 13 0 0 0 6 0 48 48 0 0 1 15-1l15-1 19-1 8-1 18-1 12-1a41 41 0 0 1 6 0c3 1 4 2 4 5l2 10v15c0 2-1 3-3 4a47 47 0 0 1-9 1l-21 2a68 68 0 0 1-14 1l-21 1-21 4v16l1 38a179 179 0 0 1-1 19 24 24 0 0 1-7 14c-4 5-9 6-14 8a3 3 0 0 1-1 0c-6-1-11-1-16-4-4-2-6-5-7-9a28 28 0 0 1 0-19c3-8 8-13 17-14a6 6 0 0 1 5 3l2 3-6 2c-5 1-7 4-9 9a25 25 0 0 0-1 13 8 8 0 0 0 8 7 9 9 0 0 1 2 1c5 2 8 0 12-3a15 15 0 0 0 6-12v-68c0-1 0-3-2-5-2-1-2-3 1-5a20 20 0 0 1 5-2l13-1 20-3h22l26-4a5 5 0 0 1 1 0c4 0 4 0 4-4l-1-14zm-164 63a36 36 0 0 0 2-13l1-22a92 92 0 0 0 0-22 3 3 0 0 0-2-3c-4-1-6 1-9 1a51 51 0 0 1-6 1h-5l-4 1-12-1c-6 0-9 4-10 9a16 16 0 0 0 1 13c6 9 14 18 24 23l13 8 7 5zM139 57c4-6 9-10 16-9 6 0 13 2 15 10l6-7a19 19 0 0 1 7-3c2 0 8 2 9 4l6 8a26 26 0 0 1 2-3c6-6 11-12 18-16a20 20 0 0 1 2-1c3-2 4-1 5 2-2 4-6 5-9 7a15 15 0 0 0-4 4l-2 3c-4 2-5 6-7 8a8 8 0 0 0-1 7c1 2 0 4 2 5h5c2 1 4 0 6-1 3-2 6 0 6 3l1 12v17c1 5-2 7-6 6l-13 1-21 2a39 39 0 0 0-6 0 35 35 0 0 1-9 0 73 73 0 0 0-16 1c-3 1-7 2-10 1h-5l-21 1h-1l-22 1-15 1-13 1-11 2c-3 0-5-2-5-5l-2-19-1-10c-1-2 0-3 2-5l15-3c3 0 3 0 4-3 2-4 2-7-2-10a8 8 0 0 1-1-2 9 9 0 0 0-7-4l-6-1c-2 0-3-1-3-2 0-2 2-3 3-4h1c6-1 13-1 18 5l3 3 4-8c3-5 7-8 14-8 6 0 13 2 18 6h1c4-4 9-5 15-6a7 7 0 0 1 7 1l8 8zM81 89c0 4-1 7-4 10-2 2-4 3-7 2s-4-3-5-6v-5c-5-2-8 0-12 1l4 24h4c4-2 9-1 14-2h21l17-1 15-1 18-1h10l17-1 39-3a7 7 0 0 0 1-1c1-7 0-14-1-21l-8 1a18 18 0 0 1-1 2 36 36 0 0 1-3 6c-2 3-4 4-8 2-2 0-3-3-3-6v-4l-14 1-2 3-5 7c-1 2-5 2-8 1-2-1-2-3-2-5v-4h-7c-6-2-9 1-11 5-1 4-5 5-8 4s-4-3-4-6a7 7 0 0 1 0-1c0-2-1-3-3-3h-12l-5 9c-2 3-5 3-8 3-3-1-3-3-4-5a25 25 0 0 1 0-5zm6-34c-2 0-4 2-5 4l-3 5c-2 4-3 8-1 13 1 2 2 5 6 4a4 4 0 0 1 1 1c4 1 7 0 11-1a3 3 0 0 0 2-2l4-13c1-4 0-6-3-8-3-3-7-3-12-3zm23 12l2 12c0 1 1 2 2 1h14a2 2 0 0 0 3-1l3-10c1-2 1-4-1-6l-4-5a44 44 0 0 0-5-4 3 3 0 0 0-2 0l-6 2a5 5 0 0 0-2 1 14 14 0 0 0-4 10zm42 14h2c5 0 6-1 8-6a17 17 0 0 1 1-2v-9a18 18 0 0 1-1-3c-1-3-2-5-6-5l-4-1a9 9 0 0 0-7 4c-2 5-3 9-2 14 1 8 1 8 9 8zm29-24l-4 3a10 10 0 0 0-5 10l1 5 1 4 17-2 2-2c1-3-1-5-2-8-2-5-5-8-10-10zm-77 34c1-2 1-2-1-3zm-31-2h-1l1 3h1zm543 354h10l29-2h15l10-4a9 9 0 0 1 3-2 8 8 0 0 0 4-6l1-9a40 40 0 0 1 0-4 36 36 0 0 0 1-11l-2-14a3 3 0 0 1 3-3c4 1 11 0 15-1v-4l-1-8-2-6-4-14a33 33 0 0 0-2-6l-8-14a35 35 0 0 1-2-3c-3-6-6-9-12-9l-12-3a9 9 0 0 0-2 0l-27 2-19 1-14 1h-6a9 9 0 0 0-2 0l-14 2a2 2 0 0 0-2 3l-1 8a61 61 0 0 1-2 19 6 6 0 0 1-4 4l-11 4c-4 1-7 1-11-1l-4-2a12 12 0 0 1-7-8 16 16 0 0 1 0-4c0-7 0-13 4-19l5-4 5-3c2-2 5-3 8-3a76 76 0 0 0 8 0v-4l-2-19v-11c0-2 0-4 2-5a6 6 0 0 1 5 1l2 5a130 130 0 0 0 2 16v11l1 4 6-1 17-1 12-1c7 1 15-1 22-2l13-1a101 101 0 0 1 13-1 55 55 0 0 1 10 2l13 4a12 12 0 0 1 7 6l8 12 9 18c2 5 5 11 5 17l2 7c1 3 2 7 1 11 0 3-1 4-3 5l-6 2a19 19 0 0 1-5 0h-3v22l-1 10a13 13 0 0 1-6 11l-8 6a31 31 0 0 1-13 3 7 7 0 0 0-2 0c-9 2-18 1-26 1a9 9 0 0 0-2 0c-6 2-12 2-18 2-3 0-6 0-9 2-2 3-4 2-5-2l-1-22v-14l-1-32c-1-6-1-12 2-18a44 44 0 0 1 7-8 8 8 0 0 1 5-2l13 1a25 25 0 0 0 8-1 33 33 0 0 1 9-1 17 17 0 0 0 6-1c5-2 9-2 14 0a24 24 0 0 0 3 2c4 1 5 3 7 6 2 6 2 12 0 18-1 4-3 6-7 7l-9 2a35 35 0 0 1-12-3c-4-2-6-8-4-13l1-5c1-3 6-5 10-3l-2 6c-2 5 1 9 6 10h7a2 2 0 0 0 2-1c1-5 1-10-1-15-2-3-8-6-11-5l-12 2-7 1a37 37 0 0 1-6 0h-13c-3 0-4 3-6 5a23 23 0 0 0-2 13l1 13v23l1 22 1 6zm-50-115a8 8 0 0 0-6 2c-2 2-4 3-7 3-2-1-3 0-5 1l-3 12c-1 4 0 8 4 9l2 1c4 2 14 1 14-7l1-21z"/><path d="M568 417l-32 2-13 2-4-1-6 1h-4c-3-2-6-1-10 0a10 10 0 0 1-5 0 8 8 0 0 0-6 0h-10a23 23 0 0 0-10 0l-3 5-5 6a25 25 0 0 1-13 4c-5 0-9-2-11-6a69 69 0 0 1-4-6c-1-2-3-2-5-1-6 2-12 2-19 1a6 6 0 0 0-3 1 13 13 0 0 1-7 0 14 14 0 0 0-4 0 6 6 0 0 1-6-2c-1-2-1-4 1-4a34 34 0 0 1 7-1h4c4-2 8-1 12-1 4 1 7 0 10-1a25 25 0 0 1 6-1l3-1 7-8a16 16 0 0 1 8-3c6 0 11 1 16 4a24 24 0 0 1 4 5 4 4 0 0 0 4 1l9 1a21 21 0 0 0 5 0c3-1 7-2 10 0l4-1a16 16 0 0 1 8 0 17 17 0 0 0 4 0h6l7-1 19-1h11a15 15 0 0 0 2 0l19-3a11 11 0 0 1 6 1c2 1 2 4-1 5-3 2-7 4-11 3zm-123-7c-2 0-6 6-4 9l4 8 2 1c3 1 8-2 9-5l1-4c1-2-1-6-3-7a90 90 0 0 0-9-2zm78 48l-10 2-16-1a8 8 0 0 0-2 0 12 12 0 0 1-10 0 4 4 0 0 0-3 0l-10 1h-7l-10 1-11 1a15 15 0 0 1-4 0c-6-1-12-1-18 1-4 2-9 2-14 2-6 1-12-1-18-2-2-1-4-1-3-3 0-2 2-2 3-3a11 11 0 0 1 5 0c5 2 11 2 16 1l14-3c5-1 9-2 14-1a5 5 0 0 0 2 0l24-2a17 17 0 0 1 4 0 22 22 0 0 0 10 0l6-1h7a26 26 0 0 1 5 0 55 55 0 0 0 18 0l7-1a5 5 0 0 0 4-3c1-3 4-5 7-5a25 25 0 0 1 10 0l6 1c3 0 5 2 5 5a2 2 0 0 0 3 2h7l11-1a7 7 0 0 0 3 0 6 6 0 0 1 6 0l3 2a4 4 0 0 1-2 4 13 13 0 0 1-8 2c-4 0-8-1-12 1h-7a5 5 0 0 0-5 4c-1 5-6 7-9 10h-5a56 56 0 0 1-6-1c-3-1-5-3-7-6l-3-7zm10-3c0 3 2 6 4 9a2 2 0 0 0 1 1c5-1 9-9 8-13-1-3-3-3-6-3-4-1-7 2-7 6zm206-261l-1-27v-11a2 2 0 0 1 1-1c2-2 6-1 7 0l7 5 12 10 7 4 9 8c2 3 2 6-1 8l-18 15c-4 2-7 6-10 9a48 48 0 0 1-5 4c-3 2-8 0-8-4v-19zm7-30h-1l2 44 26-22zm-220-47l5-6a23 23 0 0 1 28 4c3 4 4 10 4 16s-3 11-6 15a61 61 0 0 0-5 8c-2 4-7 6-10 9l-7 5c-3 3-5 3-9 0a5 5 0 0 0-1 0l-20-8a6 6 0 0 1-2-1c-6-6-13-11-16-19-2-8-2-15 1-22l6-8 3-1 5-2a13 13 0 0 1 3 0c8-1 15 2 19 9a7 7 0 0 0 2 1zm28 14l-2-7c0-5-3-8-8-9a5 5 0 0 0-6 2 11 11 0 0 1-3 2 5 5 0 0 0-2 4c-1 4-3 6-5 8-3 2-7 1-7-3-1-6-4-10-9-13-7-3-12 0-14 6-4 9-2 17 4 25a57 57 0 0 0 7 6 19 19 0 0 0 4 3l13 5c2 1 4 1 6-1a4 4 0 0 1 1-1c5-2 9-5 12-10l6-11a44 44 0 0 0 3-6zm-377 96c5 1 10-3 13 2-1 4-4 6-8 6l-18 1a17 17 0 0 1-5-1 3 3 0 0 1-2-4c2-2 3-3 6-3h5l-2-29-1-29h-1a27 27 0 0 1-2 2 39 39 0 0 1-6 4 4 4 0 0 1-4-1c-1-2 0-3 1-4l6-7a43 43 0 0 1 8-5c4-2 6 1 6 4l1 19v15l2 16 1 14zm-62 3l-3-54-5 4-3 2c-2 1-3 0-5-1-1-1 0-3 1-5l6-4 5-4a16 16 0 0 1 2-2c3-2 6-1 6 2a51 51 0 0 1 1 7l1 21 1 25 1 8h7c3 0 4 1 5 3s-1 4-4 5a10 10 0 0 1-1 0l-10 2a38 38 0 0 1-6-1h-6a35 35 0 0 1-6 0c-2-1-2-2-2-4a5 5 0 0 1 5-4h10z"/><path fill="#f0f1f5" d="M740 596H192l89-15h370z"/></svg>