<svg xmlns="http://www.w3.org/2000/svg" width="423.4" height="289.2"><g data-name="Group 419" transform="translate(-1130.2 -317.3)"><circle data-name="Ellipse 78" cx="103" cy="103" r="103" transform="translate(1239 359)" fill="#1a73e8"/><path data-name="Path 203" d="M1332.9 476a27.3 27.3 0 0 0-3.2-.2c-5.5.2-11 .8-16.4.8a76 76 0 0 0-11 .7 22.5 22.5 0 0 1-2.6-.3c-2 0-3.9.1-5.8.3-.9 0-1.8.5-2.6.5h-11.8c-.5 0-1-.2-1.5-.1l-13.4 1-4-.1a8.2 8.2 0 0 0-2.6 0c-3.3 1-6.6.9-10 1a21.6 21.6 0 0 1-3.3-.1c-2.3-.2-2.9.3-3 2.6a5.8 5.8 0 0 0 0 1 24.3 24.3 0 0 1-.9 8c-.7 3-.7 6.1-2 9-1.4 3-2.6 6.1-3.7 9.3-1.4 4.4-5.3 7.1-7.3 11-.3.6-1.2 1-1.7 1.3l-4.1 3c-.4.3-.6.7-1 .9-3 1.4-5.8 3-8.9 4.3a5.2 5.2 0 0 0-2.8 2 60.2 60.2 0 0 1-4.4 6.3 15.4 15.4 0 0 1-3 2.3c-.4.2-.9.3-1.2.6-2.3 2.7-6 3.3-8.9 5a12.2 12.2 0 0 1-5.2 1.4q-8.8.5-17.6.6a15.8 15.8 0 0 1-4.8-1l-9.8-3.4a15.6 15.6 0 0 1-4.5-2.6c-3.9-3.3-8.2-6.4-9.6-11.8a14.3 14.3 0 0 0-1.2-2.1c-.2-.6-.7-1.3-.5-1.7.4-1.3.7-3 1.7-3.7 1.3-.9 2.4.3 3.2 1.5l4.7 6.8a23.4 23.4 0 0 0 13.1 9.2c1.7.4 3.3.8 5 1.4a26.9 26.9 0 0 0 12 .6 16.6 16.6 0 0 1 2.8 0 15.6 15.6 0 0 0 7.9-1.7c2.5-1.3 5.2-2.5 7.7-4 1.8-1.2 2-1.1 3.5-4l-6.2-2c-1.2-.5-2.3-.9-3.5-1.2-4.8-1.2-7.4-4.6-9.5-8.8a19.5 19.5 0 0 1-2.3-10 14.3 14.3 0 0 1 7.9-12.4c2-1.1 5-1 7.4-.7a29 29 0 0 1 6.8 1.8 16.2 16.2 0 0 1 3.1 1.7c.4.3.7.8 1.2 1 5.2 2.8 6.6 7.8 7.7 13 .5 2.1.6 4.4.9 6.6a4.8 4.8 0 0 0 3.9-1.5c1.6-1.8 3.9-2.7 5.5-4.7 2.3-2.7 3.7-5.7 5.3-8.8 2.9-5.7 4-12 5-18.1a39.3 39.3 0 0 0 .3-6.1 1.6 1.6 0 0 0-2-1.8l-8 .6c-1 .1-2 .3-2.8.2l-7.8-.2c-1 0-1.8.4-2.7.5a32.3 32.3 0 0 1-4.2 0l-11.4-.8a7.4 7.4 0 0 0-2.4.5 9 9 0 0 1-4.2 0 71.2 71.2 0 0 0-8.4-.3 13.4 13.4 0 0 1-3.3-.2 38.2 38.2 0 0 0-11.7-1.4c-2.7 0-5.5-1.2-8.2-2-1.1-.4-2-1.3-3.2-1.6a30.4 30.4 0 0 1-11-5.5 23 23 0 0 1-5.5-6.1 66.3 66.3 0 0 1-4.7-10.2c-.7-1.7-.3-3.6-.8-5.3-1.2-3.7-.9-7.5-1-11.2 0-2.9-.5-5.8.2-8.5.7-3 1.5-6 3.7-8.6a47.1 47.1 0 0 0 2.9-4.2 29.8 29.8 0 0 1 1.8-2.4c.5-.5 1.2-.9 1.5-1.5a19 19 0 0 1 10.2-7.8c2.1-.8 4.6-.8 6.9-1 2.1-.3 4.3-.4 6.4-.5 8-.6 15.6.8 22.5 5 1.6 1 3 2.3 4.3 3.2l10.7-11.3a14.6 14.6 0 0 1 7.2-4.5c4.9-1.2 9.5-3.4 14.6-4 5.3-.7 10.5-1.7 16-1.6 8 .2 15 3.2 22 6.3a16.1 16.1 0 0 1 4.5 3.6c5.6 5.7 10 12.2 14.4 18.9l2.1 3c2.6-1.4 5.1-2.7 7.4-4.2a20.4 20.4 0 0 1 10.3-3.5c4-.2 8 .3 12.1.6l1 .2c4-.4 7 2 10.4 3.6a13.8 13.8 0 0 1 4.8 4c2.7 3.5 5.2 7.1 7.6 10.8a16 16 0 0 1 1.7 3.8 70.5 70.5 0 0 1 3 13.7c.2.9.2 1.8.2 2.7v1.2l.8 14c3.5-.3 6.8-.3 10.1-.8a41.2 41.2 0 0 1 5.1-.3c4 0 7.9-.5 11.8-.7l11.2-.4c2 0 3.9-.3 5.8-.3l14.8.1c2.7 0 5.5.2 8.2.5a39.7 39.7 0 0 1 6.4 1.3 8.5 8.5 0 0 1 2.5 1.7 50.2 50.2 0 0 0 5.1 4 4.9 4.9 0 0 1 2.5 2.8c1.2 4.6 3.3 8.9 2.6 13.9-.4 3 .2 6.3.4 9.4a1.9 1.9 0 0 0 1.9 2 7.6 7.6 0 0 0 1.5.2c3.3-.4 6.6.2 10-.3 2.8-.4 5.8.3 8.7.4h4.2a22.4 22.4 0 0 1 5.4.3 5.4 5.4 0 0 0 3.5 0 10.9 10.9 0 0 1 8-.3 20 20 0 0 0 8 .8 120.1 120.1 0 0 0 14-1.8 26.2 26.2 0 0 0 13.8-7.2 19.3 19.3 0 0 0 4.7-9.4c.8-3.2 1.5-6.3 2.5-9.5a38 38 0 0 0 1.1-10.5c0-5.3-.3-10.6-.5-15.8-.1-2.4-.5-2.9-2.7-2.5-2.7.5-5.3 1.5-8 .7-3.5 1.4-7.1.6-10.6 1.2a6.8 6.8 0 0 1-2.7 0 11.8 11.8 0 0 0-6 .2c-1.2.3-2.6-.1-4-.2-1 2-.4 4-.1 6 .6 4.2-.7 5.6-5 5.4-1.9-.1-3.7.2-5.5.2-1.8.1-3.7.2-5.5.1l-8.2-.3-4-.1c-2.2-.3-3.1-1.3-3.3-3.6l-.5-5.8a34.2 34.2 0 0 0-3.3-.8l-7.6-1a13.3 13.3 0 0 0-2.4 0 28.3 28.3 0 0 1-4.9.4c-2.7-.3-5.4-.5-8 .8a.6.6 0 0 1-.3 0c-3.6-.3-7.2-.4-10.8-1a9 9 0 0 0-3.2-.1l-9.6 1.5a18.8 18.8 0 0 1-14.1-3.5 48 48 0 0 0-2.8-1.8 9.1 9.1 0 0 1-3-12c.3-.7.7-1.3 1.3-2.1a10.8 10.8 0 0 0-2-1.3l-6-2.2c-.5-.2-1.3-.4-1.5-.8-1.7-3.1-3-6.3-2.5-10 .7-4.3 4-6.6 6.5-9.6l-6-4.6a8.8 8.8 0 0 1-3.1-10 13.8 13.8 0 0 0 .5-2 4.9 4.9 0 0 1 2.3-3.5l5.9-4.4a5.5 5.5 0 0 0 .7-.8 9.3 9.3 0 0 0-.6-1.6c-2-3.8-.7-7.4 1-10.8 1-2.2 3.3-3.4 5.6-4.3l5-2.2a10 10 0 0 1 2-1c3.8-.7 7.7-2.1 11.5-2 4 .2 7.7-1 11.5-.7 2.1.1 4.2-.7 6.7-1.2-.2-2.6-.3-5.3-.8-8a124.1 124.1 0 0 1-1.9-18.1c0-3.7 1-7 2.2-10.4.7-2 4.3-3.1 7-2.4a20.5 20.5 0 0 1 14 12.4 81.3 81.3 0 0 1 5.7 23.3l.9 4.5a3 3 0 0 1-1.6 3.5 2.6 2.6 0 0 1-3.1-1.9 31.8 31.8 0 0 1-1.3-4.7c-1.1-5.2-2-10.6-3.3-15.8a27.3 27.3 0 0 0-5.7-11c-1.4-1.6-3.5-2.7-5.4-3.8-1.5-.8-2.3-.3-3 1.5-1.3 4-1 8-.5 12 1 7.1 2.5 14 3.7 21a11.5 11.5 0 0 1 .1 1.6c.1 2.4-1.6 3.8-4 3.5-2.7-.2-5.3 0-7.9-.1-4.4-.1-8.6 1.2-13 1.2a25 25 0 0 0-12.6 3 26.8 26.8 0 0 1-3.6 1.5 6 6 0 0 0-3.6 3.5c-.7 2 0 3.3 2 3.5a18.8 18.8 0 0 0 4.3-.2c4.1-.5 8.3-1.8 12.4-1.6 4.5.1 9.2.6 13.5 2.8a6.8 6.8 0 0 1 3.8 5c.7 3.4-.8 5.5-4.2 6.2a5 5 0 0 1-.9 0l-15.4.2a7.8 7.8 0 0 1-2.4-.5l-8.7-2.9a5.6 5.6 0 0 0-2.9 0 19.7 19.7 0 0 0-8.9 5.6 2.3 2.3 0 0 0 0 3.5c4.1 3.3 8.3 6.4 14 6.1a33.2 33.2 0 0 0 3.2-.5l4.5-.6a20.6 20.6 0 0 0 4.4-.7c4.9-1.9 9.5-2.1 14.1.6a45.3 45.3 0 0 0 5.6 2.3c1.9 3.3.6 4.9-2.1 6.3a28.5 28.5 0 0 1-7.8 2.3 25.1 25.1 0 0 1-5.8.2c-2.4-.1-4.8-.6-7.2.4a1.3 1.3 0 0 1-.9 0c-3-1.2-6.1-1-9.2-1.5-.4 0-1-.4-1.2-.2-2.4 2.1-6.3 1.7-8.2 4.7a4.1 4.1 0 0 0 2 6.4 61.8 61.8 0 0 0 8.9 3 5.9 5.9 0 0 0 4.3-.7c3.9-2.8 8.2-3.6 12.7-3.8a46.8 46.8 0 0 0 9.1-1c2.3-.6 4.8 0 7 0a3.7 3.7 0 0 1 0 4.7 35.8 35.8 0 0 1-3.2 4 13 13 0 0 1-8.8 4.3c-1.4.1-2.8 1-4.3 1.4a10.3 10.3 0 0 1-3.2.7c-3.5-.1-7-.5-10.6-.9-1.2-.1-4.7 1.7-4.7 3a3 3 0 0 0 1 2.3c2 1.5 4.1 3.1 6.5 3.9 2 .6 4.4.3 6.6.1 2.8-.2 5.6-.8 8.4-1.3a1.1 1.1 0 0 1 .3 0l9.1 1.1a9.4 9.4 0 0 0 4.4 0 9.8 9.8 0 0 1 6-.3 7.8 7.8 0 0 0 3.3 0 24 24 0 0 1 7.9.2c3.2.5 6.6.6 10.3 1 0-1.5.2-2.5.1-3.6l-.8-15.8c-.1-2 .6-2.8 2.6-3h4l9-1a11.3 11.3 0 0 0 6-2.6 7.4 7.4 0 0 1 2.2-1.2c4.5-1.7 6.8-5.8 5.2-12a5.7 5.7 0 0 0-1.5 1c-2.6 3.2-6.1 5-9.8 6.4a12.6 12.6 0 0 1-11.2-.7c-6.1-3.3-8.1-8.7-8.5-15.2a7.3 7.3 0 0 1 4.5-7.3 40.4 40.4 0 0 1 4.2-1.6l5-1.7a13.2 13.2 0 0 1 3.2-.5h10a5.2 5.2 0 0 0 .5-1.5c.2-2.3.3-4.7.3-7 0-2.1-.4-2.3-2.6-2.3-3.5.1-7 .3-10.6 0-4.4-.1-5.6-1.3-6.5-5.7a32.3 32.3 0 0 1-.5-10.3c.3-2.6 0-5.2.3-7.9.3-3.2 1.2-4 4.3-4.4s6.2-1 9.3-1a46.1 46.1 0 0 1 7 .7c1.6.3 3.5.1 5 .8 1.8 1 .7 3.2 1 4.8a30.5 30.5 0 0 1 .5 4.8l.7 10.7a1.8 1.8 0 0 0 2 1.9c2 0 4 .6 5.9-.7a5 5 0 0 1 2.6-.6h12.2c2 .2 4 .9 6 .9 3.5 0 5.2 2.1 6.6 4.8 1.8 3.5 3.5 7.1 3.8 11.1l.6 10.3c0 3-.2 5.9-.1 8.8l.6 15.9.1 11.8c0 2.1.5 4.2.7 6.4a5.7 5.7 0 0 0 1.7.2c5.9-1.6 12-.9 17.9-1.1h7.3a3.9 3.9 0 0 1 3.4 2.4c1 1.7.6 3.2-1.2 4a8 8 0 0 1-3.1 1.1l-15.2.5c-1.6 0-3.2.4-4.8.6l-3.6.4c-2 .3-2.5.8-2.5 2.8l.3 11.5-.2 11c0 5.5-2 10.7-2.7 16.2-.3 2.3-1.5 4.5-2.5 6.7a18.4 18.4 0 0 1-2.6 4.5 52.4 52.4 0 0 1-5 4.8c-.3.3-1 .3-1.3.6-3 3-7 3.5-10.6 5.2a5.4 5.4 0 0 1-1.8.5l-10 .8a5.7 5.7 0 0 0-1.1 0c-5.2 1.7-10.3.3-15.3-.7a6.5 6.5 0 0 0-3.3.3 9.9 9.9 0 0 1-7 .2 4.4 4.4 0 0 0-2.8-.2c-3.5 1-7 0-10.5-.1-1.4 0-2.8 0-4.2.2-.7 0-1.3.3-1.8.2-4.3-1.2-8.2.6-12.5.9v7.8c0 7 0 14.2-.3 21.3 0 3.9-.8 7.8-1 11.7-.2 3.2.1 6.5.1 9.7l-.2 13.4c-.1 2.6 0 5.3-.4 7.9a4.6 4.6 0 0 1-6.7 3.8 15.9 15.9 0 0 1-3.9-2.8c-3.3-3-6.5-6.4-10.7-8.4a12.5 12.5 0 0 1-2.6-2.2l-2.7-2.5a71.2 71.2 0 0 0-9.8 8.9 11.3 11.3 0 0 1-1.4 1.6c-3.2 2.2-5.3 5.5-7.5 8.6-1.2 1.6-5.5 2.8-7.3 2a3.4 3.4 0 0 1-2-3.4l.3-13.7c.2-6.4.2-12.9.3-19.3.1-4.5.2-9.1.5-13.7l1.2-12.4a46.5 46.5 0 0 0-.3-5.5c-.1-2.4-.8-5-.2-7.2 1-4 2.2-8.2 7-9.5a22.6 22.6 0 0 0 4.2-2c3.7-1.8 7.8-2 11.8-2.1 5.7-.2 11.4-.1 17-.3 2.2 0 4.4-.4 7-.7.6-1 .5-2.6.5-4l-.3-9.8a14.8 14.8 0 0 0-2.4-7.8 8.7 8.7 0 0 0-4.1-3.4 36.2 36.2 0 0 0-13.2-2.3 149 149 0 0 1-17.2-.2 15.6 15.6 0 0 0-2.1 0c-5.5.5-11 1.2-16.4 1.2a178.7 178.7 0 0 0-19.4 1.3 39.3 39.3 0 0 1-4.2 0 70.2 70.2 0 0 0-.5 16.4c.4 3.6 1.4 7.2.4 10.9a11.1 11.1 0 0 0 .2 3.3l.2 2.4c-.2 9 0 18.1-.7 27.1-.7 9.6-.8 19.1-2.9 28.5a57.2 57.2 0 0 1-5 15 45.1 45.1 0 0 1-5.2 7.8c-2.3 2.7-4.9 5-7.3 7.7a18.2 18.2 0 0 1-3 2.4c-1.5 1-3 1.9-4.3 2.9a6.6 6.6 0 0 1-1.6 1l-9.2 2.8-3.2 1a45.8 45.8 0 0 1-26.4 1c-13.5-4-24.5-11.2-30.4-24.7a66.4 66.4 0 0 1-4.4-19.2 37.4 37.4 0 0 1 2.3-18.8c1.7-4 3-8.4 6.8-11.4 1.2-1 1.8-2.6 2.9-3.8 1.4-1.6 2.8-3.6 4.7-4.6a104.4 104.4 0 0 1 11.2-4.8l9.7-3.5a36.4 36.4 0 0 1 13.5-1.2 19 19 0 0 0 2.2 0 28.7 28.7 0 0 1 14.7 3l1.7.7c1.6.6 3.6 1 5 2a80.5 80.5 0 0 1 9.6 8.8c1.8 2 2.8 4.6 4 7.1a3.3 3.3 0 0 1-1.8 4.4 4.2 4.2 0 0 1-5.1-1.2 19.8 19.8 0 0 1-1.4-2.8 15 15 0 0 0-5.4-7.1 14.3 14.3 0 0 1-2.6-2.5c-1.6-1.8-3.4-3.3-5.9-3.5a5.7 5.7 0 0 1-2.5-1c-1.7-1.2-3.6-1.3-5.4-1.8-4-1.2-8.2-.6-12.2-.6s-7.9.7-11.3 3a1.2 1.2 0 0 1-.5.4c-3.6.2-6.4 2.4-9.4 4a22.8 22.8 0 0 0-5.7 4.4 36.4 36.4 0 0 0-5 6.2 32.8 32.8 0 0 0-3.3 7.1 41 41 0 0 0-1.9 22.8c.8 3 1 6.3 2 9.2a31.7 31.7 0 0 0 10 14.7 52.1 52.1 0 0 0 12.5 7.4 33 33 0 0 0 18.8 2.5c2.4-.5 4.7-.8 6.9-2a5.7 5.7 0 0 1 2.3-.6c3.4-.3 6.2-1.7 9-3.2 5.6-2.9 9.5-7.4 13.4-12a31.3 31.3 0 0 0 6-11.6 86.7 86.7 0 0 0 3.9-22.7c0-5.8 1-11.5 1.6-17.3a12 12 0 0 0 0-3.3c-1-5-.5-10 .2-15 .6-3.9.4-7.8.2-11.7-.1-3.9-.7-7.7-1-11.5v-4.9-.6-7.8zm-98.8-3.3l.2-4.2.5-18.9a15 15 0 0 0-1.4-6.3l-1.2 1.3-4.5 6.5c-1.5 2.5-3.7 2.9-6.3 2.6-2.4-.4-3.2-1.8-2-3.9.4-.8 1-1.4 1.5-2.2 1.6-2.2 3.3-4.4 4.6-6.8 2.1-3.7 4-7.5 6-11.3a3.5 3.5 0 0 1 2.8-2.1 9.7 9.7 0 0 1 9.6 4.2 15.6 15.6 0 0 0 2.2 3.2l10.9 10a4 4 0 0 1 1.4 4.1c-.6 1.7-2 1.5-3.6 1.6-3.3.3-5.5-1.7-7.8-3.5l-4.3-3.4V470.3c0 2.2.3 2.5 2.5 2.4 4-.4 8-.8 12-1l22.9-.7c2.8 0 5.7 0 8.5-.2l17.6-1 11-.4c2 0 4.2-.3 6.3-.4l6.6-.1c2.2-.1 3.2-.7 3.3-2.4.1-3 .2-6.1.1-9.1a97.5 97.5 0 0 0-.8-10.3c-.5-3.4-.9-7-2.2-10-1.6-3.7-4-7-6.4-10.3a15.2 15.2 0 0 0-4.5-4.6 26.9 26.9 0 0 0-14.2-3.6c-2.7 0-5.5.2-7.7 1.5-4.2 2.6-8.8 5-10.7 10-1 2.8-3.3 3.3-5.9 3.4-2.3 0-3.4-.8-3.9-3-1-5.2-3.6-9.5-6.2-13.8-1.7-3-4.1-5.8-6.1-8.7a27.5 27.5 0 0 0-11.3-9.9 47.8 47.8 0 0 0-6.6-2.3 20 20 0 0 0-5-1c-3.4 0-6.7.4-10 .2-2.7 0-5 1.2-7.4 1.5-4 .4-7.4 2.2-11.1 3.3a9.8 9.8 0 0 0-3.7 2c-5 4.5-10 9-12.4 15.6a4.8 4.8 0 0 0-.4 2c.3 2.8-.8 4.5-3.4 5.3-4.2 1.2-6.3-.7-6.2-5a7.6 7.6 0 0 0-1.5-4.7 20 20 0 0 0-5.9-4.7 24.2 24.2 0 0 0-16.2-2.5 20 20 0 0 1-4 .3c-2.3 0-4.6 0-6.4 2.1a4.8 4.8 0 0 1-1.3.8 29 29 0 0 0-10.8 12.5 17.8 17.8 0 0 0-2.4 8c0 4-.6 7.8-.3 11.6.2 4.5.9 9 3 13a26 26 0 0 0 5.5 7.6 32.6 32.6 0 0 0 18.7 7c.4.1 1 0 1.2.2 1.6 2 4.2 1.3 6.2 2a16.3 16.3 0 0 0 4.5.5 319.8 319.8 0 0 0 13.8.3c2 0 4.1-.5 6-.1 4.2.7 8.3.4 12.5.1l7-.3c2 0 4 0 6-.2l7.2-.5h3.9zm280.5-35.5a18.4 18.4 0 0 0 .1-1.8l-.8-17.7-.3-16.8-.5-18c0-3.8-1.7-7-4-10a3.2 3.2 0 0 0-2.5-1.3c-2.6-.3-5.2-.9-7.8-1a25.2 25.2 0 0 0-5.4.3c-1.6.2-3.2.8-4.8 1-2 .3-4 .4-6.1.6a10.7 10.7 0 0 0-.6 2c-.4 4.2-.9 8.5-1 12.7a9.2 9.2 0 0 0 .6 3.6l2.9 7c1.8 4.5.8 9-.1 13.5a8 8 0 0 1-1.7 3.2 27.1 27.1 0 0 1-12.7 8.3l-1.8.6c-3 .9-5.8 2-9 1.7-2.3-.3-3 .2-2.9 2.5.1 4.3.6 8.6.9 12.8l15-1v-4c-.1-1.3-.5-2.7-.5-4.1a2 2 0 0 1 2.2-2.3l1.8-.1c2.4 0 3.3.8 3.7 3.1l.7 5.8c.3 2 .8 2.3 2.9 2a26 26 0 0 1 3-.3c3.7 0 7.5 0 11.2-.3 5.8-.5 11.5-1.3 17.5-2zm-94.7 69.6c-2.6-.3-4.9-.6-7.2-.7-4.2 0-8.5.8-12.7-.3a7.6 7.6 0 0 0-2.2 0c-4 .2-7.6 1.8-11.3 3.3-3.1 1.3-4.9 3.4-5.1 6.5-.3 3.8-.2 7.7-.3 11.5l-.5 10c-.4 4.6-1 9.2-1.1 13.7-.2 2.9.2 5.7.1 8.5 0 3.5-.2 7-.3 10.4v7.5c1.6-1.2 3.2-2.1 4.6-3.3a50.3 50.3 0 0 0 3.5-3.7 53.4 53.4 0 0 0 5.2-5.6c2-2.9 4-4.9 7.9-4.5a3.2 3.2 0 0 1 2.6 1.1c3.7 4.6 8.4 8 13.2 11.1l2.2 1.6a14.4 14.4 0 0 0 .4-2.6c-.3-6.6.9-13.2.1-19.8a20.6 20.6 0 0 1 .3-3.7c.4-6 1-12.1 1.3-18.2.1-4.9 0-9.8-.2-14.6 0-2.7-.3-5.3-.5-8.2zm-214.4 12.4c-.4-2-.3-4.7-1.3-6.7-1.4-2.7-2.3-6.2-6.2-6.8a.5.5 0 0 1-.2-.2c-1.4-1.5-3.3-1.8-5.1-2.5a3.4 3.4 0 0 0-3.4.7c-2.3 1.6-3.2 6-1.8 9.1l2 4.1c1.4 3.3 4 5 7.2 6a25.6 25.6 0 0 1 3.9 1c2.8 1.3 4.2.6 4.6-2.8l.3-1.9zm261.9-130.7c-3.7 1-7.2 1.8-10.7 3-2.3.8-2.7 2.2-2.2 4.6l.5 2.4c.6 3.2 2.8 5.1 5.6 6.4a2.4 2.4 0 0 0 1.7.1c5.7-2.1 9-5.3 10.1-11.7a2.7 2.7 0 0 0-.5-2.2 39.8 39.8 0 0 0-4.5-2.6zm6.4-23a83.5 83.5 0 0 0-.6-13.4 4 4 0 0 0-.7-1.7c-.3-.5-.8-1.1-1.3-1.1-3.1-.2-6.4-1.3-9.2.6v12.7a7.3 7.3 0 0 0 1.1 3.2 2.3 2.3 0 0 0 1.6 1 25.4 25.4 0 0 0 9-1.4zm-16.5 87c5.2.3 10.2 1.1 15.3 0V447a40.3 40.3 0 0 0-15.9 1.8zm-59.5-71v.5h1.6v-.6z" fill="#202124"/></g></svg>