<svg xmlns="http://www.w3.org/2000/svg" fill="#202124" opacity=".15" viewBox="0 0 19200 2910"><path d="M16449 2820c-42-33-91-59-146-44-56 15-74 64-112 100-59-56-79-106-175-95-80 9-136 57-169 129h89c24-35 64-72 109-74 48-3 75 38 99 74h114c21-32 55-84 98-82 42 2 72 53 93 82h72a352 352 0 0 0-72-90zm769-6a474 474 0 0 0-349-91c-109 10-205 93-257 186h95a307 307 0 0 1 243-122c109-1 208 22 266 122h75a335 335 0 0 0-73-95zM972 28c-41-11-124 10-95 65 36 68 102 5 106-45-2-4-5-18-11-20zm18157 1258c-42 143-24 275-36 420-10 124-4 244 4 369-67 8-133 8-201 10-31 1-150-17-156 10-15 71 307 35 349 40 14 258 12 518 37 776h69c-18-139-21-279-26-419l-9-223c-3-50-28-128 39-134v-57a460 460 0 0 0-38-2c-20-133-14-263-10-396 4-128-22-287 47-405v-95c-36 22-56 63-69 106zm-1215 1548c58 8 116 13 175 16 30 2 57 1 86-2 27-3 94 2 115-16 32-49 13-133 19-188 7-66 36-50 95-48 63 2 128-11 190-6 20 2 182 43 141-38-27-33-109-23-148-27-62-6-119 5-181 5-44 0-92-18-133 4-45 24-35 83-37 128-1 26 5 64-3 88-8 27 0 15-31 23-50 13-107 13-159 10-53-3-121-23-174-15-67 11-48 91-47 141h72c0-20-13-80 20-75zm1161-2038c11 64 16 127 23 191 7 72 40 61 102 51v-55l-5 2c-9 2-19 2-28 1l-25-184c18-3 37-10 58-11v-52c-32 1-135 4-125 57zm45-256c-26 2-23 32-12 43 20 20 67 6 92 26v-65c-25-7-52-6-80-4zm-3646 2214c-94-91-227-173-359-121a365 365 0 0 0-240 277h75c16-108 129-252 253-233a414 414 0 0 1 288 233h81a327 327 0 0 0-98-156zm-4334 96c-6-134 8-277-71-392-84-123-226-91-354-108l-14-2c-30 6-64-10-96-10l-99 2c-64 1-130 4-193 3-131-2-271-8-401 0-123 7-284-11-312 148a809 809 0 0 0-12 208c7 70 2 141 15 211h70c-20-141-22-279-7-420l-3-1c18-87 86-81 159-84 69-3 138-3 206-3 155 0 311 0 466-7 76-3 151 9 226 16 82 7 172-6 244 40 140 89 93 319 104 458h72v-59zm1139-8c0-35-24-71-19-105 3-26 27-42 41-64a230 230 0 0 0 19-187 284 284 0 0 0-281-198c-308 12-317 388-348 622h68c9-103 25-206 50-307 23-92 47-207 145-248 68-29 203-11 248 49 48 64 96 181 29 248-37-77-65-124-154-140-81-15-152 22-136 115 16 90 87 122 170 131 33 4 65-12 83 10 18 23 18 114 20 141h71c-2-22-8-44-6-67zm-113-140c-56 13-119 10-147-48-22-46-16-94 38-98v1c58-6 137 139 109 145zm-1310-106c-27-51-79-68-136-55-66 15-90 55-106 118 22 77 63 136 156 118 51-10 117-69 100-128-2-18-6-36-14-53zm-57 69c-2 38-47 74-84 54-25-13-49-101-5-93 2-24 31-42 54-35 29 8 38 46 35 74zm3480 138c-57-20-108-2-164 5-53 6-104-7-157-5-41 1-89 8-128 16-50 10-95 5-146 8-178 11-359 23-538 15 1 25 7 43 1 69h54v-11c50-7 98 4 146-1 42-5 84-1 127-3l127-4c28 0 83 8 106-7 36-12 89 8 127 6 22-1 31-14 51-19 22-6 46-1 69-4 46-6 87-2 134 0 53 3 97-6 149-15l6 58h73c-3-39 7-93-37-108zm153-127c-45-50-112-44-172-38-33 3-64 13-97 17-37 5-68-10-103-10-54-1-109 19-165 20h-96c-39 0-83-15-120 4-34 10-85 9-121 13-38 4-77 13-115 11-74-4-131-30-208-22-66 7-149 6-203 49-55 44-70 123-73 189h80c2-41 8-117 46-145 28-21 78-21 113-26 48-7 92-10 140 1a407 407 0 0 0 159 14 2130 2130 0 0 1 299-27l134 1c42-1 108-27 145-8 83 21 177-48 258-19 71 26 87 144 93 209h75c-6-78-17-169-69-233zm-1841 86c-7-211-53-542-287-626-56-20-127-30-186-36-53-5-107 13-159 20-60 8-118 24-178 26-27 1-51-7-78-6l-109 8c-46 3-114 30-159 16-26-8-20-10-20-39 0-43-2-86-5-130-6-91 9-231-56-306a234 234 0 0 0-151-61c-65 1-130-4-197-7-59-3-129-6-178 34-48 39-50 98-51 156-1 68 13 132 12 200-1 63 1 122 53 165 104 87 279 42 403 51 21 6 77-8 90 3 15 12 8 52 8 73v183c-1 140 18 283 4 423h69c11-112 5-232-2-344-3-52-2-104-2-156v-92c0-11-6-73 0-82 16-22 82-13 108-17 46-7 91-12 137-15 44-3 88-2 133-6 55-4 107-15 162-21 47-5 94 0 140 8 13 2 32 6 46 6 19 0 27-8 43-11 92-18 170 45 223 122 124 180 112 401 117 608h69c-1-48 3-97 1-147zm-1281-592c-112-5-234 5-345-14-38-6-72-24-95-57-31-46-13-110-16-163-4-66-54-225 30-252 44-14 104-6 150-3s114 27 156 8c29-6 88 22 107 45 29 34 17 88 38 126 17 55 3 134 5 192 4 37 29 121-30 118zm-57-284c-44-29-118 14-115-51h-1c4-40 14-93-47-80-42 17 3 95-38 111-22 9-126-32-116 20 0 65 99 11 126 39s-32 130 45 120c63-9 5-81 29-115 13-18 58-3 79-5 13 0 76-15 38-39zM1553 143c-17 5-34 12-51 19-30 23 10 62 36 63 25-4 57-4 63-34 5-23-23-56-48-48zm-424 2285c-100-41-234 11-261 118-29 115 67 207 175 208 69-26 132-39 152-121 17-73 16-173-66-205zm-23 204c-36 105-205-16-136-118 11-10 55 1 71-1 19-2 19-16 41-9 45 16 34 96 24 128zm15005-25c-16-18-68-41-92-20-37 32 17 76 48 79 27-3 66-34 44-59zM9185 1254c62 13 136-56 181-90 17-13 54-30 40-58-7-14-55-34-70-45-33-23-116-91-161-68-42 22-15 178-14 222h1c-3 18 3 36 23 39zm38-193c25 11 95 44 89 71-5 24-60 44-77 58l-12 6v-135zm6471 134c-21 27-42 53-59 83-23 41-26 81-42 123-15 38-11 18-49 19-35 1-56 23-75 50-93 134-60 288-32 439 26 142 103 300 246 355 63 24 148 24 215 29 43 3 88 8 131 6 36-2 70-22 106-16-104 131-312 160-460 103a446 446 0 0 1-270-263c-13-31-21-66-55-80-38 36 3 124 24 164a423 423 0 0 0 139 152 526 526 0 0 0 392 102 651 651 0 0 0 318-183c92-87 210-124 314-192 191-126 350-309 432-523 12-31 11-33 42-42 22-6 47-3 69-4 67-3 132 6 200 2 65-3 129-16 193-24 29-4 58-4 86-1 35 3 63-3 98-6a492 492 0 0 1 401 174 475 475 0 0 1 88 189c10 44 10 48-36 53-42 5-85 0-127 2-20-94-68-196-144-255-95-74-182-107-304-66a469 469 0 0 0-249 237c-10 20-23 67-42 80-16 10-65 0-85 1-19 1-147-12-114 35 50 47 113 15 175 30-20 101-22 203 7 304-105 17-215-5-317 30a312 312 0 0 0-141 83c-25 30-52 96-32 134 28 89 148 160 232 100 39-27 66-68 73-115 6-41 8-131-59-116-46 10-11 46-10 82 1 43-32 105-79 114-43 9-80-33-90-70-17-61 21-95 70-121a698 698 0 0 1 323-61c59-1 62 51 94 92 37 49 84 90 136 122a500 500 0 0 0 348 60c44-9 92-7 134-19 49-13 98-65 136-98 20-18 40-36 57-57 17-22 30-65 52-82 37-30 139-12 188-18 28-4 116-36 61-58-23-9-78 4-103 5h-111a951 951 0 0 0 43-275c0-48-2-48 45-51 46-3 89-10 134-23 173-48 289-153 301-341 12-185 21-369 25-554 2-89 14-184 1-272-13-83-81-150-145-198-70-53-133-65-219-75a1714 1714 0 0 0-328-9c-87 7-177 30-265 27-99-3-186-16-286 3-73 14-143 51-173 122-38 90-14 192-13 286 2 88-12 196 30 278 44 85 159 94 244 94l618-7c39-1 96-13 132 8 30 17 60 63 78 91 27 41 141 260 199 171a1847 1847 0 0 0-214-291c-19-21-27-36-54-43-21-6-26 2-47 4-59 6-127-2-187-1h-391c-66-1-133 5-199-1-79-7-101-24-114-101-11-61-6-119-7-181-1-64-16-129-12-193 11-148 114-187 250-189 58-1 115 14 172 11 68-3 135-17 202-24 134-14 272-6 405 10 134 16 257 106 257 250 0 77-4 155-6 232-1 63 5 149-11 209-11 210 43 517-209 604-59 20-121 40-183 40-58 1-43-52-58-101a512 512 0 0 0-229-280c-63-61-203-76-287-81-94-6-213 38-302 4-41 36-127 36-181 31-66-5-130-7-197-3a1763 1763 0 0 0 104-571c1-105 12-209 11-315-1-98 17-213-9-309-27-99-152-98-233-107-49-6-99-3-148-7-52-4-98-9-142 23-75 54-95 173-108 257-2 17 2 66-6 76-14 17-1 1-27 8-37 9-141-21-165 14-2 7-1 15 4 20 26 21 45 19 77 18 21-1 88-8 103 8 21 23 3 123 6 158-40 0-163-25-193 5-40 39 33 49 62 48 26-1 111-11 132 10s-2 114 3 143c-7 50-212-33-209 30 2 53 171 39 205 39 9 138-33 311 75 420 94 95 231 104 357 95a985 985 0 0 1-234 368 1360 1360 0 0 1-348 243l-2-3c23-40 50-80 69-122 24-55 31-114 41-173 8-47 13-108-28-142-47-39-98 4-141 26 10-64 14-128 17-193 4-62 9-128 0-189-9-59-6-120-63-157-59-37-105 27-141 67-9-71-2-209-82-233-118-36-182 97-203 191-30-9-70-47-98-11zm2226 771c6 56 11 111 10 167-1 31 2 115-25 139-20 17-118 6-145 9-33 3-100 25-126-2-25-26-18-137-16-169 2-31-7-95 15-118 21-21 83-3 110-5 58-3 118-9 177-21zm-42 373a182 182 0 0 1-63 72c-10 7-46 36-57 38-46 8-93-64-105-100 74 0 149-21 223-15l2 5zm-539-456c62-139 165-249 322-263 42 4 78 33 111 55 39 26 41 46 72 79a430 430 0 0 1 65 151 1070 1070 0 0 1-259 20c-5-10 21-69 25-80 12-34 30-61 51-90l2 3-7-26 3-4c-51-5-68-5-99 41-30 44-45 97-62 146-78 11-157 2-235-4 3-10 6-19 11-28zm-31 392c-10-56-23-103-22-161 1-32-8-101 12-126 19-24 58-17 88-16 52 2 106 13 159 10a770 770 0 0 0-10 144c0 25 29 130 13 151-13 18-237 22-240-2zm674 195c-94 80-216 100-338 82a415 415 0 0 1-310-203c44-5 89 0 134-4 23-2 67-18 89-5 23 13 30 54 44 75 23 37 52 58 90 78 68 35 144-23 198-67 27-22 39-71 66-87 26-16 93 4 124 8a390 390 0 0 1-97 123zm175-500c7 100 2 209-39 302-20 31-110 15-138 9 32-103 16-205 11-312 22-1 165-18 166 1zm-1250-510c-28-1-120 22-134-7-37-26-33-5-72-4-34 1-71-36-91-60-52-66-50-139-56-218a787.8 787.8 0 0 1 0-119c3-42 8-42 53-46l99-7c15-1 50 6 65-2 12-7 11-20 21-29-30-60-178-20-233-17V798c57 3 125 16 180 11 11 1 22 1 33-1 10-3 19-7 27-12-19-84-172-44-236-56-30-13-4-134-5-160 44-4 89-2 133-4 42-2 51-2 73-32-43-30-76-28-128-26-27 1-64 15-79-7-18-25 16-139 24-170a230 230 0 0 1 47-101c58-64 178-33 256-32 37 1 105 0 136 23 38 28 31 96 34 137 14 211-5 430-19 639-5 66-33 461-128 453zm-1187-214c22-20 34 45 37 57 7 33 2 59-2 92-9 68-12 137-16 206-2 42-22 151 18 183 46 37 73-45 79-76 12-59 10-128 9-188 0-66-18-136-12-201 4-48 51-292 132-261 29 11 39 132 40 160 3 53 13 104 9 158-4 67-31 130-46 194-9 38-45 161-17 193 72 85 106-199 110-224 17-102 21-239 107-312 3-1 7-1 10 1 40 58 41 142 37 211-5 79-2 157-10 235a446 446 0 0 1-61 196c-20 34-103 167-60 203 74 41 118-134 132-179 12-39 19-78 50-107 12-11 67-57 81-52 58 20 9 176-3 216-20 69-72 127-91 194-30 29-42 44-83 57-35 12-69 23-105 32-47 11-90 10-138 7-29-2-103 5-123-24-163 11-240-155-284-284-25-74-40-160-43-237-3-88 17-150 63-223 41 80 12 162 19 248 3 31-2 111 32 128 43 22 60-36 62-66 6-96-22-193-9-288 10-75 15-191 76-249z"/><path d="M17736 862c-11-25-19-62-43-77a222 222 0 0 0-111-19c-64 13-118 90-105 153s70 110 134 110c96-1 126-78 128-161l-3-6zm-81 75c-27 46-77 41-98-7-16-38 18-108 65-108 50 0 54 82 33 115zm451-124c-12-25-67-33-92-42-36-13-67-17-101 1-59 31-95 91-62 154 32 60 97 95 165 77 52-13 106-76 97-133 1-17 1-42-7-57zm-63 49c2 92-130 119-129 20 2-79 142-89 129-20zm423-47c-3 0-27-36-29-38-16-14-44-22-63-28-41-13-60-5-97 16-61 36-98 105-55 172 35 55 118 86 177 53 30-17 54-48 67-80 4-12 28-98 0-95zm-65 45c-4 26-22 71-49 80-34 12-75-25-70-60-1-85 136-110 119-20zm-1975 1729c-25-52-121 8-72 60 20 21 57 17 80 2 37-23 13-28-8-62zM3944 879a409 409 0 0 0-169 153c-22-37-46-85-94-89-54-5-78 42-115 71-30-111-181-79-229-2-35-32-65-78-116-74-46 4-81 46-120 53a185 185 0 0 0-163-47c-57 14-82 74-108 120-31-33-56-57-103-63-21-3-103-3-75 41 9 14 57 11 72 16 25 9 35 22 51 42 22 27 39 73-1 97-38 23-100-9-135 31-29 32 1 98 4 139 3 35-6 116 26 138 30 20 141-13 178-15 111-6 226-19 337-18 113 1 225-19 337-17 119 2 239-11 358-19 41-3 72 5 83-40 12-49-5-120-8-170-1-20 4-64-13-79-21-19-36 2-58 7-45 10-74 5-78-46-3-52 32-77 65-109 18-18 31-37 51-52 21-16 47-24 60-49-10-28-13-29-37-19zm-326 155l35-22c42 11 86 64 89 108 4 60-100 49-142 54-13-46-30-108 18-140zm-236-7c27-54 100-38 123 6 19 37 21 124-22 150-19 11-87 11-104-4-37-33-16-118 3-152zm-237-16c12-15 61-35 80-26 38 30 79 65 73 116-5 43-15 79-57 81-15 1-80 7-91 2-20-10-16-6-21-35-10-47-18-99 16-138zm-76 256l-5-28c15 8 15 8 5 28zm-183-206c33-51 48-82 117-62 77 22 53 78 34 137-17 54-67 79-125 55-51-21-55-86-26-130zm-47 186l4 25-6 1-6-25 8-1zm977-14l5-15 63-3c7 53 16 104 10 157-40 20-105 13-149 17-43 4-85 6-128 7-100 4-199 14-299 19-97 5-194 2-291 12-87 9-200-15-282 19-9 2-19 2-28 1l-25-184c25-5 53-17 85-7 5 35 5 79 49 83 45 4 76-52 74-90h109c0 37 6 78 51 78 46 0 60-56 78-90 25-1 93-14 110 8 20 26-8 58 41 66 50 8 47-39 78-61 28-19 76-6 108-6 0 21-5 46 12 61 25 23 56 8 74-12 17-18 20-49 42-62 24-15 81-10 109-14-6 96 71 110 104 16zM1851 2561c-19-44-143 41-82 105 19 20 51 12 73 0 52-27 28-63 9-105zm8792-1346c28-4 68-12 46-51-18-31-50-13-75-2-26 21 9 52 29 53zm-1811 754c-2-110 3-245-37-350-15-40-54-74-93-92-30-14-75 3-91-28-15-30 3-109 2-143l-4-180c-6-118-14-236-14-353 0-72 38-248-70-238-48 4-92 7-140 6-42-1-107-10-112 45-4 52 18 117 19 171 1 58-5 116-7 174-3 118 8 238 8 357l-120-7c-8-99 2-197-9-296-5-51-1-109-11-158-11-52-50-37-96-37-34 0-108-17-130 13-24 32-10 135-10 174 1 45 32 290-16 310-31 6-62 10-96 15-4-48-10-96-10-144 0-42 9-92-2-134-18-70-139-41-194-39-41 2-75 2-95 43-19 39-9 96-9 138 0 30 17 110 2 135-20 36-68 13-107 15-25 1-75 1-81 33-7 38 43 30 67 31 64 3 146 9 181-61 35-71-25-179 3-252 19-49 119-26 165-26 9 83 0 169 13 252 9 55 18 66 69 64a640 640 0 0 0 137-21c71-22 44-152 43-214l-6-274c38-5 72-7 107 3 8 77 18 154 19 232l1 131c0 29-9 72 0 99 17 51 88 30 133 33 71 4 119-7 118-80l-3-465c0-45-2-89-7-134-2-16-12-51 1-65 22-23 142-5 174-5-4 67 6 136 5 203-1 76 2 152 9 228 7 74 10 148 10 222v105c-1 26 7 86-8 108-91 13-181 11-273 10-74 0-157-6-229 10-66-20-136-5-203 1-68 5-135 9-202 20-66 11-133-4-199 7-23 4-34 12-54 21-14 6-47 11-58 20-37 30-6 119-8 161-3 67-1 134 1 201 4 133 0 265 4 397 2 66-17 100 62 104 67 3 132 0 197-3 31-2 67 3 99 6 67 6 137-4 204-10a4030 4030 0 0 1 364-17c60 0 119-11 178-17 55-6 133-2 182-29 60-33 24-110 24-163 0-65-5-125-10-189-7-77-7-155-10-233-1-41 2-82 1-123 0-37-10-76-3-112 64-4 120 43 132 103 18 88 23 184 26 274 2 82-2 164-3 246-1 84 5 160-30 240-30 68-105 103-176 114-95 14-192 25-288 36-161 18-322 17-483 27-154 10-299 17-450-19-57-14-113-25-140-82-40-81-36-170-37-258-3-165 5-330-1-494l-15-517c-2-89-2-161-54-238-40-60-136-100-207-103-87-4-174 11-262 7-48-2-99-7-146-7-44 0-88 18-131 8-48-2-100 16-149 18-46 2-91-4-136-4-81 0-167-5-234 52a310 310 0 0 0-74 98c-12 26-12 86-32 104-23 21-97 12-126 13-56 2-111 0-167-2-10-105 1-231-54-326a472 472 0 0 0-210-185c-42-20-86-21-130-34a443 443 0 0 0-162-16c-101 11-210 15-299 69a810 810 0 0 0-241 214 573 573 0 0 0-87 300c-18 233 7 474 25 707 3 36-10 132 24 143 38 13 89-55 113-78 37-33 248-226 218-277-37-24-121 101-142 122-40 41-94 119-150 138l-30-660c-1-102 3-232 51-325a563 563 0 0 1 204-207c36-22 61-49 104-59 49-12 99-14 149-22 47-7 87-17 136-9 47 8 98 22 143 33 203 53 301 274 275 468l-7 3c-98 6-197 2-294 12-49 5-98 9-146 11-24 1-101 14-122-3-29 2-57-8-71 26-8 60 7 130 8 191 1 79 7 162 2 241-2 35-17 58 13 79 32 22 93 18 129 14 41-5 83-1 124-6 43-6 91-30 128-51a606 606 0 0 0 278-394c14-59 14-67 77-68 80-1 161 1 241-4 12 60 5 128 11 189 7 71 13 141 10 213-3 57-3 112 2 168 5 60 2 132 37 185 60 88 190 87 283 80 64-4 129-6 193-7 66-1 133 10 198 3 102-12 238-9 259-135 22-136 1-287-2-424-3-120-12-265-131-329-109-59-255-20-372-15-68 3-134 2-201 13-35 6-69 6-105 2-19-2-87 10-100 3-39-21 22-118 41-141 32-38 97-84 151-66 59-28 137 2 199-1 85-4 171-14 255-22 82-8 166 9 248 12 92 4 173-22 263 7 143 47 120 251 124 372l9 540c5 167-8 337 6 504 6 70 19 160 72 211 53 52 158 63 228 74 149 23 305 6 456-3 161-10 313 2 471-36 150-36 321 2 440-121 57-59 58-150 62-228 7-103 6-211 4-317zm-308 388a2900 2900 0 0 1-294 18c-98 2-194 12-291 18-92 6-183 17-273 12-89-5-179 0-268 0-17-85-6-177-6-264 0-90-4-180-6-270-1-45 4-89 2-133-1-21-15-63-2-82 11-16 68-27 88-33 44-12 85 0 129-2 34-1 65-16 98-21 37-6 74-7 111-10 90-7 175-11 265-4 75 6 151-11 228-10 38 1 75 5 113 3 41-2 83-13 124-8 15 258 16 516 34 774a550 550 0 0 1-52 12zM5340 1353a508 508 0 0 1-218 299c-49 30-102 48-159 48-31 0-62 7-92 7-27 0-51-14-78-14-3-140-12-278-6-420 191-5 381-22 573-22-7 35-12 69-20 102zm478-113c44 6 105 1 151-1 48-1 96-11 144-15 56-4 112-6 169-7 53-1 111-17 163-14 20 1 37 8 55 16 18 9 45 14 60 22 40 22 64 69 75 111 29 112 19 241 19 356h2c0 72 23 187-9 252-35 71-142 61-207 66-83 6-166 1-249 4-82 3-165 15-244-6-66-17-104-27-123-98-23-83-17-173-16-258 2-87-1-175-7-262-4-38-46-169 17-166zm254 534c43 30 106 41 153 62 45 21 54 31 99 1a534 534 0 0 0 166-175c43-69 50-173-14-233-80-75-168-33-234 30l-9-7c-58-91-207-92-262-1-78 127 8 240 101 323zm-40-288c24-61 91-63 135-20 32 31 33 130 91 98 47-26 38-104 96-120 76-21 88 74 97 122-28 92-122 251-234 208-115-44-240-148-185-288zm4126-363c21-9 25-30 27-54-16-32-71-29-87 6s25 64 60 48zm-2066 767c-37-29-75-56-111-86-26-22-76-75-115-67-58 12-22 255-20 305h-2c0 39-19 143 11 171 44 40 106-46 133-71 49-46 108-80 157-125 58-53-6-89-53-127zm-189 250c7-112-4-218-14-325l7-3 204 169-197 159z"/><path d="M10933 1388h-132c-51 1-36-7-60-43-42-64-107-90-179-59-44 19-146 132-77 172 58 34 165-21 228-11l6 57c-1 3-3 6-6 7-74 4-150-1-224-1-50-9-103 5-153-1-63-8-50-48-59-104-18-111-82-250-220-196-107 41-112 190-115 284-1 32-10 35 26 44 29 7 64 2 93 4 54 3 110 0 163 4 0 25 9 166-13 173-50 5-100 2-150 7-51 5-98 1-149-3-56-4-108 3-163 4-30 1-68 2-84-23-18-28 0-92 1-122 2-55 0-111-1-167-1-113 9-225 1-338-7-92-43-170-132-210-81-37-195-9-281-9-107 0-222-8-323 37-108 48-63 184-79 276a1072 1072 0 0 0 5 118c11 37 27 84 61 105 36 22 102 19 142 17 90-3 179-11 268-17 22-1 227-22 193-53-16-14-85-2-105-1-48 4-111 0-156 14h-5c-52 6-104 4-156 9-36 3-99 8-133-9-80-39-49-206-53-278-2-48 5-115 52-140 43-23 123-30 171-32 103-3 206 6 309 0 83-21 146 84 155 151 12 94 2 189 4 283a6562 6562 0 0 1-5 350c-1 14 2 32-4 45-3 8-16 5-13 19 16 39 79 21 109 22 42 0 83-3 124-2 85 2 172 13 258 5 42-4 190 11 207-22 11-21 4-70 5-93 1-20-7-83 5-99 16-22 29-8 57-5 42 4 87-2 130-1l216 8c35 1 82 7 94-29 9-28-27-74-1-96 18-15 98-1 121-3 17-1 38 2 43-18 4-11 0-30-16-30zm-400 22c17-40 26-74 73-85 43-10 76 22 93 65-54 12-110 18-166 20zm-313 79c-51 10-132 21-182 2-35-14-29-10-28-59 1-33 3-68 15-99 25-62 86-119 144-55 46 51 56 146 51 211zM5609 25c-3 24 2 40 4 63v25c13 44 32 102 74 127 45 28 124 23 176 21 105-4 207-14 312-20 35-2 278-8 244-64-11-18-127-1-150 2-53 5-115-1-166 14h-7c-40 5-78-3-118 1-53 5-104 16-159 10-46-5-82-5-108-46-29-45-27-106-28-157h-75l1 24zM2731 261c16 143 60 276 182 362a484 484 0 0 0 414 72 587 587 0 0 0 187-75c55-38 106-90 143-146 92-139 92-314 103-474h-81c-17 150-6 327-97 457a470 470 0 0 1-390 199c-320-11-488-402-309-656h-96a414 414 0 0 0-56 261zm814-233c22 29 82 14 70-28h-83c3 10 7 19 13 28zm525 154c-2 73-2 146-3 220-1 40-26 138 30 147 55 9 86-63 117-94 40-42 83-84 130-119 45 43 97 74 143 115 53 48 117 73 125-21 6-73 5-149 3-223-2-70 9-137 11-207h-74c-4 63-12 126-10 190 1 62 8 140-7 199-34-23-69-46-101-73-31-27-51-70-97-65-37 4-56 39-78 64-35 40-72 76-116 106 0-141 5-281 14-422h-78c-6 62-7 123-9 183zM1849 61c150 120 460 98 574-61h-98c-128 82-321 100-447 0h-95c19 23 43 42 66 61zM171 407c15-4 13-21 7-30-6-10-48-3-53-3-43 2-83 6-125 10v53c59-9 115-7 171-30zm106-292c7 158-4 317-1 476 1 54-1 107-3 161-1 25 3 56-3 80-1 5-19 44-19 43 20 49 109 26 149 27 25 1 48 1 73-2 32-4 54 3 86 3 103 0 206 11 311 1 51-5 102-8 153-5 62 4 74-3 77-67l5-131c1-12-3-44 4-55 13-21 10-13 34-13 28 0 54 9 83 7l75-2c72 1 145 4 217 7 44 2 88 5 132 2 71-6 64-21 56-87-10-77 21-64 90-65 23 0 146 14 113-46-17-31-118-15-150-15-18 0-60 10-76-1-21-14-30-62-51-82-50-50-102-72-172-48a183 183 0 0 0-116 108c-31 73-23 118 66 115 70-2 146-31 215-20l7 69c-1 4-3 8-7 9-78 5-157-6-236-3-76 3-155 6-230-5-18-3-42-4-53-20-18-26-10-105-17-138-16-71-39-152-105-191-51-30-147-30-194 11-65 56-93 151-97 233-1 25 3 53-1 77-1 9-16 40-8 51 17 25 78 16 105 17l129 4c21 1 40 9 61 9 18 0 35-8 52-6 0 28 9 201-16 210-61 7-125 5-185 9-70 5-135-4-205-6l-100-3c-23 0-46 10-70 10-53-1-98 7-107-52-8-55 6-114 6-169 0-68-2-135 0-203l5-226c1-63-15-130-10-193h-79c4 38 6 76 7 115zm1128 346c21-50 38-99 100-106 43-5 84 42 100 83-65 11-130 23-200 23zm-379 96c-41 8-77 6-118 6-35 0-81 10-114-5-32-14-23-41-22-78a310 310 0 0 1 24-128c32-63 94-119 160-62 67 59 70 188 70 267zM42 102C39 75 18 83 0 73v85c21-15 46-26 42-56zm5942-76c-22 115 173-8 200-26h-122l-4 2V0h-76l1 26h1zm3952 458a498 498 0 0 0 334 388c173 53 340 58 492-55a503 503 0 0 0 172-476 408 408 0 0 0-103-201c-31-36-49-61-94-82-49-22-101-42-152-59h-306c-84 33-195 90-221 187-12 44 27 79 65 41 12-12 17-37 25-52 14-23 30-35 49-53a342 342 0 0 1 255-88 460 460 0 0 1 276 102c159 137 174 435 30 589a433 433 0 0 1-606 7 522 522 0 0 1-146-338c-7-66-10-133-17-200-7-66 5-129-3-195h-83c1 161 0 329 33 485zm1121-417c35 26 66 47 106 66 47 22 58 38 90 78a350 350 0 0 0 181 111c148 33 348 3 449-120 16-19 87-133 20-137-23-2-61 79-73 93a253 253 0 0 1-86 70c-115 54-354 70-428-63 98-33 181-52 210-166h-94c-27 52-47 67-101 83-47 14-61 14-68-41l5-42h-81l-7 56c-29 2-69-37-89-56h-92c20 24 34 51 58 68zm2865-49c-23 49-16 74-4 124-34 50-87 47-96 116-9 70 43 99 93 137-40 47-78 81-61 148 18 72 67 50 116 91-35 55-29 105 24 145 67 50 129 55 210 42 71-11 141 4 211-4 77-9 167-10 242 13 3 36-4 75 31 92 34 17 118 7 156 6 29-1 100 9 122-11 30-27-6-74 10-107 66 4 171 14 233-12 29 8 55-11 81-6 28 5 15-1 27 24 11 24 4 79 4 106 1 35 2 71-1 106-13 118-47 247-166 297-53 22-113 27-170 32-56 5-110-17-165-9-56 8-114 5-172 2-58-4-123 10-181-1-31-1-23-86-23-103 1-47-1-108-26-150-47-82-147-100-233-102-201-6-401 10-602 22-10-170-9-363-154-484-59-49-128-56-201-60-96-6-157 30-237 77-53-75-100-155-166-219a409 409 0 0 0-229-96 730 730 0 0 0-293 39c-47 15-83 25-120 59-38 35-72 76-108 113-136-98-374-134-497 3-55 62-107 131-109 217-2 91 6 187 46 270 81 167 283 197 450 208 46 3 92 3 138 1 49-3 98 8 147 6 36-1 258-21 254 6 3 81-19 169-53 242-22 47-82 155-147 150-10-82-20-152-92-201-60-40-152-65-211-12s-56 136-23 202c41 82 112 93 192 120-43 77-152 95-231 99-97 5-211-20-277-98-17-19-57-107-85-100-42 10-12 67-3 86 44 90 120 130 212 159a491 491 0 0 0 301-1c38-15 77-35 108-61 40-34 59-81 106-106a466 466 0 0 0 202-165 628 628 0 0 0 83-287c3-51 15-44 63-44 60 0 119-8 179-11l337-16 27 3c94-12 211-24 305-13 0 106 14 213 11 319-3 118-10 235-20 353-10 119-12 251-76 357-68 112-163 161-283 198a380 380 0 0 1-341-62c-97-67-132-161-152-273a407 407 0 0 1 85-326 435 435 0 0 1 277-139c99-6 203 7 278 75 37 34 53 63 81 104 31 47 86 30 72-27-25-101-155-169-246-195a553 553 0 0 0-354 36 404 404 0 0 0-234 193 492 492 0 0 0-29 338 455 455 0 0 0 462 356 542 542 0 0 0 528-456c25-142 27-291 29-435l1-197c-1-78-14-150-3-229 86 4 177-11 263-14l269-8c68 0 169-13 223 41 24 24 32 59 35 92 3 32 16 110-2 138-136 16-284-14-408 55-57 32-66 90-60 151 7 78-6 155-10 233s-4 155-5 233c-1 41-26 187 4 218 44 46 95-30 118-58a1000 1000 0 0 1 153-145c29 28 59 47 91 71 31 22 55 55 87 75 110 70 91-112 92-171l13-572c46-3 87-10 133-9 42 1 88 4 131 2s82 1 125-4c46-6 87 13 134 12 164-3 349-49 398-228 25-92 32-188 32-283 0-32-19-105-1-131 16-23 81-20 107-22 31-2 258 9 187-68-22-23-83-12-111-12-55 1-112-3-166 11-6 0-11 0-17-2-13-112-13-228-14-341-1-102 11-210-43-302-46-80-195-50-276-50-14 8-59 15-72 0h-104c-20 5-69 20-86 0h-91c13 67 58 64 119 64 20 0 62-10 76 5 12 14 1 88-6 101-115 0-313 9-258 175 19 56 69 100 129 105 33 2 64-10 93-25 28-15 49-45 77-58 30 115-100 156-190 164-43 4-84-10-100 33-9 25 4 79 6 106 2 30 3 58 1 88-61-5-121-13-182-12-45 1-92 7-137 4-49-3-87-11-136-4-47 7-90 14-133-8-29-14-65-37-36-66 32-33 101 0 140-4s99-19 132-39c30-18 92-75 62-112-55-2-106 5-161 9-50 4-82 21-127 38-61 24-227-41-128-108a190 190 0 0 1 69-24c27-3 55 9 81 11 23 2 44-2 68-2 42-1 231 3 181-86-34-12-67-34-102-41-42-8-77 9-116 17-66 13-132 23-192-13-16-10-50-27-53-47-5-30 41-57 65-68 67-32 137 23 208 22 42 0 148 21 167-34 25-73-79-99-128-105-41-5-79-2-120 5-24 4-84 25-105 7-51-43 80-90 104-98h-144c-4 1-9 7-13 14zm-1697 1514c-4 28-3 49-34 52-18 2-66-18-81-26-44-25-89-106-65-157s88-25 123 1c41 32 50 81 57 130zm1279-527c-2 43-236 32-272 34l-490 19c-31 2-114 25-137 8-20-13-8-99-8-121V777c29 24 64 62 102 69 33 6 65-7 50-45-17-43-89-76-119-112-27-32-43-69-91-74-57-6-68 47-91 89-22 42-50 78-74 119-19 32-22 60 27 56 50-5 72-72 101-105 37 78 13 210 7 294-148 0-297 8-444 10-60 1-139 7-197-13-55-19-118-23-172-50-138-68-173-262-132-400a306 306 0 0 1 107-152 290 290 0 0 1 182-48c60 0 147 26 178 83 19 35 8 123 79 87 26-13 21-26 28-50 11-38 23-66 48-97 50-63 105-99 181-121 137-41 307-48 415 62a802 802 0 0 1 117 166c24 44 29 141 94 130 32-6 37-26 52-51a235 235 0 0 1 299-71c159 78 168 302 160 452zm872 631c-3 73-15 146-15 219 0 71 12 155-5 224-34-23-69-46-101-73-31-27-51-70-97-65-37 4-56 39-78 64-35 40-72 76-116 106 0-183 16-364 19-547 1-96 22-134 120-159 80-21 185-6 267 2 4 77 9 153 6 229zm518-1363c-10 59-84 158-149 98-20-19-46-72-30-98 19-33 96-38 128-48 16 8 31 16 46 26a24.7 24.7 0 0 1 5 22zm2 592c-50 12-100 3-153 0l-5-37a403 403 0 0 1 158-17v54zm-136-274c101 13 243-69 259-172 11-68-16-109-34-172-14-50-11-135 9-183 77-6 151-31 228-10 74 19 78 100 80 167l5 240c2 82 17 170 8 251-66 8-131 18-197 22-27 1-124 18-143-1-30-29 10-88-42-104-67-20-43 67-43 104l-150 11c-2-33-35-160 20-153zm-597-437l1 5-15 1v-4l14-2zM7778 26c20-3 52-3 62-26h-102a49 49 0 0 0 40 26zM6517 128c-3 113 2 226-1 339l-4 127c-1 16 2 39-3 54-4 12-21 10-18 26 20 49 109 26 149 27 25 1 48 1 73-2 32-4 54 3 86 3 103 0 206 11 311 1 51-5 102-8 153-5 62 4 74-3 77-67l5-131c1-12-3-44 4-55 13-21 10-13 34-13 28 0 54 9 83 7l75-2c72 1 145 4 217 7 44 2 88 5 132 2 71-6 64-21 56-87-10-77 21-64 90-65 23 0 146 14 113-46-17-31-118-15-150-15-18 0-60 10-76-1-21-14-30-62-51-82-50-50-102-72-172-48a183 183 0 0 0-116 108c-31 73-23 118 66 115 70-2 146-31 215-20l7 69c-1 4-3 8-7 9-78 5-157-6-236-3-76 3-155 6-230-5-18-3-42-4-53-20-18-26-10-105-17-138-16-71-39-152-105-191-51-30-147-30-194 11-65 56-93 151-97 233-1 25 3 53-1 77-1 9-16 40-8 51 17 25 78 16 105 17l129 4c21 1 40 9 61 9 18 0 35-8 52-6 0 28 9 201-16 210-58 6-116 3-174 9-54 5-106 3-159-2-53-6-112-9-164-8-26 1-50 10-76 10-11 0-61 0-68-5-30-16-27-62-25-92l7-172 5-373h-78c-1 44-5 87-6 129zm1128 133c21-50 38-99 100-106 43-5 84 42 100 83-65 11-130 23-200 23zm-379 96c-41 8-77 6-118 6-35 0-81 10-114-5-32-14-23-41-22-78a310 310 0 0 1 24-128c32-63 94-119 160-62 67 59 70 188 70 267zM9 1681c-1-12-4-24-9-35v110c9-23 12-47 9-75zM9042 229c2 68 11 134 10 202s-12 159 6 225c21 75 85 28 123-5 46-42 98-73 143-115 36 27 66 57 98 89 31 31 58 74 90 102 19 16 55 34 78 16 29-22 12-96 12-126l-6-316c-2-52-9-103-12-154-3-47 12-100 4-146h-84c15 98 8 204 16 304 9 105 6 213 6 318-41-29-73-60-108-97-25-27-46-69-87-74-43-5-60 33-89 58-34 30-72 54-109 80-23-89-2-195-10-286-8-101-12-201-10-302h-73l2 227zM3071 1945c20-15 41-27 62-40l20 405c-21 0-123-11-109 41 8 29 105 23 126 23 31 0 125 3 134-37 10-46-63-32-90-32-12-139-8-280-21-419-8-87-43-65-95-20-15 13-50 29-58 46-10 18 4 54 31 33z"/><path d="M471 2804c-46-22-101-4-149 1-24 3-40-4-62-5-21-2-68 19-84 13-27-10-14-85-10-111 6-37-4-28 31-36 20-5 45-2 65-2 32 0 81 17 110 0 33-21 35-83 37-118 9-121 3-240 3-361 62 9 126-6 189-4 67 2 131 5 197-11 136-33 172-139 187-266 8-71 2-142 1-213-1-69 6-138 4-207-4-134-9-265 1-399 39 49 72 100 106 152 30 46 98 114 109 167 10 49-33 111-30 164 3 60 28 117 58 169 31 37 73-12 100-28 35-21 128-30 138-79 8-41-48-92-69-124-19-29-82-91-63-125 18-31 95-26 123-19 50 11 83 46 111 87 29 42 52 87 77 132 10 18 31 41 24 59-6 16-73 39-86 46-46 26-90 59-137 82-37 18-93 25-116 63-26 44 7 71 31 105 31 46 59 95 89 142 59 94 113 191 198 265 84 73 139 59 228-3 107-75 127-215 84-334-42-117-104-232-158-345 120-56 253-115 362-190 49-34 39-81-29-79-65 2-150 77-204 109-36 21-136 94-173 73-19-11-39-71-51-92-21-37-43-74-67-109-81-120-255-140-367-48-52-86-110-169-169-251-20-28-53-84-83-102-39-23-47 14-83 16-64-10-49 69-53 103-7 67-6 132-5 200l4 433c0 102 22 315-92 364-52 23-128 13-184 12-33-1-192 31-205-11-5-97-4-195-2-292 2-93 24-208 3-299-22-92-78-141-171-140-80 1-156-11-235-12v80c51 0 100 7 151 8 32 1 80-9 109 8 72 42 46 180 49 248 4 95 0 191-3 286-1 26 3 58-3 83-6 28 4 23-22 35-22 10-58-1-81-1l-108 2c-46-23-82-9-92 29v305c117 58 88-145 92-196 3-40 5-55 43-61 55-9 119-1 175-1 10 90 9 176 6 267-1 34 13 100-1 131-13 29-45 21-77 21-72 1-157-23-166 72-4 41 2 84-4 125-11 45-29 33-72 33v81l56 2c3 1 5 4 6 7h98c0-30 55-25 75-25 54 1 101-6 154-16v41h96c3-29 19-90-14-106zm1064-790c-42-32-51-80-78-117l4-7 113 30-39 94zm53-159c-24-6-47-14-70-24 39-20 66-61 119-60l-38 80c-2 3-7 4-11 4zm89 359c-30-10-77-71-78-100l100 15c4 2 6 6 6 11l-28 74zm212-4c0 38-84 105-118 95-51-15 14-114 26-141 23 8 93 16 92 46zm-25-172l29 74-6 6-61-25 38-55zm-167-174c13-32 26-73 43-103l68 146-4 6c-34-10-67-20-101-32-4-4-7-11-6-17zm68 109c25 8-15 73-22 88l-117-16c7-17 30-100 51-100 29 8 58 19 88 28zm-489-473l78 115c-34 16-44 31-67 4s-18-85-20-116l9-3zm7437 1350c-21-12-25-38-49-50-20-10-49-15-71-23a451 451 0 0 0-206-28c-60 6-107 26-155 60-19 13-32 31-50 45-26 20-52 28-73 56h84c67-56 126-111 219-111 106 0 199 41 278 111h88a247 247 0 0 0-65-60zm-2113-113c-8-58-66-51-71 1-5 56 6 117 12 172h74c-2-58-13-115-15-173zm3545-41c-36-20-94-5-133-6-44-1-85-5-129-3-20 1-89-16-105 4-36 42 49 55 68 59a2310 2310 0 0 1 186-6c30 0 67 6 96-2 20-7 52-27 17-46zm-4223-4c102-17 200-36 304-35 96 2 190-22 286-28 39-3 65-1 79-37 13-35 0-103-4-138-4-37-2-68-39-81-36-13-97 5-135 8-89 7-178 11-267 16-84 4-170 0-253 9-81 8-167 10-249 4-38-3-257 19-270-21-20-131 37-270-2-400-16-53-63-101-123-78s-113 97-168 134l-159 111c-14 9-63 25-51 51 13 28 57 7 74-2 123-63 237-160 341-251 41 64 33 159 29 232l-5 118c0 26 11 81-3 101l-9 1c-40-14-85 8-124 12a890 890 0 0 1-103 6c-42 0-74-5-109 21a219 219 0 0 0-75 93c-27 89 48 174 103 234 60 65 135 94 208 140h152c22-75 15-158 24-235 4-33 6-66 5-100 0-23-14-80-3-101s14-14 36-14c36 0 74 5 112 5 61 0 124 11 184 8 122-7 244-3 368-10l445-25c2 22 23 107 10 127-12 17-63 14-83 16-97 11-188 20-285 20-52 0-107 12-160 19-43 6-98 6-139 22-55 22-20 42-10 85 12 55 1 127 2 184h69l-3-221zm-609-44c-8 85 6 180-23 261-100-63-436-228-330-395 43-67 175-32 245-42 36-5 85-34 106 10 21 41 7 122 2 166zm5545 222c-93-46-166-25-241 40h107c28-21 65-16 93 0h99a167 167 0 0 0-58-40zm-896-28c-24-10-221-48-191 15 23 31 94 25 128 27 10 1 117-6 63-42zm500-5c8-66 5-141 5-208 0-21 8-74-8-89-17-16-70-12-59 22-4 116-9 231-5 348h68l-1-73zm-8479-3c-102-171-334-70-399 76h101c24-36 89-91 134-93 54-3 89 56 118 93h105c-12-30-43-48-59-76zm2818-317c-6-48-11-95-11-144 0-43-10-93 3-134a70 70 0 0 0-3-20c-91-16-190-2-277 23-45 13-45 20-44 67l2 289c0 34-11 79 22 100 30 19 113 2 146-4 27-5 57-10 38-47-45-24-91-1-138-3-3-63-3-126-4-188 0-30-19-144 10-161 56-15 118-35 176-27 14 214 15 428 24 642h64c-3-126 13-269-8-393zm-3712 322c-24-15-39 0-63 3-25 3-48-5-73 0a220 220 0 0 0-119 68h389c-38-32-91-47-134-71zm2378-934c21-14 41-31 57-50l6 2c6 147 14 292 26 439-24-1-71-10-83 21-13 33 26 37 50 38 54 3 179 14 197-54-26-35-61-8-97-14a5199 5199 0 0 1-33-432c-2-61-6-105-74-59-24 16-60 43-76 69-12 21-7 57 27 40zm6806 636l-54-4v2c-84 0-167 0-250-3-31-1-113-12-140 12-32 28 1 49 34 51 38 3 81-7 120-6l134 1c42-1 85-3 127-8 14-2 40 1 47-14 6-13-2-28-18-31zm-6941 227c-12-90-263-29-323-26-39 2-131-10-164 14-28 20-8 122-6 154h61c-2-35-2-69-3-106 95-10 191-17 286-24 28-2 78-15 93 17 16 34-20 81 13 113h46c10-41-1-100-3-142zm-617 23c-3-47-23-122-7-168s64-28 107-30c101-4 206 6 305-1 103-8 211-26 314-26 51 0 105 7 156 9 62 3 119-8 180-15 99-30 171-55 212-158 15-37 11-79 16-118 6-56 15-111 9-168-6-55-15-110-18-166-2-49 10-97 4-145-6-55-10-115-28-168-9-27-50-101-90-85-21 15-86-15-114-16-48-1-94-4-142 1-97 11-192 16-289 23-85 7-170 20-255 16-77-4-147 23-224 29-181 14-210 219-209 371l1 150c0 45-12 89-12 134 1 91 9 182 15 273-67 8-133 8-201 10-31 1-150-17-156 10-15 71 307 35 349 40 6 105 11 210 12 316h66c1-39 1-78-1-118zm-14-615c8-133-4-257 29-388 30-120 128-123 233-142 64-12 125-10 190-11 67-1 132-13 199-15 123-3 243-25 366-26 55-1 124 0 172 33 43 30 36 100 42 147 7 57-4 111-1 169 3 70 18 139 20 209 2 93 4 249-82 309-43 31-119 40-171 50-65 13-121 7-186 1-132-11-270 12-402 21-129 9-266 3-397 1a1716 1716 0 0 1-12-358z"/></svg>