<svg xmlns="http://www.w3.org/2000/svg" viewBox="0 0 1920 291"><g fill="#202124" opacity=".15"><path d="M1644.9 282c-4.2-3.3-9.1-5.9-14.6-4.4-5.6 1.5-7.4 6.4-11.2 10-5.9-5.6-7.9-10.6-17.5-9.5-8 .9-13.6 5.7-16.9 12.9h8.9c2.4-3.5 6.4-7.2 10.9-7.4 4.8-.3 7.5 3.8 9.9 7.4h11.4c2.1-3.2 5.5-8.4 9.8-8.2 4.2.2 7.2 5.3 9.3 8.2h7.2a35.2 35.2 0 0 0-7.2-9zM1721.8 281.4a47.4 47.4 0 0 0-34.9-9.1c-10.9 1-20.5 9.3-25.7 18.6h9.5a30.7 30.7 0 0 1 24.3-12.2c10.9-.1 20.8 2.2 26.6 12.2h7.5a33.5 33.5 0 0 0-7.3-9.5zM97.2 2.8c-4.1-1.1-12.4 1-9.5 6.5 3.6 6.8 10.2.5 10.6-4.5-.2-.4-.5-1.8-1.1-2zM1912.9 128.6c-4.2 14.3-2.4 27.5-3.6 42-1 12.4-.4 24.4.4 36.9-6.7.8-13.3.8-20.1 1-3.1.1-15-1.7-15.6 1-1.5 7.1 30.7 3.5 34.9 4 1.4 25.8 1.2 51.8 3.7 77.6h6.9c-1.8-13.9-2.1-27.9-2.6-41.9-.3-7.4-.5-14.9-.9-22.3-.3-5-2.8-12.8 3.9-13.4v-5.7a46 46 0 0 0-3.8-.2c-2-13.3-1.4-26.3-1-39.6.4-12.8-2.2-28.7 4.7-40.5V118c-3.6 2.2-5.6 6.3-6.9 10.6zM1791.4 283.4c5.8.8 11.6 1.3 17.5 1.6 3 .2 5.7.1 8.6-.2 2.7-.3 9.4.2 11.5-1.6 3.2-4.9 1.3-13.3 1.9-18.8.7-6.6 3.6-5 9.5-4.8 6.3.2 12.8-1.1 19-.6 2 .2 18.2 4.3 14.1-3.8-2.7-3.3-10.9-2.3-14.8-2.7-6.2-.6-11.9.5-18.1.5-4.4 0-9.2-1.8-13.3.4-4.5 2.4-3.5 8.3-3.7 12.8-.1 2.6.5 6.4-.3 8.8-.8 2.7 0 1.5-3.1 2.3-5 1.3-10.7 1.3-15.9 1-5.3-.3-12.1-2.3-17.4-1.5-6.7 1.1-4.8 9.1-4.7 14.1h7.2c0-2-1.3-8 2-7.5zM1907.5 79.6c1.1 6.4 1.6 12.7 2.3 19.1.7 7.2 4 6.1 10.2 5.1v-5.5l-.5.2c-.9.2-1.9.2-2.8.1l-2.5-18.4c1.8-.3 3.7-1 5.8-1.1v-5.2c-3.2.1-13.5.4-12.5 5.7zM1912 54c-2.6.2-2.3 3.2-1.2 4.3 2 2 6.7.6 9.2 2.6v-6.5c-2.5-.7-5.2-.6-8-.4zM1547.4 275.4c-9.4-9.1-22.7-17.3-35.9-12.1a36.5 36.5 0 0 0-24 27.7h7.5c1.6-10.8 12.9-25.2 25.3-23.3a41.4 41.4 0 0 1 28.8 23.3h8.1a32.7 32.7 0 0 0-9.8-15.6zM1114 285c-.6-13.4.8-27.7-7.1-39.2-8.4-12.3-22.6-9.1-35.4-10.8l-1.4-.2c-3 .6-6.4-1-9.6-1l-9.9.2c-6.4.1-13 .4-19.3.3-13.1-.2-27.1-.8-40.1 0-12.3.7-28.4-1.1-31.2 14.8a80.9 80.9 0 0 0-1.2 20.8c.7 7 .2 14.1 1.5 21.1h7c-2-14.1-2.2-27.9-.7-42l-.3-.1c1.8-8.7 8.6-8.1 15.9-8.4 6.9-.3 13.8-.3 20.6-.3 15.5 0 31.1 0 46.6-.7 7.6-.3 15.1.9 22.6 1.6 8.2.7 17.2-.6 24.4 4 14 8.9 9.3 31.9 10.4 45.8h7.2V285zM1227.9 284.2c0-3.5-2.4-7.1-1.9-10.5.3-2.6 2.7-4.2 4.1-6.4a23 23 0 0 0 1.9-18.7 28.4 28.4 0 0 0-28.1-19.8c-30.8 1.2-31.7 38.8-34.8 62.2h6.8c.9-10.3 2.5-20.6 5-30.7 2.3-9.2 4.7-20.7 14.5-24.8 6.8-2.9 20.3-1.1 24.8 4.9 4.8 6.4 9.6 18.1 2.9 24.8-3.7-7.7-6.5-12.4-15.4-14-8.1-1.5-15.2 2.2-13.6 11.5 1.6 9 8.7 12.2 17 13.1 3.3.4 6.5-1.2 8.3 1 1.8 2.3 1.8 11.4 2 14.1h7.1c-.2-2.2-.8-4.4-.6-6.7zm-11.3-14c-5.6 1.3-11.9 1-14.7-4.8-2.2-4.6-1.6-9.4 3.8-9.8v.1c5.8-.6 13.7 13.9 10.9 14.5z"/><path d="M1085.6 259.6c-2.7-5.1-7.9-6.8-13.6-5.5-6.6 1.5-9 5.5-10.6 11.8 2.2 7.7 6.3 13.6 15.6 11.8 5.1-1 11.7-6.9 10-12.8-.2-1.8-.6-3.6-1.4-5.3zm-5.7 6.9c-.2 3.8-4.7 7.4-8.4 5.4-2.5-1.3-4.9-10.1-.5-9.3.2-2.4 3.1-4.2 5.4-3.5 2.9.8 3.8 4.6 3.5 7.4zM1427.9 280.3c-5.7-2-10.8-.2-16.4.5-5.3.6-10.4-.7-15.7-.5-4.1.1-8.9.8-12.8 1.6-5 1-9.5.5-14.6.8-17.8 1.1-35.9 2.3-53.8 1.5.1 2.5.7 4.3.1 6.9h5.4V290c5-.7 9.8.4 14.6-.1 4.2-.5 8.4-.1 12.7-.3l12.7-.4c2.8 0 8.3.8 10.6-.7 3.6-1.2 8.9.8 12.7.6 2.2-.1 3.1-1.4 5.1-1.9 2.2-.6 4.6-.1 6.9-.4 4.6-.6 8.7-.2 13.4 0 5.3.3 9.7-.6 14.9-1.5l.6 5.8h7.3c-.3-3.9.7-9.3-3.7-10.8z"/><path d="M1443.2 267.6c-4.5-5-11.2-4.4-17.2-3.8-3.3.3-6.4 1.3-9.7 1.7-3.7.5-6.8-1-10.3-1-5.4-.1-10.9 1.9-16.5 2h-9.6c-3.9 0-8.3-1.5-12 .4-3.4 1-8.5.9-12.1 1.3-3.8.4-7.7 1.3-11.5 1.1-7.4-.4-13.1-3-20.8-2.2-6.6.7-14.9.6-20.3 4.9-5.5 4.4-7 12.3-7.3 18.9h8c.2-4.1.8-11.7 4.6-14.5 2.8-2.1 7.8-2.1 11.3-2.6 4.8-.7 9.2-1 14 .1a40.7 40.7 0 0 0 15.9 1.4 213 213 0 0 1 29.9-2.7c4.5 0 9 .2 13.4.1 4.2-.1 10.8-2.7 14.5-.8 8.3 2.1 17.7-4.8 25.8-1.9 7.1 2.6 8.7 14.4 9.3 20.9h7.5c-.6-7.8-1.7-16.9-6.9-23.3zM1259.1 276.2c-.7-21.1-5.3-54.2-28.7-62.6-5.6-2-12.7-3-18.6-3.6-5.3-.5-10.7 1.3-15.9 2-6 .8-11.8 2.4-17.8 2.6-2.7.1-5.1-.7-7.8-.6l-10.9.8c-4.6.3-11.4 3-15.9 1.6-2.6-.8-2-1-2-3.9 0-4.3-.2-8.6-.5-13-.6-9.1.9-23.1-5.6-30.6a23.4 23.4 0 0 0-15.1-6.1c-6.5.1-13-.4-19.7-.7-5.9-.3-12.9-.6-17.8 3.4-4.8 3.9-5 9.8-5.1 15.6-.1 6.8 1.3 13.2 1.2 20-.1 6.3.1 12.2 5.3 16.5 10.4 8.7 27.9 4.2 40.3 5.1 2.1.6 7.7-.8 9 .3 1.5 1.2.8 5.2.8 7.3v18.3c-.1 14 1.8 28.3.4 42.3h6.9c1.1-11.2.5-23.2-.2-34.4-.3-5.2-.2-10.4-.2-15.6v-9.2c0-1.1-.6-7.3 0-8.2 1.6-2.2 8.2-1.3 10.8-1.7 4.6-.7 9.1-1.2 13.7-1.5 4.4-.3 8.8-.2 13.3-.6 5.5-.4 10.7-1.5 16.2-2.1 4.7-.5 9.4 0 14 .8 1.3.2 3.2.6 4.6.6 1.9 0 2.7-.8 4.3-1.1 9.2-1.8 17 4.5 22.3 12.2 12.4 18 11.2 40.1 11.7 60.8h6.9c-.1-4.8.3-9.7.1-14.7zM1131 217c-11.2-.5-23.4.5-34.5-1.4-3.8-.6-7.2-2.4-9.5-5.7-3.1-4.6-1.3-11-1.6-16.3-.4-6.6-5.4-22.5 3-25.2 4.4-1.4 10.4-.6 15-.3s11.4 2.7 15.6.8c2.9-.6 8.8 2.2 10.7 4.5 2.9 3.4 1.7 8.8 3.8 12.6 1.7 5.5.3 13.4.5 19.2.4 3.7 2.9 12.1-3 11.8z"/><path d="M1125.3 188.6c-4.4-2.9-11.8 1.4-11.5-5.1h-.1c.4-4 1.4-9.3-4.7-8-4.2 1.7.3 9.5-3.8 11.1-2.2.9-12.6-3.2-11.6 2 0 6.5 9.9 1.1 12.6 3.9 2.7 2.8-3.2 13 4.5 12 6.3-.9.5-8.1 2.9-11.5 1.3-1.8 5.8-.3 7.9-.5 1.3 0 7.6-1.5 3.8-3.9zM155.3 14.3c-1.7.5-3.4 1.2-5.1 1.9-3 2.3 1 6.2 3.6 6.3 2.5-.4 5.7-.4 6.3-3.4.5-2.3-2.3-5.6-4.8-4.8zM112.9 242.8c-10-4.1-23.4 1.1-26.1 11.8-2.9 11.5 6.7 20.7 17.5 20.8 6.9-2.6 13.2-3.9 15.2-12.1 1.7-7.3 1.6-17.3-6.6-20.5zm-2.3 20.4c-3.6 10.5-20.5-1.6-13.6-11.8 1.1-1 5.5.1 7.1-.1 1.9-.2 1.9-1.6 4.1-.9 4.5 1.6 3.4 9.6 2.4 12.8zM1611.1 260.7c-1.6-1.8-6.8-4.1-9.2-2-3.7 3.2 1.7 7.6 4.8 7.9 2.7-.3 6.6-3.4 4.4-5.9zM918.5 125.4c6.2 1.3 13.6-5.6 18.1-9 1.7-1.3 5.4-3 4-5.8-.7-1.4-5.5-3.4-7-4.5-3.3-2.3-11.6-9.1-16.1-6.8-4.2 2.2-1.5 17.8-1.4 22.2h.1c-.3 1.8.3 3.6 2.3 3.9zm3.8-19.3c2.5 1.1 9.5 4.4 8.9 7.1-.5 2.4-6 4.4-7.7 5.8l-1.2.6v-13.5zM1569.4 119.5c-2.1 2.7-4.2 5.3-5.9 8.3-2.3 4.1-2.6 8.1-4.2 12.3-1.5 3.8-1.1 1.8-4.9 1.9-3.5.1-5.6 2.3-7.5 5-9.3 13.4-6 28.8-3.2 43.9 2.6 14.2 10.3 30 24.6 35.5 6.3 2.4 14.8 2.4 21.5 2.9 4.3.3 8.8.8 13.1.6 3.6-.2 7-2.2 10.6-1.6-10.4 13.1-31.2 16-46 10.3a44.6 44.6 0 0 1-27-26.3c-1.3-3.1-2.1-6.6-5.5-8-3.8 3.6.3 12.4 2.4 16.4a42.3 42.3 0 0 0 13.9 15.2 52.6 52.6 0 0 0 39.2 10.2 65.1 65.1 0 0 0 31.8-18.3c9.2-8.7 21-12.4 31.4-19.2 19.1-12.6 35-30.9 43.2-52.3 1.2-3.1 1.1-3.3 4.2-4.2 2.2-.6 4.7-.3 6.9-.4 6.7-.3 13.2.6 20 .2 6.5-.3 12.9-1.6 19.3-2.4 2.9-.4 5.8-.4 8.6-.1 3.5.3 6.3-.3 9.8-.6a49.2 49.2 0 0 1 40.1 17.4 47.5 47.5 0 0 1 8.8 18.9c1 4.4 1 4.8-3.6 5.3-4.2.5-8.5 0-12.7.2-2-9.4-6.8-19.6-14.4-25.5-9.5-7.4-18.2-10.7-30.4-6.6a46.9 46.9 0 0 0-24.9 23.7c-1 2-2.3 6.7-4.2 8-1.6 1-6.5 0-8.5.1-1.9.1-14.7-1.2-11.4 3.5 5 4.7 11.3 1.5 17.5 3-2 10.1-2.2 20.3.7 30.4-10.5 1.7-21.5-.5-31.7 3a31.2 31.2 0 0 0-14.1 8.3c-2.5 3-5.2 9.6-3.2 13.4 2.8 8.9 14.8 16 23.2 10 3.9-2.7 6.6-6.8 7.3-11.5.6-4.1.8-13.1-5.9-11.6-4.6 1-1.1 4.6-1 8.2.1 4.3-3.2 10.5-7.9 11.4-4.3.9-8-3.3-9-7-1.7-6.1 2.1-9.5 7-12.1a69.8 69.8 0 0 1 32.3-6.1c5.9-.1 6.2 5.1 9.4 9.2 3.7 4.9 8.4 9 13.6 12.2a50 50 0 0 0 34.8 6c4.4-.9 9.2-.7 13.4-1.9 4.9-1.3 9.8-6.5 13.6-9.8 2-1.8 4-3.6 5.7-5.7 1.7-2.2 3-6.5 5.2-8.2 3.7-3 13.9-1.2 18.8-1.8 2.8-.4 11.6-3.6 6.1-5.8-2.3-.9-7.8.4-10.3.5h-11.1a95.1 95.1 0 0 0 4.3-27.5c0-4.8-.2-4.8 4.5-5.1 4.6-.3 8.9-1 13.4-2.3 17.3-4.8 28.9-15.3 30.1-34.1 1.2-18.5 2.1-36.9 2.5-55.4.2-8.9 1.4-18.4.1-27.2-1.3-8.3-8.1-15-14.5-19.8-7-5.3-13.3-6.5-21.9-7.5a171.4 171.4 0 0 0-32.8-.9c-8.7.7-17.7 3-26.5 2.7-9.9-.3-18.6-1.6-28.6.3-7.3 1.4-14.3 5.1-17.3 12.2-3.8 9-1.4 19.2-1.3 28.6.2 8.8-1.2 19.6 3 27.8 4.4 8.5 15.9 9.4 24.4 9.4 10.3 0 20.6-.4 31-.4 10.3 0 20.5 0 30.8-.3 3.9-.1 9.6-1.3 13.2.8 3 1.7 6 6.3 7.8 9.1 2.7 4.1 14.1 26 19.9 17.1a184.7 184.7 0 0 0-21.4-29.1c-1.9-2.1-2.7-3.6-5.4-4.3-2.1-.6-2.6.2-4.7.4-5.9.6-12.7-.2-18.7-.1h-39.1c-6.6-.1-13.3.5-19.9-.1-7.9-.7-10.1-2.4-11.4-10.1-1.1-6.1-.6-11.9-.7-18.1-.1-6.4-1.6-12.9-1.2-19.3 1.1-14.8 11.4-18.7 25-18.9 5.8-.1 11.5 1.4 17.2 1.1 6.8-.3 13.5-1.7 20.2-2.4 13.4-1.4 27.2-.6 40.5 1 13.4 1.6 25.7 10.6 25.7 25 0 7.7-.4 15.5-.6 23.2-.1 6.3.5 14.9-1.1 20.9-1.1 21 4.3 51.7-20.9 60.4-5.9 2-12.1 4-18.3 4-5.8.1-4.3-5.2-5.8-10.1a51.2 51.2 0 0 0-22.9-28c-6.3-6.1-20.3-7.6-28.7-8.1-9.4-.6-21.3 3.8-30.2.4-4.1 3.6-12.7 3.6-18.1 3.1-6.6-.5-13-.7-19.7-.3a176.3 176.3 0 0 0 10.4-57.1c.1-10.5 1.2-20.9 1.1-31.5-.1-9.8 1.7-21.3-.9-30.9-2.7-9.9-15.2-9.8-23.3-10.7-4.9-.6-9.9-.3-14.8-.7-5.2-.4-9.8-.9-14.2 2.3-7.5 5.4-9.5 17.3-10.8 25.7-.2 1.7.2 6.6-.6 7.6-1.4 1.7-.1.1-2.7.8-3.7.9-14.1-2.1-16.5 1.4-.2.7-.1 1.5.4 2 2.6 2.1 4.5 1.9 7.7 1.8 2.1-.1 8.8-.8 10.3.8 2.1 2.3.3 12.3.6 15.8-4 0-16.3-2.5-19.3.5-4 3.9 3.3 4.9 6.2 4.8 2.6-.1 11.1-1.1 13.2 1 2.1 2.1-.2 11.4.3 14.3-.7 5-21.2-3.3-20.9 3 .2 5.3 17.1 3.9 20.5 3.9.9 13.8-3.3 31.1 7.5 42 9.4 9.5 23.1 10.4 35.7 9.5a98.5 98.5 0 0 1-23.4 36.8 136 136 0 0 1-34.8 24.3l-.2-.3c2.3-4 5-8 6.9-12.2 2.4-5.5 3.1-11.4 4.1-17.3.8-4.7 1.3-10.8-2.8-14.2-4.7-3.9-9.8.4-14.1 2.6 1-6.4 1.4-12.8 1.7-19.3.4-6.2.9-12.8 0-18.9-.9-5.9-.6-12-6.3-15.7-5.9-3.7-10.5 2.7-14.1 6.7-.9-7.1-.2-20.9-8.2-23.3-11.8-3.6-18.2 9.7-20.3 19.1-3-.9-7-4.7-9.8-1.1zm222.6 77.1c.6 5.6 1.1 11.1 1 16.7-.1 3.1.2 11.5-2.5 13.9-2 1.7-11.8.6-14.5.9-3.3.3-10 2.5-12.6-.2-2.5-2.6-1.8-13.7-1.6-16.9.2-3.1-.7-9.5 1.5-11.8 2.1-2.1 8.3-.3 11-.5 5.8-.3 11.8-.9 17.7-2.1zm-4.2 37.3a18.2 18.2 0 0 1-6.3 7.2c-1 .7-4.6 3.6-5.7 3.8-4.6.8-9.3-6.4-10.5-10 7.4 0 14.9-2.1 22.3-1.5l.2.5zm-53.9-45.6c6.2-13.9 16.5-24.9 32.2-26.3 4.2.4 7.8 3.3 11.1 5.5 3.9 2.6 4.1 4.6 7.2 7.9a43 43 0 0 1 6.5 15.1 107 107 0 0 1-25.9 2c-.5-1 2.1-6.9 2.5-8 1.2-3.4 3-6.1 5.1-9l.2.3-.7-2.6.3-.4c-5.1-.5-6.8-.5-9.9 4.1-3 4.4-4.5 9.7-6.2 14.6-7.8 1.1-15.7.2-23.5-.4.3-1 .6-1.9 1.1-2.8zm-3.1 39.2c-1-5.6-2.3-10.3-2.2-16.1.1-3.2-.8-10.1 1.2-12.6 1.9-2.4 5.8-1.7 8.8-1.6 5.2.2 10.6 1.3 15.9 1a77 77 0 0 0-1 14.4c0 2.5 2.9 13 1.3 15.1-1.3 1.8-23.7 2.2-24-.2zm67.4 19.5c-9.4 8-21.6 10-33.8 8.2a41.5 41.5 0 0 1-31-20.3c4.4-.5 8.9 0 13.4-.4 2.3-.2 6.7-1.8 8.9-.5 2.3 1.3 3 5.4 4.4 7.5 2.3 3.7 5.2 5.8 9 7.8 6.8 3.5 14.4-2.3 19.8-6.7 2.7-2.2 3.9-7.1 6.6-8.7 2.6-1.6 9.3.4 12.4.8a39 39 0 0 1-9.7 12.3zm17.5-50c.7 10 .2 20.9-3.9 30.2-2 3.1-11 1.5-13.8.9 3.2-10.3 1.6-20.5 1.1-31.2 2.2-.1 16.5-1.8 16.6.1zm-125-51c-2.8-.1-12 2.2-13.4-.7-3.7-2.6-3.3-.5-7.2-.4-3.4.1-7.1-3.6-9.1-6-5.2-6.6-5-13.9-5.6-21.8-.3-4-.3-7.8 0-11.9.3-4.2.8-4.2 5.3-4.6l9.9-.7c1.5-.1 5 .6 6.5-.2 1.2-.7 1.1-2 2.1-2.9-3-6-17.8-2-23.3-1.7V79.8c5.7.3 12.5 1.6 18 1.1 1.1.1 2.2.1 3.3-.1 1-.3 1.9-.7 2.7-1.2-1.9-8.4-17.2-4.4-23.6-5.6-3-1.3-.4-13.4-.5-16 4.4-.4 8.9-.2 13.3-.4 4.2-.2 5.1-.2 7.3-3.2-4.3-3-7.6-2.8-12.8-2.6-2.7.1-6.4 1.5-7.9-.7-1.8-2.5 1.6-13.9 2.4-17a23 23 0 0 1 4.7-10.1c5.8-6.4 17.8-3.3 25.6-3.2 3.7.1 10.5 0 13.6 2.3 3.8 2.8 3.1 9.6 3.4 13.7 1.4 21.1-.5 43-1.9 63.9-.5 6.6-3.3 46.1-12.8 45.3zM1572 124.6c2.2-2 3.4 4.5 3.7 5.7.7 3.3.2 5.9-.2 9.2-.9 6.8-1.2 13.7-1.6 20.6-.2 4.2-2.2 15.1 1.8 18.3 4.6 3.7 7.3-4.5 7.9-7.6 1.2-5.9 1-12.8.9-18.8 0-6.6-1.8-13.6-1.2-20.1.4-4.8 5.1-29.2 13.2-26.1 2.9 1.1 3.9 13.2 4 16 .3 5.3 1.3 10.4.9 15.8-.4 6.7-3.1 13-4.6 19.4-.9 3.8-4.5 16.1-1.7 19.3 7.2 8.5 10.6-19.9 11-22.4 1.7-10.2 2.1-23.9 10.7-31.2.3-.1.7-.1 1 .1 4 5.8 4.1 14.2 3.7 21.1-.5 7.9-.2 15.7-1 23.5a44.6 44.6 0 0 1-6.1 19.6c-2 3.4-10.3 16.7-6 20.3 7.4 4.1 11.8-13.4 13.2-17.9 1.2-3.9 1.9-7.8 5-10.7 1.2-1.1 6.7-5.7 8.1-5.2 5.8 2 .9 17.6-.3 21.6-2 6.9-7.2 12.7-9.1 19.4-3 2.9-4.2 4.4-8.3 5.7-3.5 1.2-6.9 2.3-10.5 3.2-4.7 1.1-9 1-13.8.7-2.9-.2-10.3.5-12.3-2.4-16.3 1.1-24-15.5-28.4-28.4-2.5-7.4-4-16-4.3-23.7-.3-8.8 1.7-15 6.3-22.3 4.1 8 1.2 16.2 1.9 24.8.3 3.1-.2 11.1 3.2 12.8 4.3 2.2 6-3.6 6.2-6.6.6-9.6-2.2-19.3-.9-28.8 1-7.5 1.5-19.1 7.6-24.9z"/><path d="M1773.6 86.2c-1.1-2.5-1.9-6.2-4.3-7.7a22.2 22.2 0 0 0-11.1-1.9c-6.4 1.3-11.8 9-10.5 15.3 1.3 6.3 7 11 13.4 11 9.6-.1 12.6-7.8 12.8-16.1l-.3-.6zm-8.1 7.5c-2.7 4.6-7.7 4.1-9.8-.7-1.6-3.8 1.8-10.8 6.5-10.8 5 0 5.4 8.2 3.3 11.5zM1810.6 81.3c-1.2-2.5-6.7-3.3-9.2-4.2-3.6-1.3-6.7-1.7-10.1.1-5.9 3.1-9.5 9.1-6.2 15.4 3.2 6 9.7 9.5 16.5 7.7 5.2-1.3 10.6-7.6 9.7-13.3.1-1.7.1-4.2-.7-5.7zm-6.3 4.9c.2 9.2-13 11.9-12.9 2 .2-7.9 14.2-8.9 12.9-2zM1846.6 81.5c-.3 0-2.7-3.6-2.9-3.8-1.6-1.4-4.4-2.2-6.3-2.8-4.1-1.3-6-.5-9.7 1.6-6.1 3.6-9.8 10.5-5.5 17.2 3.5 5.5 11.8 8.6 17.7 5.3 3-1.7 5.4-4.8 6.7-8 .4-1.2 2.8-9.8 0-9.5zm-6.5 4.5c-.4 2.6-2.2 7.1-4.9 8-3.4 1.2-7.5-2.5-7-6-.1-8.5 13.6-11 11.9-2zM1642.6 258.9c-2.5-5.2-12.1.8-7.2 6 2 2.1 5.7 1.7 8 .2 3.7-2.3 1.3-2.8-.8-6.2zM394.4 87.9a40.9 40.9 0 0 0-16.9 15.3c-2.2-3.7-4.6-8.5-9.4-8.9-5.4-.5-7.8 4.2-11.5 7.1-3-11.1-18.1-7.9-22.9-.2-3.5-3.2-6.5-7.8-11.6-7.4-4.6.4-8.1 4.6-12 5.3a18.5 18.5 0 0 0-16.3-4.7c-5.7 1.4-8.2 7.4-10.8 12-3.1-3.3-5.6-5.7-10.3-6.3-2.1-.3-10.3-.3-7.5 4.1.9 1.4 5.7 1.1 7.2 1.6 2.5.9 3.5 2.2 5.1 4.2 2.2 2.7 3.9 7.3-.1 9.7-3.8 2.3-10-.9-13.5 3.1-2.9 3.2.1 9.8.4 13.9.3 3.5-.6 11.6 2.6 13.8 3 2 14.1-1.3 17.8-1.5 11.1-.6 22.6-1.9 33.7-1.8 11.3.1 22.5-1.9 33.7-1.7 11.9.2 23.9-1.1 35.8-1.9 4.1-.3 7.2.5 8.3-4 1.2-4.9-.5-12-.8-17-.1-2 .4-6.4-1.3-7.9-2.1-1.9-3.6.2-5.8.7-4.5 1-7.4.5-7.8-4.6-.3-5.2 3.2-7.7 6.5-10.9 1.8-1.8 3.1-3.7 5.1-5.2 2.1-1.6 4.7-2.4 6-4.9-1-2.8-1.3-2.9-3.7-1.9zm-32.6 15.5l3.5-2.2c4.2 1.1 8.6 6.4 8.9 10.8.4 6-10 4.9-14.2 5.4-1.3-4.6-3-10.8 1.8-14zm-23.6-.7c2.7-5.4 10-3.8 12.3.6 1.9 3.7 2.1 12.4-2.2 15-1.9 1.1-8.7 1.1-10.4-.4-3.7-3.3-1.6-11.8.3-15.2zm-23.7-1.6c1.2-1.5 6.1-3.5 8-2.6 3.8 3 7.9 6.5 7.3 11.6-.5 4.3-1.5 7.9-5.7 8.1-1.5.1-8 .7-9.1.2-2-1-1.6-.6-2.1-3.5-1-4.7-1.8-9.9 1.6-13.8zm-7.6 25.6l-.5-2.8c1.5.8 1.5.8.5 2.8zm-18.3-20.6c3.3-5.1 4.8-8.2 11.7-6.2 7.7 2.2 5.3 7.8 3.4 13.7-1.7 5.4-6.7 7.9-12.5 5.5-5.1-2.1-5.5-8.6-2.6-13zm-4.7 18.6l.4 2.5-.6.1-.6-2.5.8-.1zm97.7-1.4l.5-1.5 6.3-.3c.7 5.3 1.6 10.4 1 15.7-4 2-10.5 1.3-14.9 1.7-4.3.4-8.5.6-12.8.7-10 .4-19.9 1.4-29.9 1.9-9.7.5-19.4.2-29.1 1.2-8.7.9-20-1.5-28.2 1.9-.9.2-1.9.2-2.8.1l-2.5-18.4c2.5-.5 5.3-1.7 8.5-.7.5 3.5.5 7.9 4.9 8.3 4.5.4 7.6-5.2 7.4-9h10.9c0 3.7.6 7.8 5.1 7.8 4.6 0 6-5.6 7.8-9 2.5-.1 9.3-1.4 11 .8 2 2.6-.8 5.8 4.1 6.6 5 .8 4.7-3.9 7.8-6.1 2.8-1.9 7.6-.6 10.8-.6 0 2.1-.5 4.6 1.2 6.1 2.5 2.3 5.6.8 7.4-1.2 1.7-1.8 2-4.9 4.2-6.2 2.4-1.5 8.1-1 10.9-1.4-.6 9.6 7.1 11 10.4 1.6zM185.1 256.1c-1.9-4.4-14.3 4.1-8.2 10.5 1.9 2 5.1 1.2 7.3 0 5.2-2.7 2.8-6.3.9-10.5zM1064.3 121.5c2.8-.4 6.8-1.2 4.6-5.1-1.8-3.1-5-1.3-7.5-.2-2.6 2.1.9 5.2 2.9 5.3zM883.2 196.9c-.2-11 .3-24.5-3.7-35-1.5-4-5.4-7.4-9.3-9.2-3-1.4-7.5.3-9.1-2.8-1.5-3 .3-10.9.2-14.3-.2-6-.1-12-.4-18-.6-11.8-1.4-23.6-1.4-35.3 0-7.2 3.8-24.8-7-23.8-4.8.4-9.2.7-14 .6-4.2-.1-10.7-1-11.2 4.5-.4 5.2 1.8 11.7 1.9 17.1.1 5.8-.5 11.6-.7 17.4-.3 11.8.8 23.8.8 35.7l-12-.7c-.8-9.9.2-19.7-.9-29.6-.5-5.1-.1-10.9-1.1-15.8-1.1-5.2-5-3.7-9.6-3.7-3.4 0-10.8-1.7-13 1.3-2.4 3.2-1 13.5-1 17.4.1 4.5 3.2 29-1.6 31-3.1.6-6.2 1-9.6 1.5-.4-4.8-1-9.6-1-14.4 0-4.2.9-9.2-.2-13.4-1.8-7-13.9-4.1-19.4-3.9-4.1.2-7.5.2-9.5 4.3-1.9 3.9-.9 9.6-.9 13.8 0 3 1.7 11 .2 13.5-2 3.6-6.8 1.3-10.7 1.5-2.5.1-7.5.1-8.1 3.3-.7 3.8 4.3 3 6.7 3.1 6.4.3 14.6.9 18.1-6.1 3.5-7.1-2.5-17.9.3-25.2 1.9-4.9 11.9-2.6 16.5-2.6.9 8.3 0 16.9 1.3 25.2.9 5.5 1.8 6.6 6.9 6.4a64 64 0 0 0 13.7-2.1c7.1-2.2 4.4-15.2 4.3-21.4-.2-9.1-.6-18.3-.6-27.4 3.8-.5 7.2-.7 10.7.3.8 7.7 1.8 15.4 1.9 23.2l.1 13.1c0 2.9-.9 7.2 0 9.9 1.7 5.1 8.8 3 13.3 3.3 7.1.4 11.9-.7 11.8-8l-.3-46.5c0-4.5-.2-8.9-.7-13.4-.2-1.6-1.2-5.1.1-6.5 2.2-2.3 14.2-.5 17.4-.5-.4 6.7.6 13.6.5 20.3-.1 7.6.2 15.2.9 22.8.7 7.4 1 14.8 1 22.2v10.5c-.1 2.6.7 8.6-.8 10.8-9.1 1.3-18.1 1.1-27.3 1-7.4 0-15.7-.6-22.9 1-6.6-2-13.6-.5-20.3.1-6.8.5-13.5.9-20.2 2-6.6 1.1-13.3-.4-19.9.7-2.3.4-3.4 1.2-5.4 2.1-1.4.6-4.7 1.1-5.8 2-3.7 3-.6 11.9-.8 16.1-.3 6.7-.1 13.4.1 20.1.4 13.3 0 26.5.4 39.7.2 6.6-1.7 10 6.2 10.4 6.7.3 13.2 0 19.7-.3 3.1-.2 6.7.3 9.9.6 6.7.6 13.7-.4 20.4-1a403 403 0 0 1 36.4-1.7c6 0 11.9-1.1 17.8-1.7 5.5-.6 13.3-.2 18.2-2.9 6-3.3 2.4-11 2.4-16.3 0-6.5-.5-12.5-1-18.9-.7-7.7-.7-15.5-1-23.3-.1-4.1.2-8.2.1-12.3 0-3.7-1-7.6-.3-11.2 6.4-.4 12 4.3 13.2 10.3 1.8 8.8 2.3 18.4 2.6 27.4.2 8.2-.2 16.4-.3 24.6-.1 8.4.5 16-3 24-3 6.8-10.5 10.3-17.6 11.4-9.5 1.4-19.2 2.5-28.8 3.6-16.1 1.8-32.2 1.7-48.3 2.7-15.4 1-29.9 1.7-45-1.9-5.7-1.4-11.3-2.5-14-8.2-4-8.1-3.6-17-3.7-25.8-.3-16.5.5-33-.1-49.4-.6-17.2-1.2-34.5-1.5-51.7-.2-8.9-.2-16.1-5.4-23.8-4-6-13.6-10-20.7-10.3-8.7-.4-17.4 1.1-26.2.7-4.8-.2-9.9-.7-14.6-.7-4.4 0-8.8 1.8-13.1.8-4.8-.2-10 1.6-14.9 1.8-4.6.2-9.1-.4-13.6-.4-8.1 0-16.7-.5-23.4 5.2a31 31 0 0 0-7.4 9.8c-1.2 2.6-1.2 8.6-3.2 10.4-2.3 2.1-9.7 1.2-12.6 1.3-5.6.2-11.1 0-16.7-.2-1-10.5.1-23.1-5.4-32.6A47.2 47.2 0 0 0 516 68c-4.2-2-8.6-2.1-13-3.4a44.3 44.3 0 0 0-16.2-1.6c-10.1 1.1-21 1.5-29.9 6.9a81 81 0 0 0-24.1 21.4 57.3 57.3 0 0 0-8.7 30c-1.8 23.3.7 47.4 2.5 70.7.3 3.6-1 13.2 2.4 14.3 3.8 1.3 8.9-5.5 11.3-7.8 3.7-3.3 24.8-22.6 21.8-27.7-3.7-2.4-12.1 10.1-14.2 12.2-4 4.1-9.4 11.9-15 13.8-1.3-22-2.8-43.9-3-66-.1-10.2.3-23.2 5.1-32.5a56.3 56.3 0 0 1 20.4-20.7c3.6-2.2 6.1-4.9 10.4-5.9 4.9-1.2 9.9-1.4 14.9-2.2 4.7-.7 8.7-1.7 13.6-.9 4.7.8 9.8 2.2 14.3 3.3 20.3 5.3 30.1 27.4 27.5 46.8l-.7.3c-9.8.6-19.7.2-29.4 1.2-4.9.5-9.8.9-14.6 1.1-2.4.1-10.1 1.4-12.2-.3-2.9.2-5.7-.8-7.1 2.6-.8 6 .7 13 .8 19.1.1 7.9.7 16.2.2 24.1-.2 3.5-1.7 5.8 1.3 7.9 3.2 2.2 9.3 1.8 12.9 1.4 4.1-.5 8.3-.1 12.4-.6 4.3-.6 9.1-3 12.8-5.1a60.6 60.6 0 0 0 27.8-39.4c1.4-5.9 1.4-6.7 7.7-6.8 8-.1 16.1.1 24.1-.4 1.2 6 .5 12.8 1.1 18.9.7 7.1 1.3 14.1 1 21.3-.3 5.7-.3 11.2.2 16.8.5 6 .2 13.2 3.7 18.5 6 8.8 19 8.7 28.3 8 6.4-.4 12.9-.6 19.3-.7 6.6-.1 13.3 1 19.8.3 10.2-1.2 23.8-.9 25.9-13.5 2.2-13.6.1-28.7-.2-42.4-.3-12-1.2-26.5-13.1-32.9-10.9-5.9-25.5-2-37.2-1.5-6.8.3-13.4.2-20.1 1.3-3.5.6-6.9.6-10.5.2-1.9-.2-8.7 1-10 .3-3.9-2.1 2.2-11.8 4.1-14.1 3.2-3.8 9.7-8.4 15.1-6.6 5.9-2.8 13.7.2 19.9-.1 8.5-.4 17.1-1.4 25.5-2.2 8.2-.8 16.6.9 24.8 1.2 9.2.4 17.3-2.2 26.3.7 14.3 4.7 12 25.1 12.4 37.2.5 18 .4 36 .9 54 .5 16.7-.8 33.7.6 50.4.6 7 1.9 16 7.2 21.1 5.3 5.2 15.8 6.3 22.8 7.4 14.9 2.3 30.5.6 45.6-.3 16.1-1 31.3.2 47.1-3.6 15-3.6 32.1.2 44-12.1 5.7-5.9 5.8-15 6.2-22.8.7-10.3.6-21.1.4-31.7zm-30.8 38.8a290 290 0 0 1-29.4 1.8c-9.8.2-19.4 1.2-29.1 1.8-9.2.6-18.3 1.7-27.3 1.2-8.9-.5-17.9 0-26.8 0-1.7-8.5-.6-17.7-.6-26.4 0-9-.4-18-.6-27-.1-4.5.4-8.9.2-13.3-.1-2.1-1.5-6.3-.2-8.2 1.1-1.6 6.8-2.7 8.8-3.3 4.4-1.2 8.5 0 12.9-.2 3.4-.1 6.5-1.6 9.8-2.1 3.7-.6 7.4-.7 11.1-1 9-.7 17.5-1.1 26.5-.4 7.5.6 15.1-1.1 22.8-1 3.8.1 7.5.5 11.3.3 4.1-.2 8.3-1.3 12.4-.8 1.5 25.8 1.6 51.6 3.4 77.4a55 55 0 0 1-5.2 1.2zM534 135.3a50.8 50.8 0 0 1-21.8 29.9c-4.9 3-10.2 4.8-15.9 4.8-3.1 0-6.2.7-9.2.7-2.7 0-5.1-1.4-7.8-1.4-.3-14-1.2-27.8-.6-42 19.1-.5 38.1-2.2 57.3-2.2-.7 3.5-1.2 6.9-2 10.2zm47.8-11.3c4.4.6 10.5.1 15.1-.1 4.8-.1 9.6-1.1 14.4-1.5 5.6-.4 11.2-.6 16.9-.7 5.3-.1 11.1-1.7 16.3-1.4 2 .1 3.7.8 5.5 1.6 1.8.9 4.5 1.4 6 2.2 4 2.2 6.4 6.9 7.5 11.1 2.9 11.2 1.9 24.1 1.9 35.6h.2c0 7.2 2.3 18.7-.9 25.2-3.5 7.1-14.2 6.1-20.7 6.6-8.3.6-16.6.1-24.9.4-8.2.3-16.5 1.5-24.4-.6-6.6-1.7-10.4-2.7-12.3-9.8-2.3-8.3-1.7-17.3-1.6-25.8.2-8.7-.1-17.5-.7-26.2-.4-3.8-4.6-16.9 1.7-16.6z"/><path d="M607.2 177.4c4.3 3 10.6 4.1 15.3 6.2 4.5 2.1 5.4 3.1 9.9.1a53.4 53.4 0 0 0 16.6-17.5c4.3-6.9 5-17.3-1.4-23.3-8-7.5-16.8-3.3-23.4 3l-.9-.7c-5.8-9.1-20.7-9.2-26.2-.1-7.8 12.7.8 24 10.1 32.3zm-4-28.8c2.4-6.1 9.1-6.3 13.5-2 3.2 3.1 3.3 13 9.1 9.8 4.7-2.6 3.8-10.4 9.6-12 7.6-2.1 8.8 7.4 9.7 12.2-2.8 9.2-12.2 25.1-23.4 20.8-11.5-4.4-24-14.8-18.5-28.8zM1015.8 112.3c2.1-.9 2.5-3 2.7-5.4-1.6-3.2-7.1-2.9-8.7.6-1.6 3.5 2.5 6.4 6 4.8zM809.2 189c-3.7-2.9-7.5-5.6-11.1-8.6-2.6-2.2-7.6-7.5-11.5-6.7-5.8 1.2-2.2 25.5-2 30.5h-.2c0 3.9-1.9 14.3 1.1 17.1 4.4 4 10.6-4.6 13.3-7.1 4.9-4.6 10.8-8 15.7-12.5 5.8-5.3-.6-8.9-5.3-12.7zm-18.9 25c.7-11.2-.4-21.8-1.4-32.5l.7-.3 20.4 16.9-19.7 15.9z"/><path d="M1093.3 138.8h-13.2c-5.1.1-3.6-.7-6-4.3-4.2-6.4-10.7-9-17.9-5.9-4.4 1.9-14.6 13.2-7.7 17.2 5.8 3.4 16.5-2.1 22.8-1.1l.6 5.7c-.1.3-.3.6-.6.7-7.4.4-15-.1-22.4-.1-5-.9-10.3.5-15.3-.1-6.3-.8-5-4.8-5.9-10.4-1.8-11.1-8.2-25-22-19.6-10.7 4.1-11.2 19-11.5 28.4-.1 3.2-1 3.5 2.6 4.4 2.9.7 6.4.2 9.3.4 5.4.3 11 0 16.3.4 0 2.5.9 16.6-1.3 17.3-5 .5-10 .2-15 .7-5.1.5-9.8.1-14.9-.3-5.6-.4-10.8.3-16.3.4-3 .1-6.8.2-8.4-2.3-1.8-2.8 0-9.2.1-12.2.2-5.5 0-11.1-.1-16.7-.1-11.3.9-22.5.1-33.8-.7-9.2-4.3-17-13.2-21-8.1-3.7-19.5-.9-28.1-.9-10.7 0-22.2-.8-32.3 3.7-10.8 4.8-6.3 18.4-7.9 27.6a107.2 107.2 0 0 0 .5 11.8c1.1 3.7 2.7 8.4 6.1 10.5 3.6 2.2 10.2 1.9 14.2 1.7 9-.3 17.9-1.1 26.8-1.7 2.2-.1 22.7-2.2 19.3-5.3-1.6-1.4-8.5-.2-10.5-.1-4.8.4-11.1 0-15.6 1.4h-.5c-5.2.6-10.4.4-15.6.9-3.6.3-9.9.8-13.3-.9-8-3.9-4.9-20.6-5.3-27.8-.2-4.8.5-11.5 5.2-14 4.3-2.3 12.3-3 17.1-3.2 10.3-.3 20.6.6 30.9 0 8.3-2.1 14.6 8.4 15.5 15.1 1.2 9.4.2 18.9.4 28.3a656.2 656.2 0 0 1-.5 35c-.1 1.4.2 3.2-.4 4.5-.3.8-1.6.5-1.3 1.9 1.6 3.9 7.9 2.1 10.9 2.2 4.2 0 8.3-.3 12.4-.2 8.5.2 17.2 1.3 25.8.5 4.2-.4 19 1.1 20.7-2.2 1.1-2.1.4-7 .5-9.3.1-2-.7-8.3.5-9.9 1.6-2.2 2.9-.8 5.7-.5 4.2.4 8.7-.2 13-.1 7.2.3 14.6.7 21.6.8 3.5.1 8.2.7 9.4-2.9.9-2.8-2.7-7.4-.1-9.6 1.8-1.5 9.8-.1 12.1-.3 1.7-.1 3.8.2 4.3-1.8.4-1.1 0-3-1.6-3zm-40 2.2c1.7-4 2.6-7.4 7.3-8.5 4.3-1 7.6 2.2 9.3 6.5-5.4 1.2-11 1.8-16.6 2zm-31.3 7.9c-5.1 1-13.2 2.1-18.2.2-3.5-1.4-2.9-1-2.8-5.9.1-3.3.3-6.8 1.5-9.9 2.5-6.2 8.6-11.9 14.4-5.5 4.6 5.1 5.6 14.6 5.1 21.1zM560.9 2.5c-.3 2.4.2 4 .4 6.3v2.5c1.3 4.4 3.2 10.2 7.4 12.7 4.5 2.8 12.4 2.3 17.6 2.1 10.5-.4 20.7-1.4 31.2-2 3.5-.2 27.8-.8 24.4-6.4-1.1-1.8-12.7-.1-15 .2-5.3.5-11.5-.1-16.6 1.4h-.7c-4 .5-7.8-.3-11.8.1-5.3.5-10.4 1.6-15.9 1-4.6-.5-8.2-.5-10.8-4.6-2.9-4.5-2.7-10.6-2.8-15.7h-7.5l.1 2.4zM273.1 26.1c1.6 14.3 6 27.6 18.2 36.2a48.4 48.4 0 0 0 41.4 7.2 58.7 58.7 0 0 0 18.7-7.5c5.5-3.8 10.6-9 14.3-14.6C374.9 33.5 374.9 16 376 0h-8.1c-1.7 15-.6 32.7-9.7 45.7a47 47 0 0 1-39 19.9c-32-1.1-48.8-40.2-30.9-65.6h-9.6a41.4 41.4 0 0 0-5.6 26.1z"/><path d="M354.5 2.8c2.2 2.9 8.2 1.4 7-2.8h-8.3c.3 1 .7 1.9 1.3 2.8zM407 18.2c-.2 7.3-.2 14.6-.3 22-.1 4-2.6 13.8 3 14.7 5.5.9 8.6-6.3 11.7-9.4 4-4.2 8.3-8.4 13-11.9 4.5 4.3 9.7 7.4 14.3 11.5 5.3 4.8 11.7 7.3 12.5-2.1.6-7.3.5-14.9.3-22.3-.2-7 .9-13.7 1.1-20.7h-7.4c-.4 6.3-1.2 12.6-1 19 .1 6.2.8 14-.7 19.9-3.4-2.3-6.9-4.6-10.1-7.3-3.1-2.7-5.1-7-9.7-6.5-3.7.4-5.6 3.9-7.8 6.4-3.5 4-7.2 7.6-11.6 10.6 0-14.1.5-28.1 1.4-42.2h-7.8c-.6 6.2-.7 12.3-.9 18.3zM184.9 6.1c15 12 46 9.8 57.4-6.1h-9.8c-12.8 8.2-32.1 10-44.7 0h-9.5c1.9 2.3 4.3 4.2 6.6 6.1zM17.1 40.7c1.5-.4 1.3-2.1.7-3-.6-1-4.8-.3-5.3-.3-4.3.2-8.3.6-12.5 1v5.3c5.9-.9 11.5-.7 17.1-3zM27.7 11.5c.7 15.8-.4 31.7-.1 47.6.1 5.4-.1 10.7-.3 16.1-.1 2.5.3 5.6-.3 8-.1.5-1.9 4.4-1.9 4.3 2 4.9 10.9 2.6 14.9 2.7 2.5.1 4.8.1 7.3-.2 3.2-.4 5.4.3 8.6.3 10.3 0 20.6 1.1 31.1.1 5.1-.5 10.2-.8 15.3-.5 6.2.4 7.4-.3 7.7-6.7l.5-13.1c.1-1.2-.3-4.4.4-5.5 1.3-2.1 1-1.3 3.4-1.3 2.8 0 5.4.9 8.3.7l7.5-.2c7.2.1 14.5.4 21.7.7 4.4.2 8.8.5 13.2.2 7.1-.6 6.4-2.1 5.6-8.7-1-7.7 2.1-6.4 9-6.5 2.3 0 14.6 1.4 11.3-4.6-1.7-3.1-11.8-1.5-15-1.5-1.8 0-6 1-7.6-.1-2.1-1.4-3-6.2-5.1-8.2-5-5-10.2-7.2-17.2-4.8a18.3 18.3 0 0 0-11.6 10.8c-3.1 7.3-2.3 11.8 6.6 11.5 7-.2 14.6-3.1 21.5-2l.7 6.9c-.1.4-.3.8-.7.9-7.8.5-15.7-.6-23.6-.3-7.6.3-15.5.6-23-.5-1.8-.3-4.2-.4-5.3-2-1.8-2.6-1-10.5-1.7-13.8-1.6-7.1-3.9-15.2-10.5-19.1-5.1-3-14.7-3-19.4 1.1-6.5 5.6-9.3 15.1-9.7 23.3-.1 2.5.3 5.3-.1 7.7-.1.9-1.6 4-.8 5.1 1.7 2.5 7.8 1.6 10.5 1.7l12.9.4c2.1.1 4 .9 6.1.9 1.8 0 3.5-.8 5.2-.6 0 2.8.9 20.1-1.6 21-6.1.7-12.5.5-18.5.9-7 .5-13.5-.4-20.5-.6l-10-.3c-2.3 0-4.6 1-7 1-5.3-.1-9.8.7-10.7-5.2-.8-5.5.6-11.4.6-16.9 0-6.8-.2-13.5 0-20.3.2-7.5.5-15.1.5-22.6.1-6.3-1.5-13-1-19.3H27c.4 3.8.6 7.6.7 11.5zm112.8 34.6c2.1-5 3.8-9.9 10-10.6 4.3-.5 8.4 4.2 10 8.3-6.5 1.1-13 2.3-20 2.3zm-37.9 9.6c-4.1.8-7.7.6-11.8.6-3.5 0-8.1 1-11.4-.5-3.2-1.4-2.3-4.1-2.2-7.8a31 31 0 0 1 2.4-12.8c3.2-6.3 9.4-11.9 16-6.2 6.7 5.9 7 18.8 7 26.7zM4.2 10.2C3.9 7.5 1.8 8.3 0 7.3v8.5c2.1-1.5 4.6-2.6 4.2-5.6zM598.4 2.6c-2.2 11.5 17.3-.8 20-2.6h-12.2l-.4.2V0h-7.6l.1 2.6h.1zM993.6 48.4a49.8 49.8 0 0 0 33.4 38.8c17.3 5.3 34 5.8 49.2-5.5a50.3 50.3 0 0 0 17.2-47.6 40.8 40.8 0 0 0-10.3-20.1c-3.1-3.6-4.9-6.1-9.4-8.2-4.9-2.2-10.1-4.2-15.2-5.9h-30.6c-8.4 3.3-19.5 9-22.1 18.7-1.2 4.4 2.7 7.9 6.5 4.1 1.2-1.2 1.7-3.7 2.5-5.2 1.4-2.3 3-3.5 4.9-5.3a34.2 34.2 0 0 1 25.5-8.8 46 46 0 0 1 27.6 10.2c15.9 13.7 17.4 43.5 3 58.9a43.3 43.3 0 0 1-60.6.7 52.2 52.2 0 0 1-14.6-33.8c-.7-6.6-1-13.3-1.7-20-.7-6.6.5-12.9-.3-19.5h-8.3c.1 16.1 0 32.9 3.3 48.5zM1105.7 6.7c3.5 2.6 6.6 4.7 10.6 6.6 4.7 2.2 5.8 3.8 9 7.8a35 35 0 0 0 18.1 11.1c14.8 3.3 34.8.3 44.9-12 1.6-1.9 8.7-13.3 2-13.7-2.3-.2-6.1 7.9-7.3 9.3a25.3 25.3 0 0 1-8.6 7c-11.5 5.4-35.4 7-42.8-6.3 9.8-3.3 18.1-5.2 21-16.6h-9.4c-2.7 5.2-4.7 6.7-10.1 8.3-4.7 1.4-6.1 1.4-6.8-4.1l.5-4.2h-8.1l-.7 5.6c-2.9.2-6.9-3.7-8.9-5.6h-9.2c2 2.4 3.4 5.1 5.8 6.8zM1392.2 1.8c-2.3 4.9-1.6 7.4-.4 12.4-3.4 5-8.7 4.7-9.6 11.6-.9 7 4.3 9.9 9.3 13.7-4 4.7-7.8 8.1-6.1 14.8 1.8 7.2 6.7 5 11.6 9.1-3.5 5.5-2.9 10.5 2.4 14.5 6.7 5 12.9 5.5 21 4.2 7.1-1.1 14.1.4 21.1-.4 7.7-.9 16.7-1 24.2 1.3.3 3.6-.4 7.5 3.1 9.2 3.4 1.7 11.8.7 15.6.6 2.9-.1 10 .9 12.2-1.1 3-2.7-.6-7.4 1-10.7 6.6.4 17.1 1.4 23.3-1.2 2.9.8 5.5-1.1 8.1-.6 2.8.5 1.5-.1 2.7 2.4 1.1 2.4.4 7.9.4 10.6.1 3.5.2 7.1-.1 10.6-1.3 11.8-4.7 24.7-16.6 29.7-5.3 2.2-11.3 2.7-17 3.2-5.6.5-11-1.7-16.5-.9-5.6.8-11.4.5-17.2.2-5.8-.4-12.3 1-18.1-.1-3.1-.1-2.3-8.6-2.3-10.3.1-4.7-.1-10.8-2.6-15-4.7-8.2-14.7-10-23.3-10.2-20.1-.6-40.1 1-60.2 2.2-1-17-.9-36.3-15.4-48.4-5.9-4.9-12.8-5.6-20.1-6-9.6-.6-15.7 3-23.7 7.7-5.3-7.5-10-15.5-16.6-21.9a40.9 40.9 0 0 0-22.9-9.6 73 73 0 0 0-29.3 3.9c-4.7 1.5-8.3 2.5-12 5.9-3.8 3.5-7.2 7.6-10.8 11.3-13.6-9.8-37.4-13.4-49.7.3-5.5 6.2-10.7 13.1-10.9 21.7-.2 9.1.6 18.7 4.6 27 8.1 16.7 28.3 19.7 45 20.8 4.6.3 9.2.3 13.8.1 4.9-.3 9.8.8 14.7.6 3.6-.1 25.8-2.1 25.4.6.3 8.1-1.9 16.9-5.3 24.2-2.2 4.7-8.2 15.5-14.7 15-1-8.2-2-15.2-9.2-20.1-6-4-15.2-6.5-21.1-1.2-5.9 5.3-5.6 13.6-2.3 20.2 4.1 8.2 11.2 9.3 19.2 12-4.3 7.7-15.2 9.5-23.1 9.9-9.7.5-21.1-2-27.7-9.8-1.7-1.9-5.7-10.7-8.5-10-4.2 1-1.2 6.7-.3 8.6 4.4 9 12 13 21.2 15.9a49.1 49.1 0 0 0 30.1-.1c3.8-1.5 7.7-3.5 10.8-6.1 4-3.4 5.9-8.1 10.6-10.6a46.6 46.6 0 0 0 20.2-16.5 62.8 62.8 0 0 0 8.3-28.7c.3-5.1 1.5-4.4 6.3-4.4 6 0 11.9-.8 17.9-1.1 11.2-.5 22.5-1.4 33.7-1.6l2.7.3c9.4-1.2 21.1-2.4 30.5-1.3 0 10.6 1.4 21.3 1.1 31.9-.3 11.8-1 23.5-2 35.3-1 11.9-1.2 25.1-7.6 35.7-6.8 11.2-16.3 16.1-28.3 19.8a38 38 0 0 1-34.1-6.2c-9.7-6.7-13.2-16.1-15.2-27.3a40.7 40.7 0 0 1 8.5-32.6 43.5 43.5 0 0 1 27.7-13.9c9.9-.6 20.3.7 27.8 7.5 3.7 3.4 5.3 6.3 8.1 10.4 3.1 4.7 8.6 3 7.2-2.7-2.5-10.1-15.5-16.9-24.6-19.5a55.3 55.3 0 0 0-35.4 3.6 40.4 40.4 0 0 0-23.4 19.3 49.2 49.2 0 0 0-2.9 33.8 45.5 45.5 0 0 0 46.2 35.6 54.2 54.2 0 0 0 52.8-45.6c2.5-14.2 2.7-29.1 2.9-43.5.1-6.6.2-13.1.1-19.7-.1-7.8-1.4-15-.3-22.9 8.6.4 17.7-1.1 26.3-1.4 9-.4 17.8-.7 26.9-.8 6.8 0 16.9-1.3 22.3 4.1 2.4 2.4 3.2 5.9 3.5 9.2.3 3.2 1.6 11-.2 13.8-13.6 1.6-28.4-1.4-40.8 5.5-5.7 3.2-6.6 9-6 15.1.7 7.8-.6 15.5-1 23.3-.4 7.8-.4 15.5-.5 23.3-.1 4.1-2.6 18.7.4 21.8 4.4 4.6 9.5-3 11.8-5.8a100 100 0 0 1 15.3-14.5c2.9 2.8 5.9 4.7 9.1 7.1 3.1 2.2 5.5 5.5 8.7 7.5 11 7 9.1-11.2 9.2-17.1.4-19.1 1.3-38.1 1.3-57.2 4.6-.3 8.7-1 13.3-.9 4.2.1 8.8.4 13.1.2 4.3-.2 8.2.1 12.5-.4 4.6-.6 8.7 1.3 13.4 1.2 16.4-.3 34.9-4.9 39.8-22.8 2.5-9.2 3.2-18.8 3.2-28.3 0-3.2-1.9-10.5-.1-13.1 1.6-2.3 8.1-2 10.7-2.2 3.1-.2 25.8.9 18.7-6.8-2.2-2.3-8.3-1.2-11.1-1.2-5.5.1-11.2-.3-16.6 1.1-.6 0-1.1 0-1.7-.2-1.3-11.2-1.3-22.8-1.4-34.1-.1-10.2 1.1-21-4.3-30.2-4.6-8-19.5-5-27.6-5-1.4.8-5.9 1.5-7.2 0h-10.4c-2 .5-6.9 2-8.6 0h-9.1c1.3 6.7 5.8 6.4 11.9 6.4 2 0 6.2-1 7.6.5 1.2 1.4.1 8.8-.6 10.1-11.5 0-31.3.9-25.8 17.5 1.9 5.6 6.9 10 12.9 10.5 3.3.2 6.4-1 9.3-2.5 2.8-1.5 4.9-4.5 7.7-5.8 3 11.5-10 15.6-19 16.4-4.3.4-8.4-1-10 3.3-.9 2.5.4 7.9.6 10.6.2 3 .3 5.8.1 8.8-6.1-.5-12.1-1.3-18.2-1.2-4.5.1-9.2.7-13.7.4-4.9-.3-8.7-1.1-13.6-.4-4.7.7-9 1.4-13.3-.8-2.9-1.4-6.5-3.7-3.6-6.6 3.2-3.3 10.1 0 14-.4 3.9-.4 9.9-1.9 13.2-3.9 3-1.8 9.2-7.5 6.2-11.2-5.5-.2-10.6.5-16.1.9-5 .4-8.2 2.1-12.7 3.8-6.1 2.4-22.7-4.1-12.8-10.8a19 19 0 0 1 6.9-2.4c2.7-.3 5.5.9 8.1 1.1 2.3.2 4.4-.2 6.8-.2 4.2-.1 23.1.3 18.1-8.6-3.4-1.2-6.7-3.4-10.2-4.1-4.2-.8-7.7.9-11.6 1.7-6.6 1.3-13.2 2.3-19.2-1.3-1.6-1-5-2.7-5.3-4.7-.5-3 4.1-5.7 6.5-6.8 6.7-3.2 13.7 2.3 20.8 2.2 4.2 0 14.8 2.1 16.7-3.4 2.5-7.3-7.9-9.9-12.8-10.5-4.1-.5-7.9-.2-12 .5-2.4.4-8.4 2.5-10.5.7-5.1-4.3 8-9 10.4-9.8h-14.4c-.4.1-.9.7-1.3 1.4zm-169.7 151.4c-.4 2.8-.3 4.9-3.4 5.2-1.8.2-6.6-1.8-8.1-2.6-4.4-2.5-8.9-10.6-6.5-15.7 2.4-5.1 8.8-2.5 12.3.1 4.1 3.2 5 8.1 5.7 13zm127.9-52.7c-.2 4.3-23.6 3.2-27.2 3.4-10.8.5-21.6 1.1-32.5 1.4-5.5.1-11 .2-16.5.5-3.1.2-11.4 2.5-13.7.8-2-1.3-.8-9.9-.8-12.1V77.7c2.9 2.4 6.4 6.2 10.2 6.9 3.3.6 6.5-.7 5-4.5-1.7-4.3-8.9-7.6-11.9-11.2-2.7-3.2-4.3-6.9-9.1-7.4-5.7-.6-6.8 4.7-9.1 8.9-2.2 4.2-5 7.8-7.4 11.9-1.9 3.2-2.2 6 2.7 5.6 5-.5 7.2-7.2 10.1-10.5 3.7 7.8 1.3 21 .7 29.4-14.8 0-29.7.8-44.4 1-6 .1-13.9.7-19.7-1.3-5.5-1.9-11.8-2.3-17.2-5-13.8-6.8-17.3-26.2-13.2-40a30.6 30.6 0 0 1 10.7-15.2 29 29 0 0 1 18.2-4.8c6 0 14.7 2.6 17.8 8.3 1.9 3.5.8 12.3 7.9 8.7 2.6-1.3 2.1-2.6 2.8-5 1.1-3.8 2.3-6.6 4.8-9.7 5-6.3 10.5-9.9 18.1-12.1 13.7-4.1 30.7-4.8 41.5 6.2a80.2 80.2 0 0 1 11.7 16.6c2.4 4.4 2.9 14.1 9.4 13 3.2-.6 3.7-2.6 5.2-5.1a23.5 23.5 0 0 1 29.9-7.1c15.9 7.8 16.8 30.2 16 45.2zm87.2 63.1c-.3 7.3-1.5 14.6-1.5 21.9 0 7.1 1.2 15.5-.5 22.4-3.4-2.3-6.9-4.6-10.1-7.3-3.1-2.7-5.1-7-9.7-6.5-3.7.4-5.6 3.9-7.8 6.4-3.5 4-7.2 7.6-11.6 10.6 0-18.3 1.6-36.4 1.9-54.7.1-9.6 2.2-13.4 12-15.9 8-2.1 18.5-.6 26.7.2.4 7.7.9 15.3.6 22.9zm51.8-136.3c-1 5.9-8.4 15.8-14.9 9.8-2-1.9-4.6-7.2-3-9.8 1.9-3.3 9.6-3.8 12.8-4.8 1.6.8 3.1 1.6 4.6 2.6.5.6.7 1.4.5 2.2zm.2 59.2c-5 1.2-10 .3-15.3 0l-.5-3.7a40.3 40.3 0 0 1 15.8-1.7v5.4zM1476 59.1c10.1 1.3 24.3-6.9 25.9-17.2 1.1-6.8-1.6-10.9-3.4-17.2-1.4-5-1.1-13.5.9-18.3 7.7-.6 15.1-3.1 22.8-1 7.4 1.9 7.8 10 8 16.7l.5 24c.2 8.2 1.7 17 .8 25.1-6.6.8-13.1 1.8-19.7 2.2-2.7.1-12.4 1.8-14.3-.1-3-2.9 1-8.8-4.2-10.4-6.7-2-4.3 6.7-4.3 10.4l-15 1.1c-.2-3.3-3.5-16 2-15.3zm-59.7-43.7l.1.5-1.5.1v-.4l1.4-.2zM777.8 2.6c2-.3 5.2-.3 6.2-2.6h-10.2a4.9 4.9 0 0 0 4 2.6zM651.7 12.8c-.3 11.3.2 22.6-.1 33.9l-.4 12.7c-.1 1.6.2 3.9-.3 5.4-.4 1.2-2.1 1-1.8 2.6 2 4.9 10.9 2.6 14.9 2.7 2.5.1 4.8.1 7.3-.2 3.2-.4 5.4.3 8.6.3 10.3 0 20.6 1.1 31.1.1 5.1-.5 10.2-.8 15.3-.5 6.2.4 7.4-.3 7.7-6.7l.5-13.1c.1-1.2-.3-4.4.4-5.5 1.3-2.1 1-1.3 3.4-1.3 2.8 0 5.4.9 8.3.7l7.5-.2c7.2.1 14.5.4 21.7.7 4.4.2 8.8.5 13.2.2 7.1-.6 6.4-2.1 5.6-8.7-1-7.7 2.1-6.4 9-6.5 2.3 0 14.6 1.4 11.3-4.6-1.7-3.1-11.8-1.5-15-1.5-1.8 0-6 1-7.6-.1-2.1-1.4-3-6.2-5.1-8.2-5-5-10.2-7.2-17.2-4.8A18.3 18.3 0 0 0 758.4 21c-3.1 7.3-2.3 11.8 6.6 11.5 7-.2 14.6-3.1 21.5-2l.7 6.9c-.1.4-.3.8-.7.9-7.8.5-15.7-.6-23.6-.3-7.6.3-15.5.6-23-.5-1.8-.3-4.2-.4-5.3-2-1.8-2.6-1-10.5-1.7-13.8-1.6-7.1-3.9-15.2-10.5-19.1-5.1-3-14.7-3-19.4 1.1-6.5 5.6-9.3 15.1-9.7 23.3-.1 2.5.3 5.3-.1 7.7-.1.9-1.6 4-.8 5.1 1.7 2.5 7.8 1.6 10.5 1.7l12.9.4c2.1.1 4 .9 6.1.9 1.8 0 3.5-.8 5.2-.6 0 2.8.9 20.1-1.6 21-5.8.6-11.6.3-17.4.9-5.4.5-10.6.3-15.9-.2-5.3-.6-11.2-.9-16.4-.8-2.6.1-5 1-7.6 1-1.1 0-6.1 0-6.8-.5-3-1.6-2.7-6.2-2.5-9.2.3-5.8.6-11.4.7-17.2.1-12.4.1-24.9.5-37.3h-7.8c-.1 4.4-.5 8.7-.6 12.9zm112.8 13.3c2.1-5 3.8-9.9 10-10.6 4.3-.5 8.4 4.2 10 8.3-6.5 1.1-13 2.3-20 2.3zm-37.9 9.6c-4.1.8-7.7.6-11.8.6-3.5 0-8.1 1-11.4-.5-3.2-1.4-2.3-4.1-2.2-7.8a31 31 0 0 1 2.4-12.8c3.2-6.3 9.4-11.9 16-6.2 6.7 5.9 7 18.8 7 26.7zM.9 168.1c-.1-1.2-.4-2.4-.9-3.5v11c.9-2.3 1.2-4.7.9-7.5zM904.2 22.9c.2 6.8 1.1 13.4 1 20.2-.1 6.8-1.2 15.9.6 22.5 2.1 7.5 8.5 2.8 12.3-.5 4.6-4.2 9.8-7.3 14.3-11.5 3.6 2.7 6.6 5.7 9.8 8.9 3.1 3.1 5.8 7.4 9 10.2 1.9 1.6 5.5 3.4 7.8 1.6 2.9-2.2 1.2-9.6 1.2-12.6-.2-10.5-.2-21-.6-31.6-.2-5.2-.9-10.3-1.2-15.4-.3-4.7 1.2-10 .4-14.6h-8.4c1.5 9.8.8 20.4 1.6 30.4.9 10.5.6 21.3.6 31.8-4.1-2.9-7.3-6-10.8-9.7-2.5-2.7-4.6-6.9-8.7-7.4-4.3-.5-6 3.3-8.9 5.8-3.4 3-7.2 5.4-10.9 8-2.3-8.9-.2-19.5-1-28.6-.8-10.1-1.2-20.1-1-30.2H904c0 7.4 0 15.1.2 22.7zM307.1 194.5c2-1.5 4.1-2.7 6.2-4l2 40.5c-2.1 0-12.3-1.1-10.9 4.1.8 2.9 10.5 2.3 12.6 2.3 3.1 0 12.5.3 13.4-3.7 1-4.6-6.3-3.2-9-3.2-1.2-13.9-.8-28-2.1-41.9-.8-8.7-4.3-6.5-9.5-2-1.5 1.3-5 2.9-5.8 4.6-1 1.8.4 5.4 3.1 3.3z"/><path d="M47.1 280.4c-4.6-2.2-10.1-.4-14.9.1-2.4.3-4-.4-6.2-.5-2.1-.2-6.8 1.9-8.4 1.3-2.7-1-1.4-8.5-1-11.1.6-3.7-.4-2.8 3.1-3.6 2-.5 4.5-.2 6.5-.2 3.2 0 8.1 1.7 11 0 3.3-2.1 3.5-8.3 3.7-11.8.9-12.1.3-24 .3-36.1 6.2.9 12.6-.6 18.9-.4 6.7.2 13.1.5 19.7-1.1 13.6-3.3 17.2-13.9 18.7-26.6.8-7.1.2-14.2.1-21.3-.1-6.9.6-13.8.4-20.7-.4-13.4-.9-26.5.1-39.9 3.9 4.9 7.2 10 10.6 15.2 3 4.6 9.8 11.4 10.9 16.7 1 4.9-3.3 11.1-3 16.4.3 6 2.8 11.7 5.8 16.9 3.1 3.7 7.3-1.2 10-2.8 3.5-2.1 12.8-3 13.8-7.9.8-4.1-4.8-9.2-6.9-12.4-1.9-2.9-8.2-9.1-6.3-12.5 1.8-3.1 9.5-2.6 12.3-1.9 5 1.1 8.3 4.6 11.1 8.7 2.9 4.2 5.2 8.7 7.7 13.2 1 1.8 3.1 4.1 2.4 5.9-.6 1.6-7.3 3.9-8.6 4.6-4.6 2.6-9 5.9-13.7 8.2-3.7 1.8-9.3 2.5-11.6 6.3-2.6 4.4.7 7.1 3.1 10.5 3.1 4.6 5.9 9.5 8.9 14.2 5.9 9.4 11.3 19.1 19.8 26.5 8.4 7.3 13.9 5.9 22.8-.3 10.7-7.5 12.7-21.5 8.4-33.4-4.2-11.7-10.4-23.2-15.8-34.5 12-5.6 25.3-11.5 36.2-19 4.9-3.4 3.9-8.1-2.9-7.9-6.5.2-15 7.7-20.4 10.9-3.6 2.1-13.6 9.4-17.3 7.3-1.9-1.1-3.9-7.1-5.1-9.2-2.1-3.7-4.3-7.4-6.7-10.9-8.1-12-25.5-14-36.7-4.8-5.2-8.6-11-16.9-16.9-25.1-2-2.8-5.3-8.4-8.3-10.2-3.9-2.3-4.7 1.4-8.3 1.6-6.4-1-4.9 6.9-5.3 10.3-.7 6.7-.6 13.2-.5 20 .3 14.4.4 28.9.4 43.3 0 10.2 2.2 31.5-9.2 36.4-5.2 2.3-12.8 1.3-18.4 1.2-3.3-.1-19.2 3.1-20.5-1.1-.5-9.7-.4-19.5-.2-29.2.2-9.3 2.4-20.8.3-29.9-2.2-9.2-7.8-14.1-17.1-14-8 .1-15.6-1.1-23.5-1.2v8c5.1 0 10 .7 15.1.8 3.2.1 8-.9 10.9.8 7.2 4.2 4.6 18 4.9 24.8.4 9.5 0 19.1-.3 28.6-.1 2.6.3 5.8-.3 8.3-.6 2.8.4 2.3-2.2 3.5-2.2 1-5.8-.1-8.1-.1l-9 .2H9.6c-4.6-2.3-8.2-.9-9.2 2.9v30.5c11.7 5.8 8.8-14.5 9.2-19.6.3-4 .5-5.5 4.3-6.1 5.5-.9 11.9-.1 17.5-.1 1 9 .9 17.6.6 26.7-.1 3.4 1.3 10-.1 13.1-1.3 2.9-4.5 2.1-7.7 2.1-7.2.1-15.7-2.3-16.6 7.2-.4 4.1.2 8.4-.4 12.5-1.1 4.5-2.9 3.3-7.2 3.3v8.1l5.6.2c.3.1.5.4.6.7H16c0-3 5.5-2.5 7.5-2.5 5.4.1 10.1-.6 15.4-1.6v4.1h9.6c.3-2.9 1.9-9-1.4-10.6zm106.4-79c-4.2-3.2-5.1-8-7.8-11.7l.4-.7 11.3 3-3.9 9.4zm5.3-15.9c-2.4-.6-4.7-1.4-7-2.4 3.9-2 6.6-6.1 11.9-6l-3.8 8c-.2.3-.7.4-1.1.4zm8.9 35.9c-3-1-7.7-7.1-7.8-10l10 1.5c.4.2.6.6.6 1.1l-2.8 7.4zm21.2-.4c0 3.8-8.4 10.5-11.8 9.5-5.1-1.5 1.4-11.4 2.6-14.1 2.3.8 9.3 1.6 9.2 4.6zm-2.5-17.2l2.9 7.4-.6.6-6.1-2.5 3.8-5.5zm-16.7-17.4c1.3-3.2 2.6-7.3 4.3-10.3l6.8 14.6-.4.6c-3.4-1-6.7-2-10.1-3.2-.4-.4-.7-1.1-.6-1.7zm6.8 10.9c2.5.8-1.5 7.3-2.2 8.8l-11.7-1.6c.7-1.7 3-10 5.1-10 2.9.8 5.8 1.9 8.8 2.8zM127.6 150l7.8 11.5c-3.4 1.6-4.4 3.1-6.7.4s-1.8-8.5-2-11.6l.9-.3zM871.3 285c-2.1-1.2-2.5-3.8-4.9-5-2-1-4.9-1.5-7.1-2.3a45.1 45.1 0 0 0-20.6-2.8c-6 .6-10.7 2.6-15.5 6-1.9 1.3-3.2 3.1-5 4.5-2.6 2-5.2 2.8-7.3 5.6h8.4c6.7-5.6 12.6-11.1 21.9-11.1 10.6 0 19.9 4.1 27.8 11.1h8.8a24.7 24.7 0 0 0-6.5-6zM660 273.7c-.8-5.8-6.6-5.1-7.1.1-.5 5.6.6 11.7 1.2 17.2h7.4c-.2-5.8-1.3-11.5-1.5-17.3zM1014.5 269.6c-3.6-2-9.4-.5-13.3-.6-4.4-.1-8.5-.5-12.9-.3-2 .1-8.9-1.6-10.5.4-3.6 4.2 4.9 5.5 6.8 5.9a231 231 0 0 1 18.6-.6c3 0 6.7.6 9.6-.2 2-.7 5.2-2.7 1.7-4.6zM592.2 269.2c10.2-1.7 20-3.6 30.4-3.5 9.6.2 19-2.2 28.6-2.8 3.9-.3 6.5-.1 7.9-3.7 1.3-3.5 0-10.3-.4-13.8-.4-3.7-.2-6.8-3.9-8.1-3.6-1.3-9.7.5-13.5.8-8.9.7-17.8 1.1-26.7 1.6-8.4.4-17 0-25.3.9-8.1.8-16.7 1-24.9.4-3.8-.3-25.7 1.9-27-2.1-2-13.1 3.7-27-.2-40-1.6-5.3-6.3-10.1-12.3-7.8-6 2.3-11.3 9.7-16.8 13.4-5.3 3.6-10.5 7.6-15.9 11.1-1.4.9-6.3 2.5-5.1 5.1 1.3 2.8 5.7.7 7.4-.2 12.3-6.3 23.7-16 34.1-25.1 4.1 6.4 3.3 15.9 2.9 23.2l-.5 11.8c0 2.6 1.1 8.1-.3 10.1l-.9.1c-4-1.4-8.5.8-12.4 1.2a89 89 0 0 1-10.3.6c-4.2 0-7.4-.5-10.9 2.1a21.9 21.9 0 0 0-7.5 9.3c-2.7 8.9 4.8 17.4 10.3 23.4 6 6.5 13.5 9.4 20.8 14H535c2.2-7.5 1.5-15.8 2.4-23.5.4-3.3.6-6.6.5-10 0-2.3-1.4-8-.3-10.1 1.1-2.1 1.4-1.4 3.6-1.4 3.6 0 7.4.5 11.2.5 6.1 0 12.4 1.1 18.4.8 12.2-.7 24.4-.3 36.8-1 14.8-.9 29.7-1.4 44.5-2.5.2 2.2 2.3 10.7 1 12.7-1.2 1.7-6.3 1.4-8.3 1.6-9.7 1.1-18.8 2-28.5 2-5.2 0-10.7 1.2-16 1.9-4.3.6-9.8.6-13.9 2.2-5.5 2.2-2 4.2-1 8.5 1.2 5.5.1 12.7.2 18.4h6.9l-.3-22.1zm-60.9-4.4c-.8 8.5.6 18-2.3 26.1-10-6.3-43.6-22.8-33-39.5 4.3-6.7 17.5-3.2 24.5-4.2 3.6-.5 8.5-3.4 10.6 1 2.1 4.1.7 12.2.2 16.6zM1085.8 287c-9.3-4.6-16.6-2.5-24.1 4h10.7c2.8-2.1 6.5-1.6 9.3 0h9.9a16.7 16.7 0 0 0-5.8-4zM996.2 284.2c-2.4-1-22.1-4.8-19.1 1.5 2.3 3.1 9.4 2.5 12.8 2.7 1 .1 11.7-.6 6.3-4.2zM1046.2 283.7c.8-6.6.5-14.1.5-20.8 0-2.1.8-7.4-.8-8.9-1.7-1.6-7-1.2-5.9 2.2-.4 11.6-.9 23.1-.5 34.8h6.8l-.1-7.3zM198.3 283.4c-10.2-17.1-33.4-7-39.9 7.6h10.1c2.4-3.6 8.9-9.1 13.4-9.3 5.4-.3 8.9 5.6 11.8 9.3h10.5c-1.2-3-4.3-4.8-5.9-7.6zM480.1 251.7c-.6-4.8-1.1-9.5-1.1-14.4 0-4.3-1-9.3.3-13.4a7 7 0 0 0-.3-2c-9.1-1.6-19-.2-27.7 2.3-4.5 1.3-4.5 2-4.4 6.7l.2 14.6v14.3c0 3.4-1.1 7.9 2.2 10 3 1.9 11.3.2 14.6-.4 2.7-.5 5.7-1 3.8-4.7-4.5-2.4-9.1-.1-13.8-.3-.3-6.3-.3-12.6-.4-18.8 0-3-1.9-14.4 1-16.1 5.6-1.5 11.8-3.5 17.6-2.7 1.4 21.4 1.5 42.8 2.4 64.2h6.4c-.3-12.6 1.3-26.9-.8-39.3zM108.9 283.9c-2.4-1.5-3.9 0-6.3.3-2.5.3-4.8-.5-7.3 0a22 22 0 0 0-11.9 6.8h38.9c-3.8-3.2-9.1-4.7-13.4-7.1zM346.7 190.5c2.1-1.4 4.1-3.1 5.7-5l.6.2c.6 14.7 1.4 29.2 2.6 43.9-2.4-.1-7.1-1-8.3 2.1-1.3 3.3 2.6 3.7 5 3.8 5.4.3 17.9 1.4 19.7-5.4-2.6-3.5-6.1-.8-9.7-1.4a519.9 519.9 0 0 1-3.3-43.2c-.2-6.1-.6-10.5-7.4-5.9-2.4 1.6-6 4.3-7.6 6.9-1.2 2.1-.7 5.7 2.7 4zM1027.3 254.1l-5.4-.4v.2c-8.4 0-16.7 0-25-.3-3.1-.1-11.3-1.2-14 1.2-3.2 2.8.1 4.9 3.4 5.1 3.8.3 8.1-.7 12-.6 4.5.1 8.9.2 13.4.1 4.2-.1 8.5-.3 12.7-.8 1.4-.2 4 .1 4.7-1.4.6-1.3-.2-2.8-1.8-3.1zM333.2 276.8c-1.2-9-26.3-2.9-32.3-2.6-3.9.2-13.1-1-16.4 1.4-2.8 2-.8 12.2-.6 15.4h6.1c-.2-3.5-.2-6.9-.3-10.6 9.5-1 19.1-1.7 28.6-2.4 2.8-.2 7.8-1.5 9.3 1.7 1.6 3.4-2 8.1 1.3 11.3h4.6c1-4.1-.1-10-.3-14.2z"/><path d="M271.5 279.1c-.3-4.7-2.3-12.2-.7-16.8 1.6-4.6 6.4-2.8 10.7-3 10.1-.4 20.6.6 30.5-.1 10.3-.8 21.1-2.6 31.4-2.6 5.1 0 10.5.7 15.6.9 6.2.3 11.9-.8 18-1.5 9.9-3 17.1-5.5 21.2-15.8 1.5-3.7 1.1-7.9 1.6-11.8.6-5.6 1.5-11.1.9-16.8-.6-5.5-1.5-11-1.8-16.6-.2-4.9 1-9.7.4-14.5-.6-5.5-1-11.5-2.8-16.8-.9-2.7-5-10.1-9-8.5-2.1 1.5-8.6-1.5-11.4-1.6-4.8-.1-9.4-.4-14.2.1-9.7 1.1-19.2 1.6-28.9 2.3-8.5.7-17 2-25.5 1.6-7.7-.4-14.7 2.3-22.4 2.9-18.1 1.4-21 21.9-20.9 37.1 0 5 .2 10 .1 15 0 4.5-1.2 8.9-1.2 13.4.1 9.1.9 18.2 1.5 27.3-6.7.8-13.3.8-20.1 1-3.1.1-15-1.7-15.6 1-1.5 7.1 30.7 3.5 34.9 4 .6 10.5 1.1 21 1.2 31.6h6.6c.1-3.9.1-7.8-.1-11.8zm-1.4-61.5c.8-13.3-.4-25.7 2.9-38.8 3-12 12.8-12.3 23.3-14.2 6.4-1.2 12.5-1 19-1.1 6.7-.1 13.2-1.3 19.9-1.5 12.3-.3 24.3-2.5 36.6-2.6 5.5-.1 12.4 0 17.2 3.3 4.3 3 3.6 10 4.2 14.7.7 5.7-.4 11.1-.1 16.9.3 7 1.8 13.9 2 20.9.2 9.3.4 24.9-8.2 30.9-4.3 3.1-11.9 4-17.1 5-6.5 1.3-12.1.7-18.6.1-13.2-1.1-27 1.2-40.2 2.1-12.9.9-26.6.3-39.7.1a171.6 171.6 0 0 1-1.2-35.8z"/></g></svg>
