<svg xmlns="http://www.w3.org/2000/svg" viewBox="0 0 1920 14"><path fill="#f8f9fa" d="M1920 14.5v-11c-27 0-106.8 3.6-125.7 2.1-47.7-3.8-166.6-6.7-214.4-5.2-31.7 1-63.4 2.9-95.1 3.7-23.3.6-46.6.1-69.9.1-20.5 0-41-.1-61.4.1-6 .1-12 1.1-18 1.4a2614.6 2614.6 0 01-123.9 4.1c-11.6.1-23.3-.9-34.9-1.2-4.8-.2-9.6 0-14.4.6-23.6 3.5-47.3 2.1-71 1.8-28.1-.3-56.2-1.5-84.3-2.3-22.5-.6-45-1-67.4-1.9-14-.5-28.1-1.2-42.1-2.8-16.1-1.8-32.1-1.4-48.2-1.3-6.4 0-12.9.2-19.3-.3-30.9-2.3-61.8-1-92.7.1C677.8 4.7 618.4 7.2 559 8.9c-16 .5-32-1.4-48.1-1.9-14.4-.4-147.6 2.8-162.1 2.7l-56.6-.1-27.7-.6-53-1.5c-2-.1-4-.2-6-.1-38.9.6-77.8-1.7-116.8-.8-25.6.6-63-3.1-88.7-3.1v11h1920z"/></svg>
